<svg width="21" height="20" viewBox="0 0 21 20" fill="none" xmlns="http://www.w3.org/2000/svg">
<path d="M17.5189 2.11426H3.46608C2.90702 2.11426 2.37086 2.33634 1.97555 2.73165C1.58024 3.12697 1.35815 3.66312 1.35815 4.22218V16.8697C1.35815 17.4288 1.58024 17.9649 1.97555 18.3602C2.37086 18.7555 2.90702 18.9776 3.46608 18.9776H17.5189C18.0779 18.9776 18.6141 18.7555 19.0094 18.3602C19.4047 17.9649 19.6268 17.4288 19.6268 16.8697V4.22218C19.6268 3.66312 19.4047 3.12697 19.0094 2.73165C18.6141 2.33634 18.0779 2.11426 17.5189 2.11426Z" stroke="#073F73" stroke-width="1.07463" stroke-linecap="round" stroke-linejoin="round"/>
<path d="M12.249 9.84333C12.5286 9.84333 12.7966 9.73229 12.9943 9.53464C13.1919 9.33698 13.303 9.0689 13.303 8.78937C13.303 8.50985 13.1919 8.24177 12.9943 8.04411C12.7966 7.84645 12.5286 7.73541 12.249 7.73541C11.9695 7.73541 11.7014 7.84645 11.5038 8.04411C11.3061 8.24177 11.1951 8.50985 11.1951 8.78937C11.1951 9.0689 11.3061 9.33698 11.5038 9.53464C11.7014 9.73229 11.9695 9.84333 12.249 9.84333Z" fill="#073F73"/>
<path d="M15.7622 9.84333C16.0417 9.84333 16.3098 9.73229 16.5075 9.53464C16.7051 9.33698 16.8162 9.0689 16.8162 8.78937C16.8162 8.50985 16.7051 8.24177 16.5075 8.04411C16.3098 7.84645 16.0417 7.73541 15.7622 7.73541C15.4827 7.73541 15.2146 7.84645 15.0169 8.04411C14.8193 8.24177 14.7083 8.50985 14.7083 8.78937C14.7083 9.0689 14.8193 9.33698 15.0169 9.53464C15.2146 9.73229 15.4827 9.84333 15.7622 9.84333Z" fill="#073F73"/>
<path d="M12.249 13.3565C12.5286 13.3565 12.7966 13.2455 12.9943 13.0478C13.1919 12.8502 13.303 12.5821 13.303 12.3026C13.303 12.023 13.1919 11.755 12.9943 11.5573C12.7966 11.3596 12.5286 11.2486 12.249 11.2486C11.9695 11.2486 11.7014 11.3596 11.5038 11.5573C11.3061 11.755 11.1951 12.023 11.1951 12.3026C11.1951 12.5821 11.3061 12.8502 11.5038 13.0478C11.7014 13.2455 11.9695 13.3565 12.249 13.3565Z" fill="#073F73"/>
<path d="M15.7622 13.3565C16.0417 13.3565 16.3098 13.2455 16.5075 13.0478C16.7051 12.8502 16.8162 12.5821 16.8162 12.3026C16.8162 12.023 16.7051 11.755 16.5075 11.5573C16.3098 11.3596 16.0417 11.2486 15.7622 11.2486C15.4827 11.2486 15.2146 11.3596 15.0169 11.5573C14.8193 11.755 14.7083 12.023 14.7083 12.3026C14.7083 12.5821 14.8193 12.8502 15.0169 13.0478C15.2146 13.2455 15.4827 13.3565 15.7622 13.3565Z" fill="#073F73"/>
<path d="M5.22291 13.3565C5.50243 13.3565 5.77051 13.2455 5.96817 13.0478C6.16583 12.8502 6.27687 12.5821 6.27687 12.3026C6.27687 12.023 6.16583 11.755 5.96817 11.5573C5.77051 11.3596 5.50243 11.2486 5.22291 11.2486C4.94338 11.2486 4.6753 11.3596 4.47764 11.5573C4.27999 11.755 4.16895 12.023 4.16895 12.3026C4.16895 12.5821 4.27999 12.8502 4.47764 13.0478C4.6753 13.2455 4.94338 13.3565 5.22291 13.3565Z" fill="#073F73"/>
<path d="M8.73585 13.3565C9.01537 13.3565 9.28345 13.2455 9.48111 13.0478C9.67876 12.8502 9.78981 12.5821 9.78981 12.3026C9.78981 12.023 9.67876 11.755 9.48111 11.5573C9.28345 11.3596 9.01537 11.2486 8.73585 11.2486C8.45632 11.2486 8.18824 11.3596 7.99058 11.5573C7.79293 11.755 7.68188 12.023 7.68188 12.3026C7.68188 12.5821 7.79293 12.8502 7.99058 13.0478C8.18824 13.2455 8.45632 13.3565 8.73585 13.3565Z" fill="#073F73"/>
<path d="M5.22291 16.8697C5.50243 16.8697 5.77051 16.7587 5.96817 16.561C6.16583 16.3633 6.27687 16.0953 6.27687 15.8157C6.27687 15.5362 6.16583 15.2681 5.96817 15.0705C5.77051 14.8728 5.50243 14.7618 5.22291 14.7618C4.94338 14.7618 4.6753 14.8728 4.47764 15.0705C4.27999 15.2681 4.16895 15.5362 4.16895 15.8157C4.16895 16.0953 4.27999 16.3633 4.47764 16.561C4.6753 16.7587 4.94338 16.8697 5.22291 16.8697Z" fill="#073F73"/>
<path d="M8.73585 16.8697C9.01537 16.8697 9.28345 16.7587 9.48111 16.561C9.67876 16.3633 9.78981 16.0953 9.78981 15.8157C9.78981 15.5362 9.67876 15.2681 9.48111 15.0705C9.28345 14.8728 9.01537 14.7618 8.73585 14.7618C8.45632 14.7618 8.18824 14.8728 7.99058 15.0705C7.79293 15.2681 7.68188 15.5362 7.68188 15.8157C7.68188 16.0953 7.79293 16.3633 7.99058 16.561C8.18824 16.7587 8.45632 16.8697 8.73585 16.8697Z" fill="#073F73"/>
<path d="M12.249 16.8697C12.5286 16.8697 12.7966 16.7587 12.9943 16.561C13.1919 16.3633 13.303 16.0953 13.303 15.8157C13.303 15.5362 13.1919 15.2681 12.9943 15.0705C12.7966 14.8728 12.5286 14.7618 12.249 14.7618C11.9695 14.7618 11.7014 14.8728 11.5038 15.0705C11.3061 15.2681 11.1951 15.5362 11.1951 15.8157C11.1951 16.0953 11.3061 16.3633 11.5038 16.561C11.7014 16.7587 11.9695 16.8697 12.249 16.8697Z" fill="#073F73"/>
<path d="M4.87134 0.708984V2.11427" stroke="#073F73" stroke-width="1.07463" stroke-linecap="round" stroke-linejoin="round"/>
<path d="M16.1135 0.708984V2.11427" stroke="#073F73" stroke-width="1.07463" stroke-linecap="round" stroke-linejoin="round"/>
<path d="M19.6268 5.62744H1.35815" stroke="#073F73" stroke-width="1.07463" stroke-linecap="round" stroke-linejoin="round"/>
</svg>
