<svg width="53" height="36" viewBox="0 0 53 36" fill="none" xmlns="http://www.w3.org/2000/svg">
<rect width="53" height="36" rx="4" fill="#E4E6EB"/>
<path fill-rule="evenodd" clip-rule="evenodd" d="M19 12.2857C19 11.6795 19.2408 11.0981 19.6695 10.6695C20.0981 10.2408 20.6795 10 21.2857 10H22.331C22.9863 10 23.5577 10.4465 23.717 11.0819L24.5589 14.4518C24.6271 14.7246 24.6133 15.0114 24.5192 15.2764C24.4252 15.5413 24.255 15.7726 24.0301 15.9413L23.045 16.6804C22.9421 16.7573 22.92 16.8701 22.949 16.9486C23.379 18.118 24.058 19.18 24.939 20.061C25.82 20.942 26.882 21.621 28.0514 22.051C28.1299 22.08 28.2419 22.0579 28.3196 21.955L29.0587 20.9699C29.2274 20.745 29.4587 20.5748 29.7236 20.4808C29.9886 20.3867 30.2754 20.3729 30.5482 20.4411L33.9181 21.283C34.5535 21.4423 35 22.0137 35 22.6697V23.7143C35 24.3205 34.7592 24.9019 34.3305 25.3305C33.9019 25.7592 33.3205 26 32.7143 26H31C24.373 26 19 20.627 19 14V12.2857Z" fill="black"/>
</svg>
