<svg width="14" height="18" viewBox="0 0 14 18" fill="none" xmlns="http://www.w3.org/2000/svg">
<path d="M5.13333 18C3.70222 18 2.48889 17.52 1.49333 16.56C0.497778 15.6 0 14.43 0 13.05V3.6C0 2.61 0.365556 1.7625 1.09667 1.0575C1.82778 0.3525 2.70667 0 3.73333 0C4.76 0 5.63889 0.3525 6.37 1.0575C7.10111 1.7625 7.46667 2.61 7.46667 3.6V10.8H6.06667V3.6C6.06667 2.97 5.84111 2.4375 5.39 2.0025C4.93889 1.5675 4.38667 1.35 3.73333 1.35C3.08 1.35 2.52778 1.5675 2.07667 2.0025C1.62556 2.4375 1.4 2.97 1.4 3.6V13.05C1.4 14.04 1.76556 14.8875 2.49667 15.5925C3.22778 16.2975 4.10667 16.65 5.13333 16.65C5.58444 16.65 6.00849 16.5786 6.40547 16.4358C6.80244 16.293 7.15618 16.0944 7.46667 15.84V17.46C7.10889 17.625 6.73556 17.7564 6.34667 17.8542C5.95778 17.952 5.55333 18.0006 5.13333 18ZM9.33333 17.1V14.4H6.53333V12.6H9.33333V9.9H11.2V12.6H14V14.4H11.2V17.1H9.33333ZM5.13333 13.05V14.4C4.48 14.4 3.92778 14.1825 3.47667 13.7475C3.02556 13.3125 2.8 12.78 2.8 12.15V3.6H4.2V12.15C4.2 12.405 4.2896 12.6189 4.4688 12.7917C4.648 12.9645 4.86951 13.0506 5.13333 13.05ZM8.86667 8.1V3.6H10.2667V8.1H8.86667Z" fill="#0056C4"/>
</svg>
