<svg width="20" height="18" viewBox="0 0 20 18" fill="none" xmlns="http://www.w3.org/2000/svg">
<path d="M2.2335 18C1.711 18 1.26355 17.8236 0.891148 17.4708C0.518748 17.118 0.332864 16.6944 0.333498 16.2V5.4C0.333498 4.905 0.519698 4.4811 0.892098 4.1283C1.2645 3.7755 1.71163 3.5994 2.2335 3.6H5.226L6.9835 1.8H12.6835V3.6H7.81475L6.081 5.4H2.2335V16.2H17.4335V6.3H19.3335V16.2C19.3335 16.695 19.1473 17.1189 18.7749 17.4717C18.4025 17.8245 17.9554 18.0006 17.4335 18H2.2335ZM18.051 5.4C18.051 4.23 17.6235 3.24 16.7685 2.43C15.9135 1.62 14.8685 1.215 13.6335 1.215V0C15.2168 0 16.5627 0.525 17.671 1.575C18.7793 2.625 19.3335 3.9 19.3335 5.4H18.051ZM15.5335 5.4C15.5335 4.905 15.3473 4.4811 14.9749 4.1283C14.6025 3.7755 14.1554 3.5994 13.6335 3.6V2.385C14.5043 2.385 15.2444 2.6775 15.8536 3.2625C16.4629 3.8475 16.7837 4.56 16.816 5.4H15.5335ZM9.8335 14.85C11.021 14.85 12.0305 14.4561 12.8621 13.6683C13.6937 12.8805 14.1091 11.9244 14.1085 10.8C14.1085 9.675 13.6927 8.7186 12.8611 7.9308C12.0296 7.143 11.0204 6.7494 9.8335 6.75C8.646 6.75 7.63646 7.1439 6.8049 7.9317C5.97333 8.7195 5.55786 9.6756 5.5585 10.8C5.5585 11.925 5.97428 12.8814 6.80585 13.6692C7.63741 14.457 8.64663 14.8506 9.8335 14.85ZM9.8335 13.05C9.1685 13.05 8.60641 12.8325 8.14725 12.3975C7.68808 11.9625 7.4585 11.43 7.4585 10.8C7.4585 10.17 7.68808 9.6375 8.14725 9.2025C8.60641 8.7675 9.1685 8.55 9.8335 8.55C10.4985 8.55 11.0606 8.7675 11.5197 9.2025C11.9789 9.6375 12.2085 10.17 12.2085 10.8C12.2085 11.43 11.9789 11.9625 11.5197 12.3975C11.0606 12.8325 10.4985 13.05 9.8335 13.05Z" fill="#0056C4"/>
</svg>
