<svg width="20" height="22" viewBox="0 0 20 22" fill="none" xmlns="http://www.w3.org/2000/svg">
<path d="M1.60689 21.3854C1.22429 21.5718 0.860832 21.5308 0.516499 21.2623C0.172166 20.9937 0 20.6035 0 20.0916V14.8817C0 14.5553 0.0765185 14.2639 0.229555 14.0075C0.382592 13.7511 0.593018 13.5879 0.860832 13.518L9.18221 11.0005L0.860832 8.4829C0.593018 8.41297 0.382592 8.2498 0.229555 7.99338C0.0765185 7.73696 0 7.44558 0 7.11923V1.9093C0 1.39646 0.172166 1.00578 0.516499 0.737237C0.860832 0.468698 1.22429 0.428137 1.60689 0.615555L19.2826 9.70672C19.7609 9.96313 20 10.3944 20 11.0005C20 11.6065 19.7609 12.0378 19.2826 12.2942L1.60689 21.3854Z" fill="#0056C4"/>
</svg>
