<svg width="53" height="36" viewBox="0 0 53 36" fill="none" xmlns="http://www.w3.org/2000/svg">
<rect width="53" height="36" rx="4" fill="#E4E6EB"/>
<path d="M19.7143 11C18.9944 11 18.304 11.286 17.795 11.795C17.286 12.304 17 12.9944 17 13.7143V21.8571C17 22.577 17.286 23.2674 17.795 23.7764C18.304 24.2855 18.9944 24.5714 19.7143 24.5714H27.1786C27.8984 24.5714 28.5888 24.2855 29.0979 23.7764C29.6069 23.2674 29.8929 22.577 29.8929 21.8571V13.7143C29.8929 12.9944 29.6069 12.304 29.0979 11.795C28.5888 11.286 27.8984 11 27.1786 11H19.7143ZM33.6838 23.8929L31.25 21.459V14.1124L33.6838 11.6786C34.5379 10.8236 36 11.4289 36 12.6376V22.9338C36 24.1426 34.5379 24.7479 33.6838 23.8929Z" fill="black"/>
</svg>
