<svg width="22" height="21" viewBox="0 0 22 21" fill="none" xmlns="http://www.w3.org/2000/svg">
<path d="M17.1368 1.16672H12.015C11.855 1.16672 11.703 1.22894 11.5901 1.34183L1.35021 11.5791C1.12592 11.8043 1 12.1092 1 12.4271C1 12.7449 1.12592 13.0499 1.35021 13.2751L6.22484 18.1497C6.45019 18.3738 6.75506 18.4996 7.07284 18.4996C7.39062 18.4996 7.69549 18.3738 7.92083 18.1497L18.1581 7.9169C18.2703 7.80396 18.3333 7.65121 18.3332 7.49202V2.36672C18.3342 2.20917 18.3039 2.05299 18.2441 1.90721C18.1844 1.76143 18.0963 1.62893 17.9851 1.51736C17.8739 1.40579 17.7416 1.31736 17.596 1.25717C17.4504 1.19699 17.2943 1.16625 17.1368 1.16672Z" stroke="white" stroke-width="1.5" stroke-linecap="round" stroke-linejoin="round"/>
<path d="M15.0003 5.83337C14.6467 5.83337 14.3076 5.69289 14.0575 5.44285C13.8075 5.1928 13.667 4.85366 13.667 4.50004C13.667 4.14642 13.8075 3.80729 14.0575 3.55724C14.3076 3.30719 14.6467 3.16672 15.0003 3.16672C15.3539 3.16672 15.6931 3.30719 15.9431 3.55724C16.1932 3.80729 16.3336 4.14642 16.3336 4.50004C16.3336 4.85366 16.1932 5.1928 15.9431 5.44285C15.6931 5.69289 15.3539 5.83337 15.0003 5.83337Z" fill="white"/>
<path d="M9.91602 19.8333L20.8324 8.9169C20.8868 8.86218 20.9296 8.79707 20.9583 8.72545C20.987 8.65383 21.001 8.57716 20.9995 8.50002V3.16672" stroke="white" stroke-width="1.5" stroke-linecap="round" stroke-linejoin="round"/>
</svg>
