<svg width="15" height="15" viewBox="0 0 15 15" fill="none" xmlns="http://www.w3.org/2000/svg">
<path d="M12.5348 1.99938H5.77871L10.7199 1.15582L10.7199 1.15589L10.7279 1.15439C10.9548 1.11187 11.1879 1.11571 11.4132 1.1657C11.6386 1.21569 11.8515 1.31079 12.0391 1.44527C12.2267 1.57974 12.3852 1.75081 12.5049 1.94816L12.9324 1.68882L12.5049 1.94816C12.5152 1.96508 12.5251 1.98215 12.5348 1.99938Z" stroke="#5E5E5E"/>
<path d="M0.981808 4.28552C1.28985 3.97748 1.7075 3.80421 2.14313 3.80371H12.8568C13.2924 3.80437 13.71 3.97771 14.018 4.28573C14.3261 4.59382 14.4994 5.01152 14.5 5.44723V11.8746C14.4996 12.3104 14.3263 12.7281 14.0182 13.0362C13.7101 13.3443 13.2924 13.5176 12.8566 13.518H2.14336C1.70764 13.5176 1.2899 13.3443 0.981808 13.0362L0.628255 13.3897L0.981808 13.0362C0.673766 12.7281 0.500494 12.3105 0.5 11.8749V5.44684C0.500494 5.01121 0.673766 4.59356 0.981808 4.28552ZM10.1553 9.77202C10.45 10.0667 10.8497 10.2323 11.2664 10.2323C11.6832 10.2323 12.0829 10.0667 12.3776 9.77202C12.6723 9.47732 12.8379 9.07762 12.8379 8.66085C12.8379 8.24408 12.6723 7.84438 12.3776 7.54969C12.0829 7.25499 11.6832 7.08943 11.2664 7.08943C10.8497 7.08943 10.45 7.25499 10.1553 7.54969C9.86056 7.84438 9.695 8.24408 9.695 8.66085C9.695 9.07762 9.86056 9.47732 10.1553 9.77202Z" stroke="#5E5E5E"/>
<path d="M1.90532 2.66075C2.45538 2.55787 3.00754 2.50437 3.43228 2.47678C3.36317 2.60944 3.33016 2.75526 3.33159 2.89866C3.33535 3.27313 3.56722 3.6084 3.93815 3.74211C3.93284 3.74963 3.92803 3.75631 3.92386 3.76202L3.91511 3.77378L1.50576 6.50603L0.516479 6.94111V4.37508C0.516479 3.7777 0.842681 2.86188 1.90532 2.66075ZM4.31462 3.80416C4.31461 3.80417 4.31399 3.80413 4.31281 3.80396L4.31462 3.80416Z" stroke="#5E5E5E"/>
</svg>
