<svg width="22" height="19" viewBox="0 0 22 19" fill="none" xmlns="http://www.w3.org/2000/svg">
<path d="M18.1139 2.15895H5.72787L15.1727 0.546538L15.1727 0.546602L15.1806 0.54511C15.5303 0.479572 15.8896 0.485501 16.2369 0.562541C16.5841 0.639581 16.9122 0.786135 17.2014 0.993373C17.4905 1.20061 17.7347 1.46424 17.9192 1.76838C17.995 1.89327 18.06 2.02393 18.1139 2.15895ZM3.03951 2.15895C3.03943 2.15895 3.03936 2.15895 3.03929 2.15895L3.03951 2.15895Z" stroke="#5E5E5E"/>
<path d="M3.04028 4.29999H18.2397C18.9131 4.30097 19.5587 4.56892 20.0349 5.04512C20.5112 5.5214 20.7791 6.16711 20.78 6.84066V15.9595C20.7794 16.6331 20.5115 17.2789 20.0352 17.7552C19.5589 18.2315 18.9131 18.4993 18.2395 18.5H3.0405C2.36693 18.4993 1.72113 18.2315 1.24484 17.7552C0.768602 17.2789 0.500733 16.6332 0.5 15.9597V6.84026C0.500733 6.16677 0.768602 5.52106 1.24484 5.04483C1.72108 4.56859 2.36678 4.30072 3.04028 4.29999ZM14.555 12.8284C14.9338 13.2072 15.4476 13.42 15.9833 13.42C16.5191 13.42 17.0329 13.2072 17.4117 12.8284C17.7905 12.4495 18.0033 11.9357 18.0033 11.4C18.0033 10.8643 17.7905 10.3505 17.4117 9.97164C17.0329 9.59282 16.5191 9.38 15.9833 9.38C15.4476 9.38 14.9338 9.59282 14.555 9.97164C14.1762 10.3505 13.9633 10.8643 13.9633 11.4C13.9633 11.9357 14.1762 12.4495 14.555 12.8284Z" stroke="#5E5E5E"/>
<path d="M4.90382 2.41496C5.05919 2.40521 5.20123 2.39794 5.32661 2.39252C5.29962 2.41431 5.27364 2.43745 5.24874 2.46193C5.03495 2.67215 4.93296 2.95085 4.93569 3.22334C4.94089 3.74228 5.31662 4.20687 5.91553 4.28761C5.88355 4.34894 5.84597 4.41125 5.80873 4.46805C5.77987 4.51207 5.75394 4.54868 5.73562 4.57375C5.72785 4.58439 5.72155 4.59282 5.71711 4.59869L2.26261 8.51615L0.523315 9.28108V5.31999C0.523315 4.41878 1.01788 2.99368 2.66426 2.6822C3.47672 2.53023 4.29021 2.45348 4.90382 2.41496ZM5.99398 4.08501C5.994 4.08501 5.99397 4.08554 5.99385 4.08666L5.99398 4.08501Z" stroke="#5E5E5E"/>
</svg>
