<svg width="33" height="33" viewBox="0 0 33 33" fill="none" xmlns="http://www.w3.org/2000/svg">
<ellipse cx="16.1194" cy="16.1194" rx="16.1194" ry="16.1194" fill="#00E0C9"/>
<path fill-rule="evenodd" clip-rule="evenodd" d="M23.5564 10.9034C23.7639 11.1112 23.8805 11.3928 23.8805 11.6865C23.8805 11.9802 23.7639 12.2619 23.5564 12.4697L14.6906 21.3354C14.4828 21.543 14.2012 21.6595 13.9075 21.6595C13.6138 21.6595 13.3321 21.543 13.1244 21.3354L8.69148 16.9025C8.49572 16.6925 8.38915 16.4146 8.39422 16.1275C8.39928 15.8404 8.51559 15.5665 8.71863 15.3634C8.92168 15.1604 9.19561 15.0441 9.48271 15.039C9.76982 15.0339 10.0477 15.1405 10.2578 15.3363L13.9075 18.9851L21.9901 10.9034C22.1979 10.6959 22.4796 10.5793 22.7733 10.5793C23.0669 10.5793 23.3486 10.6959 23.5564 10.9034Z" fill="white"/>
</svg>
