<svg width="15" height="16" viewBox="0 0 15 16" fill="none" xmlns="http://www.w3.org/2000/svg">
<path fill-rule="evenodd" clip-rule="evenodd" d="M0 8.11938C0 4.16255 3.20735 0.9552 7.16418 0.9552C11.121 0.9552 14.3284 4.16255 14.3284 8.11938C14.3284 12.0762 11.121 15.2836 7.16418 15.2836C3.20735 15.2836 0 12.0762 0 8.11938ZM8.36042 5.24122C7.70645 4.67029 6.62191 4.67029 5.96868 5.24122C5.85867 5.33749 5.71493 5.38611 5.56907 5.3764C5.42321 5.36668 5.28718 5.29942 5.19091 5.18941C5.09464 5.07941 5.04601 4.93566 5.05573 4.7898C5.06544 4.64394 5.1327 4.50791 5.24271 4.41164C6.31109 3.47699 8.01727 3.47699 9.08565 4.41164C10.1974 5.3845 10.1974 6.99662 9.08565 7.96948C8.89972 8.1316 8.69287 8.26802 8.47063 8.37509C7.97392 8.6161 7.71527 8.94381 7.71527 9.22156V9.77265C7.71527 9.91881 7.65721 10.059 7.55386 10.1623C7.45051 10.2657 7.31034 10.3237 7.16418 10.3237C7.01802 10.3237 6.87785 10.2657 6.7745 10.1623C6.67115 10.059 6.61309 9.91881 6.61309 9.77265V9.22156C6.61309 8.28177 7.39196 7.67336 7.99082 7.38312C8.12455 7.31846 8.24873 7.2369 8.36042 7.13991C8.97029 6.60572 8.97029 5.77541 8.36042 5.24122ZM7.16418 12.5281C7.31034 12.5281 7.45051 12.47 7.55386 12.3667C7.65721 12.2633 7.71527 12.1232 7.71527 11.977C7.71527 11.8309 7.65721 11.6907 7.55386 11.5873C7.45051 11.484 7.31034 11.4259 7.16418 11.4259C7.01802 11.4259 6.87785 11.484 6.7745 11.5873C6.67115 11.6907 6.61309 11.8309 6.61309 11.977C6.61309 12.1232 6.67115 12.2633 6.7745 12.3667C6.87785 12.47 7.01802 12.5281 7.16418 12.5281Z" fill="#0056C4"/>
</svg>
