<svg width="17" height="16" viewBox="0 0 17 16" fill="none" xmlns="http://www.w3.org/2000/svg">
<path d="M5.6875 7.625C5.6875 7.70788 5.65458 7.78737 5.59597 7.84597C5.53737 7.90458 5.45788 7.9375 5.375 7.9375C5.29212 7.9375 5.21263 7.90458 5.15403 7.84597C5.09542 7.78737 5.0625 7.70788 5.0625 7.625C5.0625 7.54212 5.09542 7.46263 5.15403 7.40403C5.21263 7.34542 5.29212 7.3125 5.375 7.3125C5.45788 7.3125 5.53737 7.34542 5.59597 7.40403C5.65458 7.46263 5.6875 7.54212 5.6875 7.625ZM5.6875 7.625H5.375M8.8125 7.625C8.8125 7.70788 8.77958 7.78737 8.72097 7.84597C8.66237 7.90458 8.58288 7.9375 8.5 7.9375C8.41712 7.9375 8.33763 7.90458 8.27903 7.84597C8.22042 7.78737 8.1875 7.70788 8.1875 7.625C8.1875 7.54212 8.22042 7.46263 8.27903 7.40403C8.33763 7.34542 8.41712 7.3125 8.5 7.3125C8.58288 7.3125 8.66237 7.34542 8.72097 7.40403C8.77958 7.46263 8.8125 7.54212 8.8125 7.625ZM8.8125 7.625H8.5M11.9375 7.625C11.9375 7.70788 11.9046 7.78737 11.846 7.84597C11.7874 7.90458 11.7079 7.9375 11.625 7.9375C11.5421 7.9375 11.4626 7.90458 11.404 7.84597C11.3454 7.78737 11.3125 7.70788 11.3125 7.625C11.3125 7.54212 11.3454 7.46263 11.404 7.40403C11.4626 7.34542 11.5421 7.3125 11.625 7.3125C11.7079 7.3125 11.7874 7.34542 11.846 7.40403C11.9046 7.46263 11.9375 7.54212 11.9375 7.625ZM11.9375 7.625H11.625M16 7.625C16 11.4217 12.6417 14.5 8.5 14.5C7.78099 14.5009 7.06503 14.4064 6.37083 14.2192C5.3923 14.9074 4.1986 15.2201 3.00833 15.1C2.876 15.0872 2.74422 15.0692 2.61333 15.0458C3.02406 14.5618 3.30456 13.981 3.42833 13.3583C3.50333 12.9775 3.3175 12.6075 3.03917 12.3367C1.775 11.1067 1 9.44917 1 7.625C1 3.82833 4.35833 0.75 8.5 0.75C12.6417 0.75 16 3.82833 16 7.625Z" stroke="#5E5E5E" stroke-width="1.5" stroke-linecap="round" stroke-linejoin="round"/>
</svg>
