<svg width="185" height="45" viewBox="0 0 185 45" fill="none" xmlns="http://www.w3.org/2000/svg">
<path d="M8.57715 21.6002V20.918C9.04085 20.906 9.40943 20.8701 9.68289 20.8103C9.96824 20.7505 10.1823 20.6488 10.3249 20.5051C10.4795 20.3615 10.5806 20.1581 10.6281 19.8948C10.6876 19.6315 10.7173 19.2905 10.7173 18.8716V10.5065C10.7173 10.0876 10.6935 9.75253 10.646 9.50121C10.6103 9.23793 10.5271 9.03449 10.3963 8.89088C10.2774 8.73531 10.099 8.63359 9.86123 8.58572C9.62344 8.52588 9.31431 8.48399 8.93384 8.46006V7.77792H14.2664C15.8715 7.77792 17.1199 8.06514 18.0116 8.63957C18.9033 9.214 19.3492 10.0218 19.3492 11.0629C19.3492 11.8528 19.0995 12.499 18.6001 13.0016C18.1127 13.5043 17.3339 13.9171 16.2638 14.2403V14.3121C16.6324 14.348 16.9534 14.3899 17.2269 14.4377C17.5004 14.4856 17.7441 14.5454 17.9581 14.6172C18.1721 14.6771 18.3683 14.7549 18.5466 14.8506C18.7369 14.9463 18.9212 15.054 19.0995 15.1737C20.1577 15.9277 20.6868 16.8731 20.6868 18.01C20.6868 18.6442 20.5084 19.2366 20.1518 19.7871C19.807 20.3256 19.3195 20.7505 18.6893 21.0616C18.4872 21.1693 18.2791 21.2591 18.0651 21.3309C17.8511 21.3907 17.6014 21.4446 17.3161 21.4924C17.0307 21.5283 16.6978 21.5583 16.3173 21.5822C15.9487 21.5942 15.5088 21.6002 14.9976 21.6002H8.57715ZM15.0511 20.8283C17.2031 20.8283 18.2791 19.9008 18.2791 18.0459C18.2791 16.6936 17.7263 15.7481 16.6205 15.2096C16.4303 15.1258 16.246 15.054 16.0676 14.9942C15.8893 14.9344 15.6812 14.8925 15.4434 14.8685C15.2056 14.8326 14.9203 14.8087 14.5874 14.7967C14.2664 14.7848 13.8681 14.7788 13.3925 14.7788H12.5899V18.7819C12.5899 19.5119 12.7802 20.0384 13.1606 20.3615C13.5411 20.6727 14.1712 20.8283 15.0511 20.8283ZM13.5886 13.8812C13.9572 13.8812 14.2664 13.8753 14.516 13.8633C14.7657 13.8513 14.9797 13.8334 15.1581 13.8094C15.3364 13.7735 15.491 13.7317 15.6218 13.6838C15.7645 13.6239 15.9071 13.5462 16.0498 13.4504C16.4303 13.2111 16.6978 12.9239 16.8524 12.5888C17.0188 12.2537 17.102 11.8169 17.102 11.2784C17.102 10.3329 16.8702 9.65679 16.4065 9.2499C15.9547 8.83105 15.2413 8.62162 14.2664 8.62162H12.8931C12.691 8.62162 12.5899 8.72334 12.5899 8.92678V13.8812H13.5886Z" fill="#073F73"/>
<path d="M27.7957 16.2867C27.1179 16.55 26.5413 16.8073 26.0657 17.0586C25.602 17.3099 25.2275 17.5612 24.9421 17.8125C24.6568 18.0638 24.4487 18.3151 24.3179 18.5664C24.199 18.8178 24.1396 19.0751 24.1396 19.3383C24.1396 19.7333 24.2704 20.0564 24.5319 20.3077C24.7935 20.559 25.1383 20.6847 25.5663 20.6847C25.8755 20.6847 26.1608 20.6069 26.4224 20.4513C26.6959 20.2957 26.9337 20.0863 27.1358 19.823C27.3379 19.5478 27.4984 19.2306 27.6173 18.8716C27.7362 18.5006 27.7957 18.1117 27.7957 17.7048V16.2867ZM27.7957 15.5148V14.7788C27.7957 13.3188 27.1774 12.5888 25.9409 12.5888C25.7387 12.5888 25.5663 12.6067 25.4237 12.6426C25.281 12.6785 25.1621 12.7384 25.067 12.8221C24.9719 12.9059 24.8827 13.0256 24.7995 13.1812C24.7281 13.3367 24.6568 13.5282 24.5854 13.7556C24.4547 14.1026 24.3239 14.336 24.1931 14.4557C24.0742 14.5634 23.8958 14.6172 23.658 14.6172C23.0636 14.6172 22.7663 14.3181 22.7663 13.7197C22.7663 13.1453 23.0695 12.7025 23.6759 12.3913C24.2823 12.0682 25.1443 11.9066 26.2619 11.9066C27.4509 11.9066 28.295 12.1221 28.7944 12.5529C29.2938 12.9717 29.5434 13.6898 29.5434 14.707V18.728C29.5434 20.0923 29.811 20.7744 30.346 20.7744C30.5124 20.7744 30.673 20.7565 30.8275 20.7206C30.9821 20.6727 31.1129 20.559 31.2199 20.3795L31.4696 20.8103C31.3269 21.0856 31.0653 21.3189 30.6848 21.5104C30.3044 21.6899 29.9061 21.7797 29.4899 21.7797C28.9668 21.7797 28.5744 21.6121 28.3129 21.277C28.0632 20.942 27.9383 20.4692 27.9383 19.8589H27.8492C27.54 20.4453 27.112 20.912 26.5651 21.2591C26.0181 21.5942 25.4118 21.7617 24.746 21.7617C23.9969 21.7617 23.4084 21.5702 22.9803 21.1873C22.5523 20.8043 22.3383 20.2897 22.3383 19.6435C22.3383 19.3563 22.3858 19.081 22.481 18.8178C22.588 18.5545 22.7544 18.3032 22.9803 18.0638C23.2062 17.8245 23.5035 17.5911 23.8721 17.3637C24.2406 17.1244 24.6924 16.885 25.2275 16.6457L27.7957 15.5148Z" fill="#073F73"/>
<path d="M35.1562 18.746C35.1562 19.2366 35.168 19.6255 35.1918 19.9128C35.2156 20.2 35.2751 20.4214 35.3702 20.5769C35.4772 20.7206 35.6258 20.8163 35.816 20.8642C36.0063 20.912 36.2738 20.9479 36.6186 20.9719V21.6002H31.8746V20.9719C32.2194 20.9479 32.4929 20.912 32.695 20.8642C32.8971 20.8163 33.0517 20.7206 33.1587 20.5769C33.2657 20.4333 33.3311 20.2299 33.3549 19.9666C33.3905 19.6914 33.4084 19.3264 33.4084 18.8716V11.3502C33.4084 10.6441 33.3965 10.0816 33.3727 9.66277C33.3608 9.24392 33.3311 8.92678 33.2835 8.71137C33.2598 8.56777 33.2181 8.45408 33.1587 8.3703C33.1111 8.27457 33.0338 8.20276 32.9268 8.15489C32.8198 8.09506 32.6772 8.05317 32.4988 8.02924C32.3205 8.0053 32.1005 7.99334 31.8389 7.99334V7.383L35.1205 6.70087V13.5402H35.1918C35.3702 13.3008 35.5901 13.0854 35.8517 12.8939C36.1252 12.6905 36.4165 12.517 36.7256 12.3734C37.0347 12.2298 37.3557 12.1161 37.6887 12.0323C38.0335 11.9485 38.3664 11.9066 38.6874 11.9066C39.2343 11.9066 39.7337 12.0024 40.1855 12.1939C40.6492 12.3853 41.0059 12.6426 41.2556 12.9657C41.4577 13.241 41.6063 13.606 41.7014 14.0608C41.7965 14.5035 41.8441 15.1079 41.8441 15.8738V18.746C41.8441 19.2366 41.856 19.6255 41.8798 19.9128C41.9035 20.188 41.963 20.4034 42.0581 20.559C42.1651 20.7146 42.3137 20.8163 42.504 20.8642C42.6942 20.912 42.9617 20.9479 43.3065 20.9719V21.6002H38.5804V20.9719C38.9133 20.9599 39.1808 20.93 39.3829 20.8821C39.5851 20.8223 39.7337 20.7206 39.8288 20.5769C39.9358 20.4333 40.0012 20.2299 40.025 19.9666C40.0606 19.6914 40.0785 19.3264 40.0785 18.8716V16.6098C40.0785 15.2695 39.9239 14.3181 39.6148 13.7556C39.3057 13.1812 38.7885 12.8939 38.0632 12.8939C37.5044 12.8939 36.9931 13.0376 36.5294 13.3248C36.0776 13.612 35.7209 14.0069 35.4593 14.5095C35.3999 14.6412 35.3464 14.7668 35.2988 14.8865C35.2632 14.9942 35.2334 15.1199 35.2097 15.2635C35.1859 15.4071 35.168 15.5746 35.1562 15.7661C35.1562 15.9456 35.1562 16.173 35.1562 16.4482V18.746Z" fill="#073F73"/>
<path d="M47.6845 18.746C47.6845 19.2366 47.6964 19.6255 47.7202 19.9128C47.7439 20.2 47.8034 20.4214 47.8985 20.5769C48.0055 20.7206 48.1541 20.8163 48.3444 20.8642C48.5346 20.912 48.8021 20.9479 49.1469 20.9719V21.6002H44.4029V20.9719C44.7477 20.9599 45.0212 20.93 45.2233 20.8821C45.4254 20.8223 45.58 20.7206 45.687 20.5769C45.794 20.4333 45.8594 20.2299 45.8832 19.9666C45.9189 19.6914 45.9367 19.3264 45.9367 18.8716V16.7713C45.9367 15.9576 45.9248 15.3233 45.901 14.8685C45.8891 14.4138 45.8297 14.0787 45.7227 13.8633C45.6276 13.6479 45.473 13.5222 45.259 13.4863C45.045 13.4385 44.7477 13.4145 44.3673 13.4145V12.7862L47.4883 12.1041L47.738 14.33H47.8093C47.9639 13.971 48.1541 13.6419 48.38 13.3427C48.6178 13.0435 48.8735 12.7922 49.1469 12.5888C49.4204 12.3734 49.7057 12.2058 50.003 12.0862C50.3002 11.9665 50.6034 11.9066 50.9125 11.9066C51.293 11.9066 51.5902 12.0024 51.8043 12.1939C52.0302 12.3734 52.1431 12.6187 52.1431 12.9298C52.1431 13.2171 52.0539 13.4444 51.8756 13.612C51.6973 13.7676 51.4416 13.8453 51.1087 13.8453C50.9185 13.8453 50.758 13.8214 50.6272 13.7735C50.4964 13.7257 50.3775 13.6778 50.2705 13.6299C50.1754 13.5701 50.0803 13.5162 49.9851 13.4684C49.9019 13.4205 49.8068 13.3966 49.6998 13.3966C49.3788 13.3966 49.0577 13.606 48.7367 14.0249C48.4157 14.4317 48.166 14.9523 47.9877 15.5866C47.8926 15.9336 47.8153 16.3286 47.7558 16.7713C47.7083 17.2022 47.6845 17.6569 47.6845 18.1356V18.746Z" fill="#073F73"/>
<path d="M58.4487 16.2867C57.771 16.55 57.1944 16.8073 56.7188 17.0586C56.2551 17.3099 55.8806 17.5612 55.5952 17.8125C55.3099 18.0638 55.1018 18.3151 54.971 18.5664C54.8521 18.8178 54.7927 19.0751 54.7927 19.3383C54.7927 19.7333 54.9234 20.0564 55.185 20.3077C55.4466 20.559 55.7914 20.6847 56.2194 20.6847C56.5285 20.6847 56.8139 20.6069 57.0755 20.4513C57.3489 20.2957 57.5867 20.0863 57.7889 19.823C57.991 19.5478 58.1515 19.2306 58.2704 18.8716C58.3893 18.5006 58.4487 18.1117 58.4487 17.7048V16.2867ZM58.4487 15.5148V14.7788C58.4487 13.3188 57.8305 12.5888 56.5939 12.5888C56.3918 12.5888 56.2194 12.6067 56.0767 12.6426C55.9341 12.6785 55.8152 12.7384 55.7201 12.8221C55.6249 12.9059 55.5358 13.0256 55.4525 13.1812C55.3812 13.3367 55.3099 13.5282 55.2385 13.7556C55.1077 14.1026 54.9769 14.336 54.8462 14.4557C54.7273 14.5634 54.5489 14.6172 54.3111 14.6172C53.7166 14.6172 53.4194 14.3181 53.4194 13.7197C53.4194 13.1453 53.7226 12.7025 54.329 12.3913C54.9353 12.0682 55.7973 11.9066 56.915 11.9066C58.1039 11.9066 58.9481 12.1221 59.4475 12.5529C59.9468 12.9717 60.1965 13.6898 60.1965 14.707V18.728C60.1965 20.0923 60.464 20.7744 60.9991 20.7744C61.1655 20.7744 61.326 20.7565 61.4806 20.7206C61.6352 20.6727 61.7659 20.559 61.873 20.3795L62.1226 20.8103C61.98 21.0856 61.7184 21.3189 61.3379 21.5104C60.9575 21.6899 60.5592 21.7797 60.143 21.7797C59.6199 21.7797 59.2275 21.6121 58.9659 21.277C58.7163 20.942 58.5914 20.4692 58.5914 19.8589H58.5022C58.1931 20.4453 57.7651 20.912 57.2182 21.2591C56.6712 21.5942 56.0649 21.7617 55.399 21.7617C54.65 21.7617 54.0614 21.5702 53.6334 21.1873C53.2054 20.8043 52.9914 20.2897 52.9914 19.6435C52.9914 19.3563 53.0389 19.081 53.134 18.8178C53.2411 18.5545 53.4075 18.3032 53.6334 18.0638C53.8593 17.8245 54.1566 17.5911 54.5251 17.3637C54.8937 17.1244 55.3455 16.885 55.8806 16.6457L58.4487 15.5148Z" fill="#073F73"/>
<path d="M66.1659 18.746C66.1659 19.2127 66.1838 19.5896 66.2194 19.8769C66.267 20.1521 66.3502 20.3735 66.4691 20.541C66.588 20.6966 66.7545 20.8043 66.9685 20.8642C67.1825 20.924 67.4678 20.9599 67.8245 20.9719V21.6002H62.706V20.9719C63.0627 20.9599 63.354 20.924 63.5799 20.8642C63.8058 20.7924 63.9782 20.6847 64.0971 20.541C64.2279 20.3855 64.3111 20.176 64.3468 19.9128C64.3944 19.6375 64.4181 19.2905 64.4181 18.8716V16.5739C64.4181 15.8798 64.4062 15.3113 64.3825 14.8685C64.3706 14.4138 64.3409 14.1026 64.2933 13.9351C64.2339 13.6599 64.0971 13.4744 63.8831 13.3786C63.6691 13.2709 63.2648 13.2171 62.6704 13.2171V12.5888L66.1659 11.9066V18.746ZM64.115 8.2626C64.115 7.95145 64.222 7.68817 64.436 7.47276C64.65 7.25735 64.9116 7.14964 65.2207 7.14964C65.5298 7.14964 65.7914 7.25735 66.0054 7.47276C66.2194 7.68817 66.3264 7.95145 66.3264 8.2626C66.3264 8.57375 66.2194 8.83703 66.0054 9.05244C65.7914 9.26785 65.5298 9.37556 65.2207 9.37556C64.9116 9.37556 64.65 9.26785 64.436 9.05244C64.222 8.83703 64.115 8.57375 64.115 8.2626Z" fill="#073F73"/>
<path d="M72.0303 18.7819C72.0303 19.2725 72.0422 19.6615 72.0659 19.9487C72.0897 20.2239 72.1492 20.4393 72.2443 20.5949C72.3513 20.7385 72.4999 20.8342 72.6902 20.8821C72.8923 20.93 73.1657 20.9659 73.5105 20.9898V21.6002H68.8379V20.9898C69.1708 20.9659 69.4324 20.93 69.6226 20.8821C69.8247 20.8342 69.9793 20.7385 70.0863 20.5949C70.1933 20.4513 70.2587 20.2478 70.2825 19.9846C70.3182 19.7213 70.336 19.3623 70.336 18.9075V16.52C70.336 15.0959 70.3003 14.2283 70.229 13.9171C70.1933 13.7616 70.1458 13.6359 70.0863 13.5402C70.0387 13.4325 69.9615 13.3547 69.8545 13.3068C69.7475 13.247 69.6107 13.2111 69.4443 13.1991C69.2778 13.1752 69.0638 13.1632 68.8022 13.1632V12.5888L71.6558 11.9066L71.8698 13.6838H71.9411C72.3929 13.1213 72.922 12.6845 73.5284 12.3734C74.1348 12.0622 74.7946 11.9066 75.508 11.9066C76.0549 11.9066 76.5543 11.9964 77.0061 12.1759C77.4579 12.3554 77.8027 12.6007 78.0405 12.9119C78.2426 13.1871 78.3853 13.5462 78.4685 13.989C78.5518 14.4198 78.5934 15.0181 78.5934 15.784V18.7819C78.5934 19.2725 78.6053 19.6615 78.6291 19.9487C78.6647 20.2239 78.7301 20.4393 78.8252 20.5949C78.9203 20.7385 79.063 20.8342 79.2533 20.8821C79.4554 20.93 79.7169 20.9659 80.038 20.9898V21.6002H75.4188V20.9898C75.7517 20.9779 76.0133 20.9479 76.2036 20.9001C76.4057 20.8402 76.5543 20.7385 76.6494 20.5949C76.7564 20.4513 76.8218 20.2478 76.8456 19.9846C76.8813 19.7093 76.8991 19.3503 76.8991 18.9075V16.538C76.8991 15.8558 76.8634 15.2814 76.7921 14.8147C76.7208 14.348 76.6019 13.971 76.4354 13.6838C76.2808 13.3966 76.0728 13.1931 75.8112 13.0735C75.5496 12.9418 75.2345 12.876 74.866 12.876C74.3309 12.876 73.8375 13.0196 73.3857 13.3068C72.9458 13.5821 72.601 13.965 72.3513 14.4557C72.2918 14.5753 72.2383 14.689 72.1908 14.7967C72.1551 14.9044 72.1254 15.0301 72.1016 15.1737C72.0778 15.3173 72.06 15.4849 72.0481 15.6763C72.0362 15.8559 72.0303 16.0892 72.0303 16.3764V18.7819Z" fill="#073F73"/>
<path d="M97.8825 7.77792H98.3819L98.5424 11.9066H97.8825C97.621 10.8535 97.1156 10.0278 96.3666 9.42941C95.6175 8.83105 94.7139 8.53186 93.6557 8.53186C92.9305 8.53186 92.2825 8.67547 91.7118 8.96269C91.1411 9.2499 90.6595 9.66277 90.2672 10.2013C89.8748 10.7398 89.5716 11.398 89.3576 12.1759C89.1555 12.9538 89.0544 13.8334 89.0544 14.8147C89.0544 16.7414 89.4527 18.2254 90.2494 19.2665C91.046 20.2957 92.1993 20.8103 93.7093 20.8103C96.004 20.8103 97.4783 19.5837 98.1322 17.1304H98.8634V21.6002H98.2392L97.829 20.182C96.5806 21.2471 95.0706 21.7797 93.2991 21.7797C92.2884 21.7797 91.3729 21.6181 90.5525 21.295C89.744 20.9719 89.0485 20.5171 88.4659 19.9307C87.8952 19.3324 87.4493 18.6083 87.1283 17.7587C86.8192 16.909 86.6646 15.9636 86.6646 14.9224C86.6646 13.8334 86.8311 12.8401 87.164 11.9425C87.4969 11.045 87.9606 10.2731 88.5551 9.62687C89.1614 8.98064 89.8808 8.48399 90.7131 8.13694C91.5572 7.77792 92.4846 7.59841 93.4952 7.59841C94.2086 7.59841 94.8804 7.70014 95.5105 7.90358C96.1407 8.10702 96.8243 8.43613 97.5615 8.89088L97.8825 7.77792Z" fill="#073F73"/>
<path d="M105.69 11.9066C106.367 11.9066 107.009 12.0323 107.616 12.2836C108.222 12.523 108.751 12.858 109.203 13.2889C109.667 13.7197 110.029 14.2343 110.291 14.8326C110.564 15.419 110.701 16.0653 110.701 16.7713C110.701 17.5014 110.564 18.1715 110.291 18.7819C110.029 19.3922 109.667 19.9187 109.203 20.3615C108.751 20.8043 108.222 21.1514 107.616 21.4027C107.009 21.654 106.367 21.7797 105.69 21.7797C105.024 21.7797 104.388 21.66 103.781 21.4206C103.187 21.1693 102.664 20.8223 102.212 20.3795C101.76 19.9367 101.403 19.4101 101.142 18.7998C100.88 18.1775 100.75 17.5014 100.75 16.7713C100.75 16.0653 100.88 15.4131 101.142 14.8147C101.403 14.2163 101.76 13.7017 102.212 13.2709C102.664 12.8401 103.187 12.505 103.781 12.2657C104.388 12.0263 105.024 11.9066 105.69 11.9066ZM105.69 12.7683C105.25 12.7683 104.846 12.864 104.477 13.0555C104.12 13.247 103.811 13.5222 103.55 13.8812C103.3 14.2283 103.104 14.6531 102.961 15.1558C102.83 15.6464 102.765 16.1909 102.765 16.7893C102.765 17.4116 102.83 17.9741 102.961 18.4767C103.104 18.9793 103.3 19.4101 103.55 19.7692C103.811 20.1162 104.12 20.3855 104.477 20.5769C104.834 20.7684 105.238 20.8642 105.69 20.8642C106.142 20.8642 106.552 20.7684 106.92 20.5769C107.289 20.3855 107.604 20.1102 107.866 19.7512C108.127 19.3922 108.329 18.9614 108.472 18.4587C108.615 17.9561 108.686 17.3996 108.686 16.7893C108.686 16.1909 108.615 15.6464 108.472 15.1558C108.329 14.6651 108.127 14.2462 107.866 13.8992C107.604 13.5402 107.289 13.2649 106.92 13.0735C106.552 12.87 106.142 12.7683 105.69 12.7683Z" fill="#073F73"/>
<path d="M115.504 18.728C115.504 19.2306 115.516 19.6255 115.54 19.9128C115.563 20.2 115.623 20.4214 115.718 20.5769C115.825 20.7206 115.974 20.8163 116.164 20.8642C116.354 20.912 116.622 20.9479 116.966 20.9719V21.6002H112.222V20.9719C112.567 20.9479 112.841 20.912 113.043 20.8642C113.245 20.8163 113.4 20.7206 113.507 20.5769C113.614 20.4333 113.679 20.2299 113.703 19.9666C113.738 19.6914 113.756 19.3264 113.756 18.8716V16.5739C113.756 15.8918 113.744 15.3233 113.721 14.8685C113.709 14.4138 113.679 14.1026 113.631 13.9351C113.596 13.7795 113.554 13.6599 113.507 13.5761C113.459 13.4803 113.382 13.4085 113.275 13.3607C113.168 13.3008 113.025 13.2649 112.847 13.253C112.68 13.229 112.46 13.2171 112.187 13.2171V12.5888L115.094 11.9066L115.326 13.7017H115.415C115.95 13.0914 116.509 12.6426 117.091 12.3554C117.686 12.0562 118.34 11.9066 119.053 11.9066C119.802 11.9066 120.432 12.0622 120.944 12.3734C121.455 12.6725 121.811 13.1094 122.014 13.6838H122.085C122.525 13.1213 123.06 12.6845 123.69 12.3734C124.32 12.0622 124.992 11.9066 125.705 11.9066C126.264 11.9066 126.769 12.0024 127.221 12.1939C127.685 12.3734 128.036 12.6247 128.274 12.9478C128.488 13.223 128.636 13.588 128.719 14.0428C128.814 14.4856 128.862 15.0959 128.862 15.8738V18.728C128.862 19.2187 128.874 19.6076 128.898 19.8948C128.933 20.182 128.999 20.4034 129.094 20.559C129.189 20.7146 129.332 20.8163 129.522 20.8642C129.724 20.912 129.998 20.9479 130.342 20.9719V21.6002H125.598V20.9719C125.931 20.9599 126.199 20.93 126.401 20.8821C126.603 20.8223 126.758 20.7206 126.865 20.5769C126.972 20.4214 127.037 20.2119 127.061 19.9487C127.096 19.6854 127.114 19.3264 127.114 18.8716V16.6098C127.114 15.9277 127.079 15.3532 127.007 14.8865C126.936 14.4078 126.817 14.0249 126.651 13.7376C126.484 13.4385 126.264 13.223 125.991 13.0914C125.729 12.9598 125.408 12.8939 125.028 12.8939C124.504 12.8939 124.011 13.0435 123.547 13.3427C123.096 13.6299 122.739 14.0189 122.477 14.5095C122.418 14.6292 122.364 14.7489 122.317 14.8685C122.281 14.9763 122.251 15.1019 122.228 15.2455C122.204 15.3772 122.186 15.5387 122.174 15.7302C122.174 15.9217 122.174 16.161 122.174 16.4482V18.728C122.174 19.2187 122.186 19.6076 122.21 19.8948C122.234 20.182 122.293 20.4034 122.388 20.559C122.495 20.7146 122.65 20.8163 122.852 20.8642C123.054 20.912 123.327 20.9479 123.672 20.9719V21.6002H118.928V20.9719C119.261 20.9479 119.529 20.912 119.731 20.8642C119.933 20.8163 120.082 20.7206 120.177 20.5769C120.284 20.4333 120.349 20.2299 120.373 19.9666C120.408 19.6914 120.426 19.3264 120.426 18.8716V16.6098C120.426 15.9157 120.391 15.3353 120.319 14.8685C120.248 14.3899 120.129 14.0069 119.963 13.7197C119.808 13.4205 119.6 13.2111 119.338 13.0914C119.077 12.9598 118.756 12.8939 118.375 12.8939C117.84 12.8939 117.335 13.0435 116.859 13.3427C116.396 13.6299 116.045 14.0189 115.807 14.5095C115.748 14.6292 115.694 14.7489 115.647 14.8685C115.611 14.9763 115.581 15.1019 115.558 15.2455C115.534 15.3772 115.516 15.5387 115.504 15.7302C115.504 15.9217 115.504 16.161 115.504 16.4482V18.728Z" fill="#073F73"/>
<path d="M134.449 13.3786H134.52C134.9 12.9239 135.311 12.5648 135.75 12.3016C136.19 12.0383 136.702 11.9066 137.284 11.9066C137.962 11.9066 138.58 12.0323 139.139 12.2836C139.71 12.523 140.203 12.864 140.619 13.3068C141.035 13.7496 141.356 14.2762 141.582 14.8865C141.82 15.4849 141.939 16.1431 141.939 16.8611C141.939 17.5911 141.82 18.2613 141.582 18.8716C141.345 19.47 141.018 19.9846 140.601 20.4154C140.185 20.8462 139.692 21.1813 139.121 21.4206C138.551 21.66 137.932 21.7797 137.266 21.7797C136.72 21.7797 136.22 21.6899 135.768 21.5104C135.328 21.3189 134.912 21.0138 134.52 20.5949V23.2157C134.52 23.6944 134.544 24.0774 134.591 24.3646C134.639 24.6518 134.734 24.8732 134.877 25.0288C135.019 25.1844 135.221 25.2921 135.483 25.3519C135.756 25.4117 136.113 25.4476 136.553 25.4596V26.0879H131.06V25.4596C131.417 25.4476 131.702 25.4117 131.916 25.3519C132.142 25.2921 132.314 25.1844 132.433 25.0288C132.564 24.8732 132.653 24.6578 132.701 24.3825C132.748 24.1193 132.772 23.7722 132.772 23.3414V16.6277C132.772 15.9336 132.76 15.3652 132.736 14.9224C132.725 14.4796 132.695 14.1744 132.647 14.0069C132.588 13.7197 132.451 13.5282 132.237 13.4325C132.023 13.3248 131.619 13.2709 131.024 13.2709V12.6606L134.449 11.9784V13.3786ZM134.984 13.8992C134.829 14.1385 134.71 14.4258 134.627 14.7608C134.556 15.084 134.52 15.5088 134.52 16.0354V17.4355C134.52 17.7587 134.526 18.0399 134.538 18.2792C134.562 18.5066 134.591 18.7041 134.627 18.8716C134.663 19.0392 134.71 19.1887 134.77 19.3204C134.829 19.452 134.906 19.5777 135.001 19.6974C135.275 20.0803 135.602 20.3795 135.982 20.5949C136.363 20.7983 136.761 20.9001 137.177 20.9001C137.998 20.9001 138.658 20.553 139.157 19.8589C139.668 19.1648 139.924 18.1895 139.924 16.9329C139.924 16.3106 139.852 15.7481 139.71 15.2455C139.579 14.7309 139.389 14.2941 139.139 13.9351C138.889 13.5641 138.586 13.2769 138.23 13.0735C137.885 12.87 137.498 12.7683 137.07 12.7683C136.642 12.7683 136.244 12.87 135.875 13.0735C135.519 13.2649 135.221 13.5402 134.984 13.8992Z" fill="#073F73"/>
<path d="M149.032 16.2867C148.354 16.55 147.778 16.8073 147.302 17.0586C146.838 17.3099 146.464 17.5612 146.179 17.8125C145.893 18.0638 145.685 18.3151 145.554 18.5664C145.435 18.8178 145.376 19.0751 145.376 19.3383C145.376 19.7333 145.507 20.0564 145.768 20.3077C146.03 20.559 146.375 20.6847 146.803 20.6847C147.112 20.6847 147.397 20.6069 147.659 20.4513C147.932 20.2957 148.17 20.0863 148.372 19.823C148.574 19.5478 148.735 19.2306 148.854 18.8716C148.973 18.5006 149.032 18.1117 149.032 17.7048V16.2867ZM149.032 15.5148V14.7788C149.032 13.3188 148.414 12.5888 147.177 12.5888C146.975 12.5888 146.803 12.6067 146.66 12.6426C146.517 12.6785 146.398 12.7384 146.303 12.8221C146.208 12.9059 146.119 13.0256 146.036 13.1812C145.965 13.3367 145.893 13.5282 145.822 13.7556C145.691 14.1026 145.56 14.336 145.429 14.4557C145.311 14.5634 145.132 14.6172 144.894 14.6172C144.3 14.6172 144.003 14.3181 144.003 13.7197C144.003 13.1453 144.306 12.7025 144.912 12.3913C145.519 12.0682 146.381 11.9066 147.498 11.9066C148.687 11.9066 149.531 12.1221 150.031 12.5529C150.53 12.9717 150.78 13.6898 150.78 14.707V18.728C150.78 20.0923 151.047 20.7744 151.582 20.7744C151.749 20.7744 151.909 20.7565 152.064 20.7206C152.219 20.6727 152.349 20.559 152.456 20.3795L152.706 20.8103C152.563 21.0856 152.302 21.3189 151.921 21.5104C151.541 21.6899 151.142 21.7797 150.726 21.7797C150.203 21.7797 149.811 21.6121 149.549 21.277C149.3 20.942 149.175 20.4692 149.175 19.8589H149.086C148.776 20.4453 148.348 20.912 147.801 21.2591C147.255 21.5942 146.648 21.7617 145.982 21.7617C145.233 21.7617 144.645 21.5702 144.217 21.1873C143.789 20.8043 143.575 20.2897 143.575 19.6435C143.575 19.3563 143.622 19.081 143.717 18.8178C143.824 18.5545 143.991 18.3032 144.217 18.0638C144.443 17.8245 144.74 17.5911 145.108 17.3637C145.477 17.1244 145.929 16.885 146.464 16.6457L149.032 15.5148Z" fill="#073F73"/>
<path d="M156.535 18.7819C156.535 19.2725 156.547 19.6615 156.571 19.9487C156.595 20.2239 156.654 20.4393 156.749 20.5949C156.856 20.7385 157.005 20.8342 157.195 20.8821C157.397 20.93 157.671 20.9659 158.016 20.9898V21.6002H153.343V20.9898C153.676 20.9659 153.937 20.93 154.128 20.8821C154.33 20.8342 154.484 20.7385 154.591 20.5949C154.698 20.4513 154.764 20.2478 154.787 19.9846C154.823 19.7213 154.841 19.3623 154.841 18.9075V16.52C154.841 15.0959 154.805 14.2283 154.734 13.9171C154.698 13.7616 154.651 13.6359 154.591 13.5402C154.544 13.4325 154.466 13.3547 154.359 13.3068C154.252 13.247 154.116 13.2111 153.949 13.1991C153.783 13.1752 153.569 13.1632 153.307 13.1632V12.5888L156.161 11.9066L156.375 13.6838H156.446C156.898 13.1213 157.427 12.6845 158.033 12.3734C158.64 12.0622 159.3 11.9066 160.013 11.9066C160.56 11.9066 161.059 11.9964 161.511 12.1759C161.963 12.3554 162.308 12.6007 162.545 12.9119C162.748 13.1871 162.89 13.5462 162.973 13.989C163.057 14.4198 163.098 15.0181 163.098 15.784V18.7819C163.098 19.2725 163.11 19.6615 163.134 19.9487C163.17 20.2239 163.235 20.4393 163.33 20.5949C163.425 20.7385 163.568 20.8342 163.758 20.8821C163.96 20.93 164.222 20.9659 164.543 20.9898V21.6002H159.924V20.9898C160.257 20.9779 160.518 20.9479 160.709 20.9001C160.911 20.8402 161.059 20.7385 161.154 20.5949C161.261 20.4513 161.327 20.2478 161.351 19.9846C161.386 19.7093 161.404 19.3503 161.404 18.9075V16.538C161.404 15.8558 161.368 15.2814 161.297 14.8147C161.226 14.348 161.107 13.971 160.94 13.6838C160.786 13.3966 160.578 13.1931 160.316 13.0735C160.055 12.9418 159.74 12.876 159.371 12.876C158.836 12.876 158.342 13.0196 157.891 13.3068C157.451 13.5821 157.106 13.965 156.856 14.4557C156.797 14.5753 156.743 14.689 156.696 14.7967C156.66 14.9044 156.63 15.0301 156.607 15.1737C156.583 15.3173 156.565 15.4849 156.553 15.6763C156.541 15.8559 156.535 16.0892 156.535 16.3764V18.7819Z" fill="#073F73"/>
<path d="M169.642 24.4185C169.095 25.6511 168.245 26.2674 167.092 26.2674C166.343 26.2674 165.968 25.9862 165.968 25.4237C165.968 25.1245 166.069 24.9031 166.271 24.7595C166.486 24.6279 166.872 24.5142 167.431 24.4185C167.68 24.3825 167.894 24.3287 168.073 24.2569C168.251 24.1971 168.412 24.1133 168.554 24.0056C168.697 23.9098 168.822 23.7842 168.929 23.6286C169.048 23.473 169.161 23.2816 169.268 23.0542L169.892 21.7976L166.468 14.3121C166.313 13.977 166.176 13.7137 166.057 13.5222C165.95 13.3188 165.832 13.1632 165.701 13.0555C165.582 12.9358 165.445 12.858 165.291 12.8221C165.136 12.7743 164.94 12.7384 164.702 12.7144V12.0862H169.428V12.7144C168.632 12.7144 168.233 12.9119 168.233 13.3068C168.233 13.4624 168.281 13.7077 168.376 14.0428C168.471 14.3779 168.59 14.719 168.733 15.066L170.694 19.841H170.784L172.407 15.802C172.561 15.4071 172.686 15.084 172.781 14.8326C172.888 14.5813 172.965 14.3779 173.013 14.2223C173.072 14.0548 173.108 13.9171 173.12 13.8094C173.144 13.7017 173.156 13.6 173.156 13.5043C173.156 13.1931 173.066 12.9837 172.888 12.876C172.722 12.7683 172.395 12.7144 171.907 12.7144V12.0862H175.831V12.7144C175.605 12.7144 175.415 12.7444 175.26 12.8042C175.106 12.864 174.945 13.0016 174.779 13.2171C174.624 13.4205 174.446 13.7197 174.244 14.1146C174.053 14.5095 173.815 15.0421 173.53 15.7122L169.642 24.4185Z" fill="#073F73"/>
<path d="M28.6796 35.656V35.2261C28.9712 35.2186 29.203 35.196 29.375 35.1583C29.5545 35.1206 29.6891 35.0565 29.7789 34.966C29.8761 34.8755 29.9397 34.7473 29.9696 34.5814C30.007 34.4155 30.0257 34.2006 30.0257 33.9366V28.6654C30.0257 28.4015 30.0107 28.1904 29.9808 28.032C29.9583 27.8661 29.906 27.7379 29.8237 27.6474C29.749 27.5494 29.6368 27.4853 29.4872 27.4551C29.3377 27.4174 29.1432 27.391 28.9039 27.3759V26.9461H32.2579C33.2675 26.9461 34.0527 27.1271 34.6136 27.489C35.1744 27.851 35.4549 28.36 35.4549 29.0161C35.4549 29.5138 35.2978 29.921 34.9837 30.2378C34.6771 30.5545 34.1873 30.8146 33.5143 31.0182V31.0635C33.7461 31.0861 33.948 31.1125 34.12 31.1427C34.292 31.1728 34.4453 31.2105 34.5799 31.2558C34.7145 31.2935 34.8379 31.3425 34.9501 31.4028C35.0697 31.4632 35.1856 31.531 35.2978 31.6064C35.9634 32.0815 36.2962 32.6773 36.2962 33.3937C36.2962 33.7934 36.184 34.1666 35.9596 34.5135C35.7428 34.8529 35.4362 35.1206 35.0398 35.3166C34.9127 35.3845 34.7818 35.4411 34.6472 35.4863C34.5126 35.524 34.3556 35.558 34.1761 35.5881C33.9966 35.6107 33.7872 35.6296 33.5479 35.6447C33.3161 35.6522 33.0394 35.656 32.7178 35.656H28.6796ZM32.7515 35.1696C34.105 35.1696 34.7818 34.5852 34.7818 33.4163C34.7818 32.5642 34.4341 31.9684 33.7386 31.6291C33.619 31.5763 33.503 31.531 33.3909 31.4933C33.2787 31.4556 33.1478 31.4292 32.9983 31.4142C32.8487 31.3915 32.6692 31.3764 32.4598 31.3689C32.2579 31.3614 32.0074 31.3576 31.7083 31.3576H31.2035V33.8801C31.2035 34.3401 31.3231 34.6719 31.5624 34.8755C31.8017 35.0716 32.1981 35.1696 32.7515 35.1696ZM31.8317 30.792C32.0635 30.792 32.2579 30.7882 32.415 30.7807C32.572 30.7732 32.7066 30.7619 32.8188 30.7468C32.931 30.7241 33.0282 30.6978 33.1104 30.6676C33.2002 30.6299 33.2899 30.5809 33.3797 30.5205C33.619 30.3697 33.7872 30.1887 33.8844 29.9776C33.9891 29.7664 34.0415 29.4912 34.0415 29.1518C34.0415 28.5561 33.8956 28.13 33.604 27.8736C33.3198 27.6097 32.8711 27.4777 32.2579 27.4777H31.3942C31.267 27.4777 31.2035 27.5418 31.2035 27.67V30.792H31.8317Z" fill="#073F73"/>
<path d="M39.7527 37.4319C39.4087 38.2086 38.874 38.597 38.1486 38.597C37.6775 38.597 37.4419 38.4198 37.4419 38.0653C37.4419 37.8768 37.5055 37.7373 37.6326 37.6468C37.7672 37.5639 38.0103 37.4922 38.3617 37.4319C38.5188 37.4093 38.6534 37.3753 38.7656 37.3301C38.8777 37.2924 38.9787 37.2396 39.0684 37.1717C39.1582 37.1114 39.2367 37.0322 39.304 36.9342C39.3788 36.8362 39.4498 36.7155 39.5171 36.5722L39.9097 35.7804L37.756 31.0635C37.6588 30.8523 37.5728 30.6864 37.498 30.5658C37.4307 30.4376 37.3559 30.3396 37.2737 30.2717C37.1989 30.1963 37.1129 30.1473 37.0157 30.1246C36.9184 30.0945 36.7951 30.0718 36.6455 30.0568V29.6609H39.6181V30.0568C39.1171 30.0568 38.8665 30.1812 38.8665 30.43C38.8665 30.5281 38.8964 30.6827 38.9563 30.8938C39.0161 31.105 39.0909 31.3199 39.1806 31.5386L40.4145 34.5475H40.4706L41.4914 32.0024C41.5886 31.7535 41.6671 31.5499 41.727 31.3915C41.7943 31.2332 41.8429 31.105 41.8728 31.0069C41.9102 30.9014 41.9326 30.8146 41.9401 30.7468C41.955 30.6789 41.9625 30.6148 41.9625 30.5545C41.9625 30.3584 41.9064 30.2264 41.7943 30.1586C41.6896 30.0907 41.4839 30.0568 41.1773 30.0568V29.6609H43.6451V30.0568C43.503 30.0568 43.3834 30.0756 43.2862 30.1133C43.189 30.151 43.088 30.2378 42.9833 30.3735C42.8861 30.5017 42.7739 30.6902 42.6468 30.9391C42.5271 31.1879 42.3776 31.5235 42.1981 31.9458L39.7527 37.4319Z" fill="#073F73"/>
<path d="M54.3971 35.656H47.1507V35.2261C47.4124 35.2186 47.6218 35.196 47.7788 35.1583C47.9433 35.1206 48.0705 35.0565 48.1602 34.966C48.25 34.8755 48.3098 34.7473 48.3397 34.5814C48.3696 34.4155 48.3846 34.2006 48.3846 33.9366V28.6654C48.3846 28.4015 48.3696 28.1904 48.3397 28.032C48.3173 27.8661 48.2649 27.7379 48.1827 27.6474C48.1079 27.5494 47.9957 27.4853 47.8461 27.4551C47.6966 27.4174 47.5021 27.391 47.2628 27.3759V26.9461H50.6729V27.3759C50.4336 27.3835 50.2392 27.4061 50.0896 27.4438C49.9475 27.4815 49.8354 27.5494 49.7531 27.6474C49.6783 27.7454 49.626 27.8812 49.596 28.0546C49.5736 28.2281 49.5624 28.4581 49.5624 28.7446V33.6199C49.5624 33.9366 49.5923 34.1968 49.6521 34.4004C49.7194 34.5965 49.8279 34.7511 49.9774 34.8642C50.1345 34.9698 50.3401 35.0452 50.5944 35.0904C50.8487 35.1281 51.1702 35.147 51.5591 35.147C51.9853 35.147 52.3443 35.1243 52.636 35.0791C52.9276 35.0263 53.1707 34.9396 53.3651 34.8189C53.567 34.6907 53.724 34.5173 53.8362 34.2986C53.9559 34.0724 54.0568 33.782 54.1391 33.4276H54.5653L54.3971 35.656Z" fill="#073F73"/>
<path d="M60.6515 34.604C60.0158 35.3807 59.2269 35.7691 58.2846 35.7691C57.8434 35.7691 57.4433 35.6975 57.0844 35.5542C56.7254 35.4034 56.415 35.196 56.1533 34.932C55.899 34.6606 55.7009 34.3401 55.5588 33.9706C55.4167 33.5935 55.3457 33.1788 55.3457 32.7263C55.3457 32.2663 55.4204 31.8402 55.57 31.4481C55.7196 31.056 55.929 30.7204 56.1982 30.4414C56.4749 30.1623 56.8002 29.9437 57.1741 29.7853C57.5555 29.6269 57.9705 29.5477 58.4192 29.5477C59.1446 29.5477 59.7055 29.7476 60.1018 30.1473C60.4982 30.5394 60.6963 31.105 60.6963 31.844C60.6963 31.9496 60.6739 32.0137 60.629 32.0363C60.5917 32.0589 60.4982 32.0702 60.3486 32.0702H56.6581C56.6431 32.1306 56.6319 32.206 56.6244 32.2965C56.617 32.3794 56.6132 32.4737 56.6132 32.5792C56.6132 32.9714 56.6581 33.3296 56.7478 33.6538C56.845 33.9706 56.9797 34.242 57.1517 34.4683C57.3311 34.6945 57.5405 34.8717 57.7798 34.9999C58.0266 35.1206 58.2996 35.1809 58.5987 35.1809C58.9128 35.1809 59.2044 35.113 59.4737 34.9773C59.7429 34.834 60.0196 34.604 60.3037 34.2873L60.6515 34.604ZM58.8006 31.5499C58.9502 31.5499 59.0698 31.5461 59.1596 31.5386C59.2493 31.531 59.3166 31.516 59.3615 31.4933C59.4063 31.4707 59.4363 31.4405 59.4512 31.4028C59.4662 31.3576 59.4737 31.301 59.4737 31.2332C59.4737 30.8863 59.3615 30.611 59.1371 30.4074C58.9203 30.1963 58.6211 30.0907 58.2397 30.0907C57.4321 30.0907 56.931 30.5771 56.7366 31.5499H58.8006Z" fill="#073F73"/>
<path d="M64.2998 33.224C64.6139 33.224 64.857 33.0807 65.029 32.7942C65.2085 32.5076 65.2982 32.1042 65.2982 31.5838C65.2982 31.071 65.2085 30.6751 65.029 30.3961C64.857 30.1096 64.6102 29.9663 64.2886 29.9663C63.9671 29.9663 63.7091 30.1096 63.5146 30.3961C63.3277 30.6827 63.2342 31.0748 63.2342 31.5725C63.2342 32.0702 63.3314 32.4699 63.5258 32.7715C63.7203 33.0732 63.9783 33.224 64.2998 33.224ZM63.6829 34.5475C63.8624 34.5625 64.0269 34.5776 64.1765 34.5927C64.326 34.6078 64.4718 34.6229 64.6139 34.6379C64.7635 34.653 64.9093 34.6719 65.0514 34.6945C65.201 34.7171 65.3618 34.7397 65.5338 34.7624C66.0722 34.8453 66.5022 35.0565 66.8238 35.3958C67.1528 35.7276 67.3173 36.1462 67.3173 36.6514C67.3173 37.2849 67.0668 37.7675 66.5658 38.0993C66.0722 38.4311 65.3543 38.597 64.412 38.597C63.9932 38.597 63.6081 38.5593 63.2566 38.4839C62.9126 38.4085 62.6172 38.2991 62.3705 38.1558C62.1237 38.0201 61.9292 37.8542 61.7872 37.6581C61.6525 37.4621 61.5852 37.2471 61.5852 37.0134C61.5852 36.855 61.6114 36.708 61.6638 36.5722C61.7161 36.4365 61.7872 36.3158 61.8769 36.2103C61.9666 36.1122 62.0713 36.033 62.191 35.9727C62.3181 35.9124 62.449 35.8822 62.5836 35.8822C62.8378 35.8822 63.0659 35.9614 63.2678 36.1198C63.0659 36.165 62.9014 36.2744 62.7743 36.4478C62.6472 36.6288 62.5836 36.8324 62.5836 37.0586C62.5836 37.3904 62.7444 37.6468 63.0659 37.8278C63.395 38.0088 63.8586 38.0993 64.4569 38.0993C65.7357 38.0993 66.3751 37.7034 66.3751 36.9116C66.3751 36.6099 66.2741 36.3573 66.0722 36.1537C65.8703 35.9576 65.631 35.8407 65.3543 35.803C65.1748 35.7804 64.9878 35.754 64.7934 35.7239C64.6065 35.7012 64.4195 35.6786 64.2325 35.656C64.0531 35.6334 63.8848 35.6145 63.7278 35.5994C63.5707 35.5843 63.4436 35.5693 63.3464 35.5542C62.9276 35.5089 62.6098 35.3958 62.3929 35.2148C62.176 35.0339 62.0676 34.785 62.0676 34.4683C62.0676 34.2043 62.176 33.9706 62.3929 33.767C62.6098 33.5633 62.8827 33.4352 63.2118 33.3824V33.3371C63.0472 33.2692 62.8939 33.175 62.7518 33.0543C62.6098 32.9261 62.4864 32.7829 62.3817 32.6245C62.2845 32.4661 62.2059 32.2965 62.1461 32.1155C62.0863 31.9269 62.0564 31.7346 62.0564 31.5386C62.0564 31.252 62.1087 30.9881 62.2134 30.7468C62.3256 30.5055 62.4789 30.2981 62.6733 30.1246C62.8752 29.9437 63.1108 29.8041 63.38 29.7061C63.6492 29.6005 63.9446 29.5477 64.2662 29.5477C64.5952 29.5477 64.9056 29.6005 65.1972 29.7061C65.4889 29.8041 65.7394 29.9512 65.9488 30.1473C66.2031 29.9361 66.4274 29.7853 66.6218 29.6948C66.8163 29.5968 66.9995 29.5477 67.1715 29.5477C67.4407 29.5477 67.6538 29.6118 67.8109 29.74C67.9754 29.8607 68.0577 30.0266 68.0577 30.2378C68.0577 30.3659 68.0128 30.4678 67.9231 30.5432C67.8408 30.6186 67.7361 30.6563 67.609 30.6563C67.5043 30.6563 67.4183 30.6374 67.351 30.5997C67.2837 30.562 67.2201 30.5243 67.1603 30.4866C67.1079 30.4414 67.0518 30.3999 66.992 30.3622C66.9322 30.3245 66.8574 30.3056 66.7677 30.3056C66.5882 30.3056 66.405 30.3697 66.218 30.4979C66.3975 30.7769 66.4872 31.1276 66.4872 31.5499C66.4872 32.1909 66.2891 32.6961 65.8927 33.0656C65.4964 33.4276 64.9018 33.6388 64.1091 33.6991C63.653 33.7368 63.3352 33.7858 63.1557 33.8461C62.9762 33.9065 62.8865 34.0158 62.8865 34.1742C62.8865 34.2948 62.9538 34.3853 63.0884 34.4456C63.223 34.4984 63.4212 34.5324 63.6829 34.5475Z" fill="#073F73"/>
<path d="M71.8562 32.3078C71.43 32.4737 71.0673 32.6358 70.7682 32.7942C70.4765 32.9525 70.2409 33.1109 70.0615 33.2692C69.882 33.4276 69.7511 33.586 69.6689 33.7443C69.5941 33.9027 69.5567 34.0648 69.5567 34.2307C69.5567 34.4796 69.6389 34.6832 69.8035 34.8416C69.968 34.9999 70.1849 35.0791 70.4541 35.0791C70.6485 35.0791 70.828 35.0301 70.9925 34.932C71.1645 34.834 71.3141 34.702 71.4412 34.5361C71.5683 34.3627 71.6693 34.1629 71.7441 33.9366C71.8189 33.7029 71.8562 33.4578 71.8562 33.2014V32.3078ZM71.8562 31.8214V31.3576C71.8562 30.4376 71.4674 29.9776 70.6896 29.9776C70.5625 29.9776 70.4541 29.9889 70.3643 30.0115C70.2746 30.0341 70.1998 30.0718 70.14 30.1246C70.0802 30.1774 70.0241 30.2528 69.9717 30.3509C69.9269 30.4489 69.882 30.5696 69.8371 30.7128C69.7549 30.9315 69.6726 31.0786 69.5903 31.154C69.5155 31.2219 69.4034 31.2558 69.2538 31.2558C68.8799 31.2558 68.6929 31.0673 68.6929 30.6902C68.6929 30.3282 68.8836 30.0492 69.265 29.8532C69.6464 29.6496 70.1886 29.5477 70.8916 29.5477C71.6394 29.5477 72.1703 29.6835 72.4844 29.955C72.7985 30.2189 72.9556 30.6714 72.9556 31.3123V33.8461C72.9556 34.7058 73.1238 35.1357 73.4603 35.1357C73.565 35.1357 73.666 35.1243 73.7632 35.1017C73.8604 35.0716 73.9427 34.9999 74.01 34.8868L74.167 35.1583C74.0773 35.3317 73.9128 35.4788 73.6735 35.5994C73.4342 35.7125 73.1836 35.7691 72.9219 35.7691C72.5929 35.7691 72.3461 35.6635 72.1815 35.4524C72.0245 35.2412 71.946 34.9434 71.946 34.5588H71.8899C71.6955 34.9283 71.4262 35.2224 71.0822 35.4411C70.7382 35.6522 70.3569 35.7578 69.9381 35.7578C69.4669 35.7578 69.0968 35.6371 68.8275 35.3958C68.5583 35.1545 68.4237 34.8302 68.4237 34.423C68.4237 34.242 68.4536 34.0686 68.5135 33.9027C68.5808 33.7368 68.6855 33.5784 68.8275 33.4276C68.9696 33.2768 69.1566 33.1297 69.3884 32.9865C69.6203 32.8356 69.9044 32.6848 70.2409 32.534L71.8562 31.8214Z" fill="#073F73"/>
<path d="M76.497 33.8914C76.497 34.1779 76.5082 34.4079 76.5307 34.5814C76.5531 34.7548 76.598 34.8906 76.6653 34.9886C76.74 35.0866 76.841 35.1545 76.9681 35.1922C77.1027 35.2299 77.2785 35.2525 77.4953 35.2601V35.656H74.3993V35.2601C74.6237 35.2525 74.8032 35.2299 74.9378 35.1922C75.0724 35.147 75.1771 35.0791 75.2519 34.9886C75.3341 34.8981 75.3865 34.7737 75.4089 34.6153C75.4388 34.4494 75.4538 34.2345 75.4538 33.9706V29.0953C75.4538 28.6881 75.4463 28.3487 75.4313 28.0772C75.4239 27.7982 75.4089 27.6097 75.3865 27.5117C75.3491 27.3382 75.2593 27.2213 75.1173 27.161C74.9827 27.1007 74.7359 27.0705 74.3769 27.0705V26.6859L76.497 26.2674V33.8914Z" fill="#073F73"/>
<path d="M88.4021 29.1292C88.4021 29.5289 88.3385 29.8871 88.2114 30.2038C88.0842 30.5205 87.8823 30.7882 87.6056 31.0069C87.3364 31.2256 86.9812 31.3953 86.54 31.516C86.1062 31.6366 85.5753 31.6969 84.9471 31.6969H83.9375V33.8801C83.9375 34.1591 83.9525 34.3891 83.9824 34.5701C84.0198 34.7435 84.0908 34.8793 84.1955 34.9773C84.3077 35.0753 84.4648 35.1432 84.6667 35.1809C84.8761 35.2111 85.149 35.2261 85.4855 35.2261V35.656H81.5258V35.2261C81.7875 35.2186 81.9969 35.196 82.154 35.1583C82.3185 35.1206 82.4456 35.0565 82.5354 34.966C82.6251 34.8755 82.6849 34.7473 82.7149 34.5814C82.7448 34.4155 82.7597 34.2006 82.7597 33.9366V28.6654C82.7597 28.4015 82.7448 28.1904 82.7149 28.032C82.6924 27.8661 82.6401 27.7379 82.5578 27.6474C82.483 27.5494 82.3708 27.4853 82.2213 27.4551C82.0717 27.4174 81.8773 27.391 81.638 27.3759V26.9461H85.1602C86.1922 26.9461 86.9887 27.1384 87.5495 27.523C88.1179 27.9076 88.4021 28.443 88.4021 29.1292ZM83.9375 31.1314H84.734C85.4818 31.1314 86.0352 30.9881 86.3941 30.7015C86.7606 30.4074 86.9438 29.9286 86.9438 29.265C86.9438 28.624 86.798 28.1677 86.5063 27.8963C86.2221 27.6172 85.7735 27.4777 85.1602 27.4777H84.1282C84.0011 27.4777 83.9375 27.5418 83.9375 27.67V31.1314Z" fill="#073F73"/>
<path d="M91.2123 33.8574C91.2123 34.1666 91.2198 34.4117 91.2347 34.5927C91.2497 34.7737 91.2871 34.9132 91.3469 35.0112C91.4142 35.1017 91.5077 35.162 91.6273 35.1922C91.747 35.2224 91.9152 35.245 92.1321 35.2601V35.656H89.1483V35.2601C89.3652 35.2525 89.5372 35.2337 89.6643 35.2035C89.7914 35.1658 89.8886 35.1017 89.9559 35.0112C90.0232 34.9207 90.0644 34.7925 90.0793 34.6266C90.1018 34.4532 90.113 34.2232 90.113 33.9366V32.6132C90.113 32.1004 90.1055 31.7007 90.0905 31.4142C90.0831 31.1276 90.0457 30.9164 89.9784 30.7807C89.9185 30.645 89.8213 30.5658 89.6867 30.5432C89.5521 30.513 89.3652 30.4979 89.1258 30.4979V30.102L91.0889 29.6722L91.2459 31.0748H91.2908C91.388 30.8486 91.5077 30.6412 91.6498 30.4527C91.7993 30.2641 91.9601 30.1058 92.1321 29.9776C92.3041 29.8418 92.4836 29.7363 92.6705 29.6609C92.8575 29.5855 93.0482 29.5477 93.2426 29.5477C93.4819 29.5477 93.6689 29.6081 93.8035 29.7287C93.9456 29.8418 94.0166 29.9964 94.0166 30.1925C94.0166 30.3735 93.9605 30.5168 93.8484 30.6223C93.7362 30.7204 93.5754 30.7694 93.366 30.7694C93.2464 30.7694 93.1454 30.7543 93.0631 30.7241C92.9809 30.694 92.9061 30.6638 92.8388 30.6337C92.779 30.596 92.7191 30.562 92.6593 30.5319C92.607 30.5017 92.5471 30.4866 92.4798 30.4866C92.2779 30.4866 92.076 30.6186 91.8741 30.8825C91.6722 31.1389 91.5151 31.4669 91.403 31.8666C91.3432 32.0853 91.2945 32.3342 91.2572 32.6132C91.2272 32.8847 91.2123 33.1712 91.2123 33.4729V33.8574Z" fill="#073F73"/>
<path d="M97.593 29.5477C98.0192 29.5477 98.423 29.6269 98.8044 29.7853C99.1858 29.9361 99.5186 30.1473 99.8028 30.4187C100.094 30.6902 100.323 31.0145 100.487 31.3915C100.659 31.761 100.745 32.1683 100.745 32.6132C100.745 33.0732 100.659 33.4955 100.487 33.8801C100.323 34.2647 100.094 34.5965 99.8028 34.8755C99.5186 35.1545 99.1858 35.3732 98.8044 35.5316C98.423 35.6899 98.0192 35.7691 97.593 35.7691C97.1742 35.7691 96.7741 35.6937 96.3927 35.5429C96.0188 35.3845 95.6897 35.1658 95.4056 34.8868C95.1214 34.6078 94.897 34.276 94.7325 33.8914C94.568 33.4992 94.4857 33.0732 94.4857 32.6132C94.4857 32.1683 94.568 31.7573 94.7325 31.3802C94.897 31.0032 95.1214 30.6789 95.4056 30.4074C95.6897 30.1359 96.0188 29.9248 96.3927 29.774C96.7741 29.6232 97.1742 29.5477 97.593 29.5477ZM97.593 30.0907C97.3163 30.0907 97.062 30.151 96.8302 30.2717C96.6058 30.3923 96.4114 30.5658 96.2469 30.792C96.0898 31.0107 95.9664 31.2784 95.8767 31.5951C95.7944 31.9043 95.7533 32.2474 95.7533 32.6245C95.7533 33.0166 95.7944 33.3711 95.8767 33.6878C95.9664 34.0045 96.0898 34.276 96.2469 34.5022C96.4114 34.7209 96.6058 34.8906 96.8302 35.0112C97.0545 35.1319 97.3088 35.1922 97.593 35.1922C97.8771 35.1922 98.1351 35.1319 98.367 35.0112C98.5988 34.8906 98.797 34.7171 98.9615 34.4909C99.126 34.2647 99.2531 33.9932 99.3429 33.6765C99.4326 33.3597 99.4775 33.0091 99.4775 32.6245C99.4775 32.2474 99.4326 31.9043 99.3429 31.5951C99.2531 31.286 99.126 31.022 98.9615 30.8033C98.797 30.5771 98.5988 30.4037 98.367 30.283C98.1351 30.1548 97.8771 30.0907 97.593 30.0907Z" fill="#073F73"/>
<path d="M101.534 29.8418H102.801V29.0274C102.801 28.1602 103.025 27.4853 103.474 27.0026C103.93 26.5125 104.577 26.2674 105.415 26.2674C105.878 26.2674 106.256 26.339 106.548 26.4823C106.839 26.6256 106.985 26.8103 106.985 27.0366C106.985 27.1874 106.937 27.3156 106.839 27.4212C106.75 27.5192 106.634 27.5682 106.492 27.5682C106.402 27.5682 106.305 27.5418 106.2 27.489C106.103 27.4287 105.972 27.3307 105.807 27.1949C105.62 27.0366 105.475 26.9348 105.37 26.8895C105.265 26.8367 105.142 26.8103 105 26.8103C104.551 26.8103 104.229 27.0404 104.035 27.5004C103.968 27.6512 103.919 27.8359 103.889 28.0546C103.867 28.2733 103.856 28.575 103.856 28.9595V29.8418H105.662V30.3735H103.856V33.8348C103.856 34.1138 103.871 34.3438 103.9 34.5248C103.938 34.7058 103.998 34.8529 104.08 34.966C104.17 35.0716 104.289 35.147 104.439 35.1922C104.588 35.2299 104.783 35.2525 105.022 35.2601V35.656H101.836V35.2601C102.046 35.2525 102.214 35.2337 102.341 35.2035C102.468 35.1658 102.566 35.1017 102.633 35.0112C102.7 34.9132 102.745 34.7812 102.768 34.6153C102.79 34.4419 102.801 34.2119 102.801 33.9253V30.3735H101.534V29.8418Z" fill="#073F73"/>
<path d="M111.645 34.604C111.009 35.3807 110.22 35.7691 109.278 35.7691C108.836 35.7691 108.436 35.6975 108.077 35.5542C107.718 35.4034 107.408 35.196 107.146 34.932C106.892 34.6606 106.694 34.3401 106.552 33.9706C106.41 33.5935 106.339 33.1788 106.339 32.7263C106.339 32.2663 106.414 31.8402 106.563 31.4481C106.713 31.056 106.922 30.7204 107.191 30.4414C107.468 30.1623 107.793 29.9437 108.167 29.7853C108.549 29.6269 108.964 29.5477 109.412 29.5477C110.138 29.5477 110.699 29.7476 111.095 30.1473C111.491 30.5394 111.689 31.105 111.689 31.844C111.689 31.9496 111.667 32.0137 111.622 32.0363C111.585 32.0589 111.491 32.0702 111.342 32.0702H107.651C107.636 32.1306 107.625 32.206 107.618 32.2965C107.61 32.3794 107.606 32.4737 107.606 32.5792C107.606 32.9714 107.651 33.3296 107.741 33.6538C107.838 33.9706 107.973 34.242 108.145 34.4683C108.324 34.6945 108.534 34.8717 108.773 34.9999C109.02 35.1206 109.293 35.1809 109.592 35.1809C109.906 35.1809 110.198 35.113 110.467 34.9773C110.736 34.834 111.013 34.604 111.297 34.2873L111.645 34.604ZM109.794 31.5499C109.943 31.5499 110.063 31.5461 110.153 31.5386C110.242 31.531 110.31 31.516 110.355 31.4933C110.399 31.4707 110.429 31.4405 110.444 31.4028C110.459 31.3576 110.467 31.301 110.467 31.2332C110.467 30.8863 110.355 30.611 110.13 30.4074C109.913 30.1963 109.614 30.0907 109.233 30.0907C108.425 30.0907 107.924 30.5771 107.73 31.5499H109.794Z" fill="#073F73"/>
<path d="M113.184 35.656H112.937V33.7104H113.218C113.509 34.7737 114.04 35.3053 114.811 35.3053C115.11 35.3053 115.345 35.2337 115.517 35.0904C115.697 34.9396 115.787 34.7134 115.787 34.4117C115.787 34.2986 115.768 34.2043 115.73 34.1289C115.701 34.046 115.637 33.963 115.54 33.8801C115.45 33.7896 115.319 33.6878 115.147 33.5747C114.983 33.4615 114.762 33.3183 114.485 33.1448C114.231 32.9865 114.01 32.8394 113.823 32.7037C113.637 32.5679 113.479 32.4322 113.352 32.2965C113.225 32.1532 113.128 32.0024 113.061 31.844C113.001 31.6856 112.971 31.5009 112.971 31.2897C112.971 31.0333 113.012 30.7996 113.094 30.5884C113.184 30.3697 113.304 30.185 113.453 30.0341C113.603 29.8833 113.779 29.7664 113.981 29.6835C114.182 29.593 114.403 29.5477 114.642 29.5477C114.844 29.5477 115.054 29.5817 115.271 29.6496C115.487 29.7099 115.678 29.7928 115.843 29.8984L116.067 29.6609H116.28V31.2897H115.988C115.824 30.8297 115.644 30.5017 115.45 30.3056C115.256 30.1096 115.016 30.0115 114.732 30.0115C114.478 30.0115 114.272 30.0794 114.115 30.2151C113.966 30.3509 113.891 30.5394 113.891 30.7807C113.891 30.9089 113.909 31.022 113.947 31.1201C113.992 31.2105 114.059 31.301 114.149 31.3915C114.239 31.482 114.351 31.5763 114.485 31.6743C114.627 31.7648 114.796 31.8704 114.99 31.991C115.312 32.1946 115.585 32.3756 115.809 32.534C116.041 32.6924 116.228 32.8507 116.37 33.0091C116.512 33.1599 116.617 33.3183 116.684 33.4842C116.751 33.6501 116.785 33.8386 116.785 34.0497C116.785 34.5852 116.613 35.0075 116.269 35.3166C115.925 35.6183 115.472 35.7691 114.912 35.7691C114.328 35.7691 113.827 35.5994 113.408 35.2601L113.184 35.656Z" fill="#073F73"/>
<path d="M118.278 35.656H118.031V33.7104H118.312C118.603 34.7737 119.134 35.3053 119.904 35.3053C120.204 35.3053 120.439 35.2337 120.611 35.0904C120.791 34.9396 120.88 34.7134 120.88 34.4117C120.88 34.2986 120.862 34.2043 120.824 34.1289C120.794 34.046 120.731 33.963 120.634 33.8801C120.544 33.7896 120.413 33.6878 120.241 33.5747C120.076 33.4615 119.856 33.3183 119.579 33.1448C119.325 32.9865 119.104 32.8394 118.917 32.7037C118.73 32.5679 118.573 32.4322 118.446 32.2965C118.319 32.1532 118.222 32.0024 118.155 31.844C118.095 31.6856 118.065 31.5009 118.065 31.2897C118.065 31.0333 118.106 30.7996 118.188 30.5884C118.278 30.3697 118.398 30.185 118.547 30.0341C118.697 29.8833 118.872 29.7664 119.074 29.6835C119.276 29.593 119.497 29.5477 119.736 29.5477C119.938 29.5477 120.147 29.5817 120.364 29.6496C120.581 29.7099 120.772 29.7928 120.936 29.8984L121.161 29.6609H121.374V31.2897H121.082C120.918 30.8297 120.738 30.5017 120.544 30.3056C120.349 30.1096 120.11 30.0115 119.826 30.0115C119.572 30.0115 119.366 30.0794 119.209 30.2151C119.059 30.3509 118.985 30.5394 118.985 30.7807C118.985 30.9089 119.003 31.022 119.041 31.1201C119.086 31.2105 119.153 31.301 119.243 31.3915C119.332 31.482 119.445 31.5763 119.579 31.6743C119.721 31.7648 119.889 31.8704 120.084 31.991C120.405 32.1946 120.678 32.3756 120.903 32.534C121.135 32.6924 121.322 32.8507 121.464 33.0091C121.606 33.1599 121.71 33.3183 121.778 33.4842C121.845 33.6501 121.879 33.8386 121.879 34.0497C121.879 34.5852 121.707 35.0075 121.363 35.3166C121.019 35.6183 120.566 35.7691 120.005 35.7691C119.422 35.7691 118.921 35.5994 118.502 35.2601L118.278 35.656Z" fill="#073F73"/>
<path d="M124.965 33.8574C124.965 34.1515 124.976 34.3891 124.998 34.5701C125.028 34.7435 125.081 34.883 125.155 34.9886C125.23 35.0866 125.335 35.1545 125.469 35.1922C125.604 35.2299 125.783 35.2525 126.008 35.2601V35.656H122.788V35.2601C123.013 35.2525 123.196 35.2299 123.338 35.1922C123.48 35.147 123.589 35.0791 123.663 34.9886C123.746 34.8906 123.798 34.7586 123.82 34.5927C123.85 34.4193 123.865 34.2006 123.865 33.9366V32.4888C123.865 32.0514 123.858 31.6932 123.843 31.4142C123.835 31.1276 123.817 30.9315 123.787 30.826C123.749 30.6525 123.663 30.5356 123.529 30.4753C123.394 30.4074 123.14 30.3735 122.766 30.3735V29.9776L124.965 29.5477V33.8574ZM123.675 27.2515C123.675 27.0554 123.742 26.8895 123.877 26.7538C124.011 26.6181 124.176 26.5502 124.37 26.5502C124.565 26.5502 124.729 26.6181 124.864 26.7538C124.998 26.8895 125.066 27.0554 125.066 27.2515C125.066 27.4476 124.998 27.6135 124.864 27.7492C124.729 27.8849 124.565 27.9528 124.37 27.9528C124.176 27.9528 124.011 27.8849 123.877 27.7492C123.742 27.6135 123.675 27.4476 123.675 27.2515Z" fill="#073F73"/>
<path d="M129.876 29.5477C130.302 29.5477 130.706 29.6269 131.087 29.7853C131.469 29.9361 131.801 30.1473 132.086 30.4187C132.377 30.6902 132.605 31.0145 132.77 31.3915C132.942 31.761 133.028 32.1683 133.028 32.6132C133.028 33.0732 132.942 33.4955 132.77 33.8801C132.605 34.2647 132.377 34.5965 132.086 34.8755C131.801 35.1545 131.469 35.3732 131.087 35.5316C130.706 35.6899 130.302 35.7691 129.876 35.7691C129.457 35.7691 129.057 35.6937 128.676 35.5429C128.302 35.3845 127.973 35.1658 127.688 34.8868C127.404 34.6078 127.18 34.276 127.015 33.8914C126.851 33.4992 126.769 33.0732 126.769 32.6132C126.769 32.1683 126.851 31.7573 127.015 31.3802C127.18 31.0032 127.404 30.6789 127.688 30.4074C127.973 30.1359 128.302 29.9248 128.676 29.774C129.057 29.6232 129.457 29.5477 129.876 29.5477ZM129.876 30.0907C129.599 30.0907 129.345 30.151 129.113 30.2717C128.889 30.3923 128.694 30.5658 128.53 30.792C128.373 31.0107 128.249 31.2784 128.16 31.5951C128.077 31.9043 128.036 32.2474 128.036 32.6245C128.036 33.0166 128.077 33.3711 128.16 33.6878C128.249 34.0045 128.373 34.276 128.53 34.5022C128.694 34.7209 128.889 34.8906 129.113 35.0112C129.337 35.1319 129.592 35.1922 129.876 35.1922C130.16 35.1922 130.418 35.1319 130.65 35.0112C130.882 34.8906 131.08 34.7171 131.244 34.4909C131.409 34.2647 131.536 33.9932 131.626 33.6765C131.715 33.3597 131.76 33.0091 131.76 32.6245C131.76 32.2474 131.715 31.9043 131.626 31.5951C131.536 31.286 131.409 31.022 131.244 30.8033C131.08 30.5771 130.882 30.4037 130.65 30.283C130.418 30.1548 130.16 30.0907 129.876 30.0907Z" fill="#073F73"/>
<path d="M135.993 33.8801C135.993 34.1893 136 34.4343 136.015 34.6153C136.03 34.7888 136.067 34.9245 136.127 35.0225C136.195 35.113 136.288 35.1734 136.408 35.2035C136.535 35.2337 136.707 35.2563 136.924 35.2714V35.656H133.985V35.2714C134.194 35.2563 134.359 35.2337 134.478 35.2035C134.605 35.1734 134.703 35.113 134.77 35.0225C134.837 34.932 134.878 34.8038 134.893 34.6379C134.916 34.472 134.927 34.2458 134.927 33.9593V32.4548C134.927 31.5574 134.905 31.0107 134.86 30.8146C134.837 30.7166 134.807 30.6374 134.77 30.5771C134.74 30.5092 134.691 30.4602 134.624 30.43C134.557 30.3923 134.471 30.3697 134.366 30.3622C134.261 30.3471 134.127 30.3396 133.962 30.3396V29.9776L135.757 29.5477L135.892 30.6676H135.937C136.221 30.3132 136.553 30.0379 136.935 29.8418C137.316 29.6458 137.731 29.5477 138.18 29.5477C138.524 29.5477 138.838 29.6043 139.122 29.7174C139.406 29.8305 139.623 29.9851 139.773 30.1812C139.9 30.3546 139.99 30.5809 140.042 30.8599C140.094 31.1314 140.121 31.5084 140.121 31.991V33.8801C140.121 34.1893 140.128 34.4343 140.143 34.6153C140.165 34.7888 140.207 34.9245 140.266 35.0225C140.326 35.113 140.416 35.1734 140.536 35.2035C140.663 35.2337 140.827 35.2563 141.029 35.2714V35.656H138.124V35.2714C138.333 35.2639 138.498 35.245 138.617 35.2148C138.745 35.1771 138.838 35.113 138.898 35.0225C138.965 34.932 139.006 34.8038 139.021 34.6379C139.044 34.4645 139.055 34.2383 139.055 33.9593V32.4661C139.055 32.0363 139.033 31.6743 138.988 31.3802C138.943 31.0861 138.868 30.8486 138.763 30.6676C138.666 30.4866 138.535 30.3584 138.371 30.283C138.206 30.2 138.008 30.1586 137.776 30.1586C137.44 30.1586 137.129 30.2491 136.845 30.43C136.568 30.6035 136.352 30.8448 136.195 31.154C136.157 31.2294 136.123 31.301 136.094 31.3689C136.071 31.4368 136.052 31.516 136.037 31.6064C136.023 31.6969 136.011 31.8025 136.004 31.9232C135.996 32.0363 135.993 32.1833 135.993 32.3643V33.8801Z" fill="#073F73"/>
<path d="M145.218 32.3078C144.792 32.4737 144.429 32.6358 144.13 32.7942C143.839 32.9525 143.603 33.1109 143.424 33.2692C143.244 33.4276 143.113 33.586 143.031 33.7443C142.956 33.9027 142.919 34.0648 142.919 34.2307C142.919 34.4796 143.001 34.6832 143.166 34.8416C143.33 34.9999 143.547 35.0791 143.816 35.0791C144.011 35.0791 144.19 35.0301 144.355 34.932C144.527 34.834 144.676 34.702 144.803 34.5361C144.93 34.3627 145.031 34.1629 145.106 33.9366C145.181 33.7029 145.218 33.4578 145.218 33.2014V32.3078ZM145.218 31.8214V31.3576C145.218 30.4376 144.83 29.9776 144.052 29.9776C143.925 29.9776 143.816 29.9889 143.726 30.0115C143.637 30.0341 143.562 30.0718 143.502 30.1246C143.442 30.1774 143.386 30.2528 143.334 30.3509C143.289 30.4489 143.244 30.5696 143.199 30.7128C143.117 30.9315 143.035 31.0786 142.952 31.154C142.878 31.2219 142.766 31.2558 142.616 31.2558C142.242 31.2558 142.055 31.0673 142.055 30.6902C142.055 30.3282 142.246 30.0492 142.627 29.8532C143.009 29.6496 143.551 29.5477 144.254 29.5477C145.002 29.5477 145.532 29.6835 145.847 29.955C146.161 30.2189 146.318 30.6714 146.318 31.3123V33.8461C146.318 34.7058 146.486 35.1357 146.822 35.1357C146.927 35.1357 147.028 35.1243 147.125 35.1017C147.223 35.0716 147.305 34.9999 147.372 34.8868L147.529 35.1583C147.439 35.3317 147.275 35.4788 147.036 35.5994C146.796 35.7125 146.546 35.7691 146.284 35.7691C145.955 35.7691 145.708 35.6635 145.544 35.4524C145.387 35.2412 145.308 34.9434 145.308 34.5588H145.252C145.058 34.9283 144.788 35.2224 144.444 35.4411C144.1 35.6522 143.719 35.7578 143.3 35.7578C142.829 35.7578 142.459 35.6371 142.19 35.3958C141.92 35.1545 141.786 34.8302 141.786 34.423C141.786 34.242 141.816 34.0686 141.876 33.9027C141.943 33.7368 142.048 33.5784 142.19 33.4276C142.332 33.2768 142.519 33.1297 142.751 32.9865C142.982 32.8356 143.267 32.6848 143.603 32.534L145.218 31.8214Z" fill="#073F73"/>
<path d="M149.859 33.8914C149.859 34.1779 149.87 34.4079 149.893 34.5814C149.915 34.7548 149.96 34.8906 150.027 34.9886C150.102 35.0866 150.203 35.1545 150.33 35.1922C150.465 35.2299 150.641 35.2525 150.857 35.2601V35.656H147.761V35.2601C147.986 35.2525 148.165 35.2299 148.3 35.1922C148.435 35.147 148.539 35.0791 148.614 34.9886C148.696 34.8981 148.749 34.7737 148.771 34.6153C148.801 34.4494 148.816 34.2345 148.816 33.9706V29.0953C148.816 28.6881 148.808 28.3487 148.793 28.0772C148.786 27.7982 148.771 27.6097 148.749 27.5117C148.711 27.3382 148.621 27.2213 148.479 27.161C148.345 27.1007 148.098 27.0705 147.739 27.0705V26.6859L149.859 26.2674V33.8914Z" fill="#073F73"/>
<path d="M152.127 35.656H151.88V33.7104H152.161C152.453 34.7737 152.984 35.3053 153.754 35.3053C154.053 35.3053 154.288 35.2337 154.46 35.0904C154.64 34.9396 154.73 34.7134 154.73 34.4117C154.73 34.2986 154.711 34.2043 154.674 34.1289C154.644 34.046 154.58 33.963 154.483 33.8801C154.393 33.7896 154.262 33.6878 154.09 33.5747C153.926 33.4615 153.705 33.3183 153.428 33.1448C153.174 32.9865 152.954 32.8394 152.767 32.7037C152.58 32.5679 152.423 32.4322 152.296 32.2965C152.168 32.1532 152.071 32.0024 152.004 31.844C151.944 31.6856 151.914 31.5009 151.914 31.2897C151.914 31.0333 151.955 30.7996 152.037 30.5884C152.127 30.3697 152.247 30.185 152.396 30.0341C152.546 29.8833 152.722 29.7664 152.924 29.6835C153.126 29.593 153.346 29.5477 153.585 29.5477C153.787 29.5477 153.997 29.5817 154.214 29.6496C154.431 29.7099 154.621 29.7928 154.786 29.8984L155.01 29.6609H155.223V31.2897H154.932C154.767 30.8297 154.588 30.5017 154.393 30.3056C154.199 30.1096 153.959 30.0115 153.675 30.0115C153.421 30.0115 153.215 30.0794 153.058 30.2151C152.909 30.3509 152.834 30.5394 152.834 30.7807C152.834 30.9089 152.853 31.022 152.89 31.1201C152.935 31.2105 153.002 31.301 153.092 31.3915C153.182 31.482 153.294 31.5763 153.428 31.6743C153.571 31.7648 153.739 31.8704 153.933 31.991C154.255 32.1946 154.528 32.3756 154.752 32.534C154.984 32.6924 155.171 32.8507 155.313 33.0091C155.455 33.1599 155.56 33.3183 155.627 33.4842C155.694 33.6501 155.728 33.8386 155.728 34.0497C155.728 34.5852 155.556 35.0075 155.212 35.3166C154.868 35.6183 154.416 35.7691 153.855 35.7691C153.271 35.7691 152.77 35.5994 152.352 35.2601L152.127 35.656Z" fill="#073F73"/>
<path fill-rule="evenodd" clip-rule="evenodd" d="M176.903 1.07214H1.07214V37.2568C1.07214 40.6615 3.83222 43.4216 7.23694 43.4216H183.068V7.23694C183.068 3.83221 180.308 1.07214 176.903 1.07214ZM0 0V37.2568C0 41.2537 3.24009 44.4938 7.23694 44.4938H184.14V7.23694C184.14 3.24009 180.9 0 176.903 0H0Z" fill="#073F73"/>
</svg>
