<svg width="15" height="16" viewBox="0 0 15 16" fill="none" xmlns="http://www.w3.org/2000/svg">
<path d="M12.3944 4.21848L12.3949 4.21884C13.3009 5.01639 13.6871 5.40103 13.916 5.96582C14.1587 6.56434 14.25 7.43463 14.25 9.2738C14.25 12.5638 13.7485 13.8027 12.9253 14.3755C12.4911 14.6776 11.8771 14.8629 10.9597 14.9599C10.0416 15.0569 8.91624 15.0578 7.50002 15.0578C6.0836 15.0578 4.95819 15.0569 4.04002 14.9599C3.12252 14.8629 2.50861 14.6776 2.07446 14.3755C1.25136 13.8027 0.75 12.5638 0.75 9.2738C0.75 7.43501 0.841334 6.5649 1.08388 5.96655C1.31273 5.40196 1.69872 5.0175 2.60439 4.22035L2.60492 4.21988C2.61912 4.20735 2.63344 4.19473 2.64789 4.18199C2.90305 3.95702 3.19651 3.69828 3.52501 3.39423C3.70212 3.25008 3.87629 3.10212 4.05208 2.95281C4.07324 2.93483 4.09443 2.91683 4.11565 2.89881L4.11633 2.89824C4.68262 2.41634 5.26988 1.91831 5.87264 1.53658C6.48291 1.15009 7.0198 0.942169 7.4792 0.942169C7.9425 0.942169 8.50544 1.16389 9.14395 1.56744C9.77026 1.96328 10.3749 2.47149 10.9242 2.93465L10.9247 2.93506C10.9387 2.94682 10.9526 2.95858 10.9666 2.97033C11.1352 3.11232 11.3017 3.25248 11.4567 3.378C11.792 3.68767 12.079 3.94055 12.328 4.15998C12.3505 4.17974 12.3726 4.19924 12.3944 4.21848ZM11.4481 2.39528L11.4077 2.36126L11.9475 2.8104C11.7933 2.68595 11.6257 2.54479 11.4481 2.39528ZM5.33833 12.3825H9.66241C10.3845 12.3825 10.9701 11.7969 10.9701 11.0748C10.9701 10.3527 10.3845 9.76711 9.66241 9.76711H5.33833C4.61626 9.76711 4.03063 10.3527 4.03063 11.0748C4.03063 11.7969 4.61627 12.3825 5.33833 12.3825Z" stroke="#0056C4" stroke-width="1.5"/>
</svg>
