<svg width="20" height="18" viewBox="0 0 20 18" fill="none" xmlns="http://www.w3.org/2000/svg">
<path d="M4.50317 0.340228C4.5564 0.269251 4.62543 0.211644 4.70478 0.171967C4.78414 0.13229 4.87164 0.111633 4.96036 0.111633H15.2471C15.3358 0.111633 15.4233 0.13229 15.5027 0.171967C15.582 0.211644 15.6511 0.269251 15.7043 0.340228L19.1065 4.88163C19.19 4.98564 19.2364 5.11448 19.2385 5.24781C19.2405 5.38113 19.1981 5.51135 19.118 5.6179L10.5609 17.0276C10.5076 17.0984 10.4385 17.1559 10.3592 17.1954C10.2798 17.235 10.1924 17.2556 10.1037 17.2556C10.0151 17.2556 9.92764 17.235 9.8483 17.1954C9.76896 17.1559 9.69989 17.0984 9.64654 17.0276L1.07426 5.5979C1.00007 5.49897 0.959961 5.37866 0.959961 5.255C0.959961 5.13135 1.00007 5.01104 1.07426 4.91211L4.50317 0.340228ZM17.5178 4.66637L15.4528 1.91181L14.567 4.66923L17.5178 4.66637ZM13.365 4.67018L14.4632 1.2546H5.7452L6.84531 4.6778L13.365 4.67018ZM7.21201 5.82078L10.1037 14.8169L12.9983 5.81506L7.21201 5.82078ZM5.64519 4.6778L4.75367 1.90991L2.67632 4.68161L5.64519 4.6778ZM2.67442 5.82649L8.51881 13.6177L6.0138 5.82268L2.67442 5.82649ZM11.6915 13.6177L17.5473 5.81125L14.2003 5.81316L11.6915 13.6177Z" fill="white"/>
</svg>
