<svg width="20" height="21" viewBox="0 0 20 21" fill="none" xmlns="http://www.w3.org/2000/svg">
<path d="M16.8566 4.99334L16.8568 4.99359C18.0528 6.0463 18.6618 6.63153 19.0181 7.51035C19.3835 8.41168 19.5 9.66768 19.5 12.1088C19.5 16.4802 18.8506 18.3951 17.5193 19.3215C16.8386 19.7952 15.9211 20.0548 14.6655 20.1875C13.4093 20.3203 11.8791 20.3209 10 20.3209C8.12066 20.3209 6.59034 20.3203 5.33415 20.1875C4.0784 20.0548 3.16101 19.7952 2.48035 19.3215C1.14916 18.3951 0.5 16.4802 0.5 12.1088C0.5 9.66818 0.616535 8.41242 0.981793 7.51134C1.33793 6.63277 1.94673 6.04779 3.14217 4.99558L3.14252 4.99527C3.16124 4.97876 3.1801 4.96213 3.1991 4.94537C3.54273 4.6424 3.93392 4.29749 4.37208 3.89163C4.60802 3.69989 4.84009 3.50276 5.07929 3.29959C5.1074 3.2757 5.13562 3.25174 5.16395 3.22769L5.1644 3.2273C5.91447 2.58902 6.72414 1.90118 7.56266 1.37014C8.4062 0.835916 9.21934 0.5 9.97226 0.5C10.733 0.5 11.5821 0.856764 12.4591 1.41103C13.3279 1.96016 14.1598 2.66049 14.8879 3.27438L14.8882 3.27465L14.9431 3.32088C15.1738 3.51509 15.3967 3.70272 15.6028 3.86943C16.0505 4.28315 16.433 4.62012 16.7681 4.91541C16.798 4.94171 16.8274 4.96768 16.8566 4.99334ZM7.11777 15.7538H12.8832C13.5698 15.7538 14.1268 15.1968 14.1268 14.5102C14.1268 13.8236 13.5698 13.2666 12.8832 13.2666H7.11777C6.43116 13.2666 5.87417 13.8236 5.87417 14.5102C5.87417 15.1968 6.43116 15.7538 7.11777 15.7538Z" stroke="#0056C4"/>
</svg>
