<svg width="184" height="185" viewBox="0 0 184 185" fill="none" xmlns="http://www.w3.org/2000/svg">
<path d="M172.54 41.4124C171.571 37.0903 169.766 33.077 167.125 29.3724C164.484 25.5795 161.183 22.3159 157.221 19.5816C153.26 16.759 148.682 14.5539 143.488 12.9662C138.381 11.3785 132.879 10.5846 126.981 10.5846C118.617 10.5846 111.002 11.9518 104.135 14.6862C97.3566 17.4205 91.5462 21.478 86.7042 26.8585C81.9502 32.1508 78.2527 38.8103 75.6116 46.837C73.0585 54.7755 71.782 64.037 71.782 74.6216C71.782 85.2063 73.0585 94.556 75.6116 102.671C78.2527 110.698 81.9502 117.445 86.7042 122.914C91.5462 128.383 97.3125 132.528 104.003 135.351C110.782 138.174 118.309 139.585 126.585 139.585C139.086 139.585 149.386 136.806 157.485 131.249C165.585 125.604 170.603 117.401 172.54 106.64H183.5C182.444 113.52 180.287 119.695 177.029 125.163C173.772 130.544 169.678 135.086 164.748 138.791C159.818 142.496 154.14 145.318 147.713 147.259C141.287 149.199 134.332 150.169 126.849 150.169C116.637 150.169 107.437 148.405 99.2493 144.877C91.15 141.261 84.2392 136.189 78.5168 129.662C72.7944 123.135 68.3926 115.24 65.3113 105.979C62.2301 96.6289 60.6894 86.1765 60.6894 74.6216C60.6894 63.155 62.2301 52.8349 65.3113 43.6616C68.3926 34.4883 72.7944 26.6821 78.5168 20.2431C84.3272 13.7159 91.2821 8.73232 99.3814 5.29232C107.569 1.76411 116.725 0 126.849 0C133.804 0 140.406 1.01436 146.657 3.04308C152.995 5.0718 158.674 7.93847 163.692 11.6431C168.71 15.2595 172.936 19.6257 176.369 24.7416C179.803 29.7693 182.18 35.3262 183.5 41.4124H172.54Z" fill="#073F73"/>
<path d="M105.679 107.17C105.679 120.296 101.22 130.339 92.3002 137.298C83.469 144.258 70.443 147.738 53.2222 147.738H0.5V3.04018H52.9572C67.5287 3.04018 78.656 5.8152 86.3391 11.3652C94.1105 16.8272 97.9963 25.5928 97.9963 37.6619C97.9963 41.0096 97.643 44.4893 96.9365 48.1013C96.3184 51.6251 95.1261 54.9287 93.3599 58.0121C91.5937 61.0954 89.1651 63.8705 86.0742 66.3372C82.9833 68.7157 79.0092 70.4336 74.1521 71.4908C80.9521 72.1074 86.3833 73.6051 90.4456 75.9837C94.5963 78.2742 97.7755 81.0932 99.9833 84.4409C102.279 87.7885 103.781 91.4886 104.487 95.541C105.282 99.5053 105.679 103.382 105.679 107.17ZM11.0974 137.166H53.0897C80.4664 137.166 94.1547 127.167 94.1547 107.17C94.1547 101.972 93.4482 97.4791 92.0352 93.691C90.6222 89.9028 88.1937 86.8195 84.7495 84.4409C81.3937 81.9742 76.8897 80.1682 71.2378 79.023C65.6741 77.7896 58.6533 77.173 50.1754 77.173H11.0974V137.166ZM11.0974 66.6014H50.0429C62.9365 66.6014 72.43 64.5312 78.5235 60.3907C84.617 56.2502 87.6638 49.2906 87.6638 39.5119C87.6638 30.7023 84.8378 24.1832 79.1859 19.9546C73.5339 15.6379 64.4819 13.4796 52.03 13.4796L11.0974 13.6117V66.6014Z" fill="#073F73"/>
<path d="M169.957 171.099C169.384 172.382 168.493 173.024 167.285 173.024C166.5 173.024 166.108 172.731 166.108 172.146C166.108 171.834 166.214 171.604 166.425 171.454C166.65 171.317 167.055 171.199 167.64 171.099C167.902 171.062 168.126 171.006 168.313 170.931C168.499 170.869 168.668 170.782 168.817 170.67C168.967 170.57 169.097 170.439 169.21 170.277C169.334 170.115 169.452 169.916 169.565 169.679L170.219 168.371L166.631 160.58C166.469 160.231 166.326 159.957 166.201 159.758C166.089 159.546 165.965 159.384 165.828 159.272C165.703 159.147 165.56 159.066 165.398 159.029C165.236 158.979 165.03 158.942 164.781 158.917V158.263H169.733V158.917C168.898 158.917 168.481 159.122 168.481 159.533C168.481 159.695 168.531 159.951 168.63 160.299C168.73 160.648 168.855 161.003 169.004 161.364L171.059 166.335H171.153L172.853 162.131C173.015 161.719 173.146 161.383 173.246 161.122C173.358 160.86 173.439 160.648 173.488 160.486C173.551 160.312 173.588 160.169 173.601 160.056C173.625 159.944 173.638 159.838 173.638 159.739C173.638 159.415 173.544 159.197 173.358 159.085C173.183 158.973 172.841 158.917 172.33 158.917V158.263H176.441V158.917C176.204 158.917 176.005 158.948 175.843 159.01C175.681 159.072 175.513 159.216 175.338 159.44C175.176 159.652 174.989 159.963 174.778 160.374C174.578 160.785 174.329 161.34 174.03 162.037L169.957 171.099Z" fill="#073F73"/>
<path d="M156.225 165.232C156.225 165.743 156.237 166.148 156.262 166.447C156.287 166.733 156.349 166.957 156.449 167.119C156.561 167.269 156.717 167.368 156.916 167.418C157.128 167.468 157.414 167.505 157.776 167.53V168.166H152.88V167.53C153.229 167.505 153.503 167.468 153.702 167.418C153.914 167.368 154.076 167.269 154.188 167.119C154.3 166.97 154.369 166.758 154.394 166.484C154.431 166.21 154.45 165.836 154.45 165.363V162.878C154.45 161.395 154.412 160.492 154.338 160.168C154.3 160.006 154.25 159.876 154.188 159.776C154.138 159.664 154.057 159.583 153.945 159.533C153.833 159.471 153.69 159.433 153.515 159.421C153.341 159.396 153.117 159.384 152.843 159.384V158.786L155.832 158.076L156.057 159.926H156.131C156.605 159.34 157.159 158.885 157.794 158.561C158.43 158.238 159.121 158.076 159.868 158.076C160.441 158.076 160.965 158.169 161.438 158.356C161.911 158.543 162.273 158.798 162.522 159.122C162.733 159.409 162.883 159.782 162.97 160.243C163.057 160.692 163.101 161.314 163.101 162.112V165.232C163.101 165.743 163.113 166.148 163.138 166.447C163.176 166.733 163.244 166.957 163.344 167.119C163.443 167.269 163.593 167.368 163.792 167.418C164.004 167.468 164.278 167.505 164.614 167.53V168.166H159.775V167.53C160.124 167.518 160.398 167.487 160.597 167.437C160.809 167.375 160.965 167.269 161.064 167.119C161.176 166.97 161.245 166.758 161.27 166.484C161.307 166.197 161.326 165.824 161.326 165.363V162.896C161.326 162.186 161.288 161.588 161.214 161.103C161.139 160.617 161.014 160.224 160.84 159.926C160.678 159.627 160.46 159.415 160.186 159.29C159.912 159.153 159.582 159.085 159.196 159.085C158.635 159.085 158.118 159.234 157.645 159.533C157.184 159.82 156.823 160.218 156.561 160.729C156.499 160.854 156.443 160.972 156.393 161.084C156.356 161.196 156.324 161.327 156.3 161.476C156.275 161.626 156.256 161.8 156.243 162C156.231 162.186 156.225 162.429 156.225 162.728V165.232Z" fill="#073F73"/>
<path d="M148.364 162.635C147.654 162.909 147.049 163.177 146.551 163.438C146.065 163.7 145.673 163.961 145.374 164.223C145.075 164.485 144.857 164.746 144.72 165.008C144.595 165.269 144.533 165.537 144.533 165.811C144.533 166.222 144.67 166.559 144.944 166.82C145.218 167.082 145.58 167.213 146.028 167.213C146.352 167.213 146.651 167.132 146.925 166.97C147.211 166.808 147.461 166.59 147.672 166.316C147.884 166.029 148.052 165.699 148.177 165.326C148.301 164.939 148.364 164.534 148.364 164.111V162.635ZM148.364 161.831V161.065C148.364 159.546 147.716 158.786 146.42 158.786C146.209 158.786 146.028 158.804 145.879 158.842C145.729 158.879 145.604 158.941 145.505 159.029C145.405 159.116 145.312 159.24 145.225 159.402C145.15 159.564 145.075 159.764 145 160C144.863 160.361 144.726 160.604 144.589 160.729C144.465 160.841 144.278 160.897 144.029 160.897C143.406 160.897 143.094 160.586 143.094 159.963C143.094 159.365 143.412 158.904 144.047 158.58C144.683 158.244 145.586 158.076 146.757 158.076C148.002 158.076 148.887 158.3 149.41 158.748C149.933 159.184 150.195 159.932 150.195 160.991V165.176C150.195 166.596 150.475 167.306 151.036 167.306C151.21 167.306 151.378 167.287 151.54 167.25C151.702 167.2 151.839 167.082 151.951 166.895L152.213 167.343C152.063 167.63 151.789 167.873 151.391 168.072C150.992 168.259 150.575 168.352 150.139 168.352C149.591 168.352 149.18 168.178 148.906 167.829C148.644 167.481 148.513 166.988 148.513 166.353H148.42C148.096 166.964 147.647 167.449 147.074 167.811C146.501 168.159 145.866 168.334 145.168 168.334C144.384 168.334 143.767 168.134 143.319 167.736C142.87 167.337 142.646 166.802 142.646 166.129C142.646 165.83 142.696 165.543 142.795 165.269C142.908 164.995 143.082 164.734 143.319 164.485C143.555 164.236 143.867 163.993 144.253 163.756C144.639 163.507 145.112 163.258 145.673 163.009L148.364 161.831Z" fill="#073F73"/>
<path d="M133.085 159.608H133.159C133.558 159.135 133.988 158.761 134.449 158.487C134.91 158.213 135.445 158.076 136.056 158.076C136.766 158.076 137.413 158.206 137.999 158.468C138.597 158.717 139.114 159.072 139.55 159.533C139.986 159.994 140.322 160.542 140.559 161.177C140.808 161.8 140.932 162.485 140.932 163.233C140.932 163.993 140.808 164.69 140.559 165.326C140.31 165.948 139.967 166.484 139.531 166.932C139.095 167.381 138.578 167.73 137.98 167.979C137.382 168.228 136.734 168.352 136.037 168.352C135.464 168.352 134.941 168.259 134.467 168.072C134.006 167.873 133.57 167.555 133.159 167.119V169.847C133.159 170.346 133.184 170.744 133.234 171.043C133.284 171.342 133.384 171.573 133.533 171.734C133.683 171.896 133.894 172.009 134.168 172.071C134.455 172.133 134.829 172.17 135.29 172.183V172.837H129.535V172.183C129.908 172.17 130.207 172.133 130.431 172.071C130.668 172.009 130.849 171.896 130.973 171.734C131.11 171.573 131.204 171.348 131.254 171.062C131.303 170.788 131.328 170.427 131.328 169.978V162.99C131.328 162.267 131.316 161.676 131.291 161.215C131.278 160.754 131.247 160.436 131.197 160.262C131.135 159.963 130.992 159.764 130.768 159.664C130.544 159.552 130.12 159.496 129.497 159.496V158.86L133.085 158.15V159.608ZM133.645 160.15C133.483 160.399 133.359 160.698 133.272 161.047C133.197 161.383 133.159 161.825 133.159 162.373V163.831C133.159 164.167 133.166 164.46 133.178 164.709C133.203 164.946 133.234 165.151 133.272 165.326C133.309 165.5 133.359 165.656 133.421 165.793C133.483 165.93 133.564 166.06 133.664 166.185C133.95 166.584 134.293 166.895 134.692 167.119C135.09 167.331 135.508 167.437 135.944 167.437C136.803 167.437 137.494 167.076 138.018 166.353C138.553 165.631 138.821 164.615 138.821 163.308C138.821 162.66 138.746 162.074 138.597 161.551C138.46 161.015 138.26 160.561 137.999 160.187C137.737 159.801 137.42 159.502 137.046 159.29C136.685 159.078 136.28 158.973 135.831 158.973C135.383 158.973 134.966 159.078 134.579 159.29C134.206 159.49 133.894 159.776 133.645 160.15Z" fill="#073F73"/>
<path d="M113.236 165.176C113.236 165.699 113.249 166.11 113.274 166.409C113.299 166.708 113.361 166.939 113.461 167.101C113.573 167.25 113.729 167.35 113.928 167.4C114.127 167.449 114.407 167.487 114.769 167.512V168.166H109.798V167.512C110.16 167.487 110.446 167.449 110.658 167.4C110.87 167.35 111.032 167.25 111.144 167.101C111.256 166.951 111.324 166.739 111.349 166.465C111.387 166.179 111.405 165.799 111.405 165.326V162.934C111.405 162.224 111.393 161.632 111.368 161.159C111.356 160.685 111.324 160.361 111.275 160.187C111.237 160.025 111.194 159.901 111.144 159.813C111.094 159.714 111.013 159.639 110.901 159.589C110.789 159.527 110.639 159.49 110.452 159.477C110.278 159.452 110.048 159.44 109.761 159.44V158.786L112.807 158.076L113.05 159.944H113.143C113.704 159.309 114.289 158.842 114.899 158.543C115.522 158.231 116.207 158.076 116.955 158.076C117.74 158.076 118.4 158.238 118.935 158.561C119.471 158.873 119.845 159.328 120.057 159.926H120.131C120.592 159.34 121.153 158.885 121.813 158.561C122.473 158.238 123.177 158.076 123.924 158.076C124.51 158.076 125.039 158.175 125.513 158.375C125.998 158.562 126.366 158.823 126.615 159.159C126.839 159.446 126.995 159.826 127.082 160.299C127.182 160.76 127.232 161.395 127.232 162.205V165.176C127.232 165.687 127.244 166.092 127.269 166.391C127.306 166.69 127.375 166.92 127.475 167.082C127.574 167.244 127.724 167.35 127.923 167.4C128.135 167.449 128.421 167.487 128.783 167.512V168.166H123.812V167.512C124.161 167.499 124.441 167.468 124.653 167.418C124.865 167.356 125.027 167.25 125.139 167.101C125.251 166.939 125.32 166.721 125.344 166.447C125.382 166.173 125.4 165.799 125.4 165.326V162.971C125.4 162.261 125.363 161.663 125.288 161.177C125.214 160.679 125.089 160.281 124.915 159.982C124.74 159.67 124.51 159.446 124.223 159.309C123.949 159.172 123.613 159.103 123.214 159.103C122.666 159.103 122.149 159.259 121.663 159.57C121.19 159.869 120.816 160.274 120.542 160.785C120.48 160.91 120.424 161.034 120.374 161.159C120.337 161.271 120.306 161.402 120.281 161.551C120.256 161.688 120.237 161.856 120.225 162.056C120.225 162.255 120.225 162.504 120.225 162.803V165.176C120.225 165.687 120.237 166.092 120.262 166.391C120.287 166.69 120.349 166.92 120.449 167.082C120.561 167.244 120.723 167.35 120.935 167.4C121.147 167.449 121.433 167.487 121.794 167.512V168.166H116.824V167.512C117.173 167.487 117.453 167.449 117.665 167.4C117.877 167.35 118.032 167.25 118.132 167.101C118.244 166.951 118.313 166.739 118.338 166.465C118.375 166.179 118.394 165.799 118.394 165.326V162.971C118.394 162.249 118.356 161.645 118.281 161.159C118.207 160.66 118.082 160.262 117.908 159.963C117.746 159.651 117.528 159.433 117.254 159.309C116.98 159.172 116.643 159.103 116.245 159.103C115.684 159.103 115.155 159.259 114.657 159.57C114.171 159.869 113.803 160.274 113.554 160.785C113.492 160.91 113.436 161.034 113.386 161.159C113.349 161.271 113.317 161.402 113.293 161.551C113.268 161.688 113.249 161.856 113.236 162.056C113.236 162.255 113.236 162.504 113.236 162.803V165.176Z" fill="#073F73"/>
<path d="M102.954 158.076C103.664 158.076 104.337 158.206 104.972 158.468C105.608 158.717 106.162 159.066 106.635 159.514C107.121 159.963 107.501 160.499 107.775 161.121C108.062 161.732 108.205 162.404 108.205 163.139C108.205 163.899 108.062 164.597 107.775 165.232C107.501 165.867 107.121 166.415 106.635 166.876C106.162 167.337 105.608 167.699 104.972 167.96C104.337 168.222 103.664 168.352 102.954 168.352C102.257 168.352 101.59 168.228 100.955 167.979C100.332 167.717 99.784 167.356 99.3107 166.895C98.8373 166.434 98.4636 165.886 98.1896 165.251C97.9155 164.603 97.7785 163.899 97.7785 163.139C97.7785 162.404 97.9155 161.725 98.1896 161.103C98.4636 160.48 98.8373 159.944 99.3107 159.496C99.784 159.047 100.332 158.699 100.955 158.449C101.59 158.2 102.257 158.076 102.954 158.076ZM102.954 158.973C102.493 158.973 102.07 159.072 101.684 159.272C101.31 159.471 100.986 159.757 100.712 160.131C100.45 160.492 100.245 160.935 100.095 161.458C99.9584 161.968 99.8899 162.535 99.8899 163.158C99.8899 163.806 99.9584 164.391 100.095 164.914C100.245 165.438 100.45 165.886 100.712 166.26C100.986 166.621 101.31 166.901 101.684 167.101C102.057 167.3 102.481 167.4 102.954 167.4C103.428 167.4 103.857 167.3 104.244 167.101C104.63 166.901 104.96 166.615 105.234 166.241C105.508 165.867 105.72 165.419 105.869 164.896C106.019 164.373 106.093 163.793 106.093 163.158C106.093 162.535 106.019 161.968 105.869 161.458C105.72 160.947 105.508 160.511 105.234 160.15C104.96 159.776 104.63 159.49 104.244 159.29C103.857 159.078 103.428 158.973 102.954 158.973Z" fill="#073F73"/>
<path d="M94.7748 153.778H95.298L95.4661 158.076H94.7748C94.5007 156.98 93.9713 156.12 93.1866 155.497C92.4018 154.874 91.4551 154.563 90.3464 154.563C89.5866 154.563 88.9077 154.712 88.3097 155.011C87.7118 155.31 87.2073 155.74 86.7962 156.301C86.3852 156.861 86.0675 157.546 85.8433 158.356C85.6315 159.166 85.5257 160.081 85.5257 161.103C85.5257 163.108 85.943 164.653 86.7776 165.737C87.6122 166.808 88.8205 167.344 90.4025 167.344C92.8066 167.344 94.3513 166.067 95.0364 163.513H95.8025V168.166H95.1485L94.7187 166.69C93.4108 167.798 91.8288 168.353 89.9727 168.353C88.9139 168.353 87.9547 168.184 87.0952 167.848C86.2481 167.512 85.5194 167.038 84.9091 166.428C84.3111 165.805 83.844 165.052 83.5077 164.167C83.1838 163.283 83.0219 162.299 83.0219 161.215C83.0219 160.081 83.1963 159.047 83.545 158.113C83.8938 157.179 84.3796 156.375 85.0025 155.703C85.6378 155.03 86.3914 154.513 87.2634 154.152C88.1478 153.778 89.1194 153.591 90.1783 153.591C90.9257 153.591 91.6295 153.697 92.2897 153.909C92.9499 154.121 93.6661 154.463 94.4385 154.937L94.7748 153.778Z" fill="#073F73"/>
<path d="M67.6895 165.232C67.6895 165.743 67.7019 166.148 67.7268 166.447C67.7517 166.733 67.814 166.957 67.9137 167.119C68.0258 167.269 68.1815 167.368 68.3808 167.418C68.5926 167.468 68.8791 167.505 69.2403 167.53V168.166H64.3448V167.53C64.6936 167.505 64.9677 167.468 65.167 167.418C65.3787 167.368 65.5407 167.269 65.6528 167.119C65.7649 166.97 65.8334 166.758 65.8583 166.484C65.8957 166.21 65.9144 165.836 65.9144 165.363V162.878C65.9144 161.395 65.877 160.492 65.8023 160.168C65.7649 160.006 65.7151 159.876 65.6528 159.776C65.603 159.664 65.522 159.583 65.4099 159.533C65.2978 159.471 65.1545 159.433 64.9801 159.421C64.8057 159.396 64.5815 159.384 64.3075 159.384V158.786L67.2971 158.076L67.5213 159.926H67.596C68.0694 159.34 68.6237 158.885 69.259 158.561C69.8943 158.238 70.5856 158.076 71.3331 158.076C71.9061 158.076 72.4292 158.169 72.9026 158.356C73.376 158.543 73.7372 158.798 73.9863 159.122C74.1981 159.409 74.3476 159.782 74.4348 160.243C74.522 160.692 74.5656 161.314 74.5656 162.112V165.232C74.5656 165.743 74.578 166.148 74.6029 166.447C74.6403 166.733 74.7088 166.957 74.8085 167.119C74.9081 167.269 75.0576 167.368 75.2569 167.418C75.4687 167.468 75.7427 167.505 76.0791 167.53V168.166H71.2396V167.53C71.5884 167.518 71.8625 167.487 72.0618 167.437C72.2735 167.375 72.4292 167.269 72.5289 167.119C72.641 166.97 72.7095 166.758 72.7344 166.484C72.7718 166.197 72.7905 165.824 72.7905 165.363V162.896C72.7905 162.186 72.7531 161.588 72.6784 161.103C72.6036 160.617 72.4791 160.224 72.3047 159.926C72.1427 159.627 71.9248 159.415 71.6507 159.29C71.3767 159.153 71.0466 159.085 70.6604 159.085C70.0998 159.085 69.5829 159.234 69.1095 159.533C68.6486 159.82 68.2874 160.218 68.0258 160.729C67.9635 160.854 67.9075 160.972 67.8576 161.084C67.8203 161.196 67.7891 161.327 67.7642 161.476C67.7393 161.626 67.7206 161.8 67.7081 162C67.6957 162.186 67.6895 162.429 67.6895 162.728V165.232Z" fill="#073F73"/>
<path d="M61.5454 165.195C61.5454 165.681 61.5641 166.073 61.6015 166.372C61.6513 166.659 61.7385 166.889 61.8631 167.063C61.9876 167.225 62.162 167.338 62.3862 167.4C62.6105 167.462 62.9094 167.499 63.2831 167.512V168.166H57.9205V167.512C58.2942 167.499 58.5994 167.462 58.8361 167.4C59.0728 167.325 59.2534 167.213 59.3779 167.063C59.515 166.902 59.6022 166.684 59.6395 166.41C59.6894 166.123 59.7143 165.762 59.7143 165.326V162.934C59.7143 162.212 59.7018 161.62 59.6769 161.159C59.6645 160.686 59.6333 160.362 59.5835 160.187C59.5212 159.901 59.3779 159.708 59.1537 159.608C58.9295 159.496 58.506 159.44 57.8831 159.44V158.786L61.5454 158.076V165.195ZM59.3966 154.283C59.3966 153.959 59.5087 153.685 59.733 153.461C59.9572 153.237 60.2312 153.124 60.5551 153.124C60.879 153.124 61.153 153.237 61.3773 153.461C61.6015 153.685 61.7136 153.959 61.7136 154.283C61.7136 154.607 61.6015 154.881 61.3773 155.105C61.153 155.329 60.879 155.441 60.5551 155.441C60.2312 155.441 59.9572 155.329 59.733 155.105C59.5087 154.881 59.3966 154.607 59.3966 154.283Z" fill="#073F73"/>
<path d="M53.4601 162.635C52.7501 162.909 52.1459 163.177 51.6477 163.438C51.1618 163.7 50.7695 163.961 50.4705 164.223C50.1715 164.485 49.9535 164.746 49.8165 165.008C49.6919 165.269 49.6297 165.537 49.6297 165.811C49.6297 166.222 49.7667 166.559 50.0407 166.82C50.3148 167.082 50.676 167.213 51.1245 167.213C51.4483 167.213 51.7473 167.132 52.0214 166.97C52.3079 166.808 52.557 166.59 52.7688 166.316C52.9805 166.029 53.1487 165.699 53.2733 165.326C53.3978 164.939 53.4601 164.534 53.4601 164.111V162.635ZM53.4601 161.831V161.065C53.4601 159.546 52.8124 158.786 51.5169 158.786C51.3051 158.786 51.1245 158.804 50.975 158.842C50.8255 158.879 50.7009 158.941 50.6013 159.029C50.5016 159.116 50.4082 159.24 50.321 159.402C50.2463 159.564 50.1715 159.764 50.0968 160C49.9598 160.361 49.8227 160.604 49.6857 160.729C49.5611 160.841 49.3743 160.897 49.1252 160.897C48.5023 160.897 48.1909 160.586 48.1909 159.963C48.1909 159.365 48.5086 158.904 49.1439 158.58C49.7791 158.244 50.6823 158.076 51.8532 158.076C53.0989 158.076 53.9833 158.3 54.5065 158.748C55.0297 159.184 55.2912 159.932 55.2912 160.991V165.176C55.2912 166.596 55.5715 167.306 56.1321 167.306C56.3065 167.306 56.4746 167.287 56.6366 167.25C56.7985 167.2 56.9355 167.082 57.0476 166.895L57.3092 167.343C57.1598 167.63 56.8857 167.873 56.4871 168.072C56.0885 168.259 55.6712 168.352 55.2352 168.352C54.6871 168.352 54.276 168.178 54.002 167.829C53.7404 167.481 53.6096 166.988 53.6096 166.353H53.5162C53.1923 166.964 52.7438 167.449 52.1708 167.811C51.5978 168.159 50.9625 168.334 50.265 168.334C49.4802 168.334 48.8636 168.134 48.4151 167.736C47.9667 167.337 47.7425 166.802 47.7425 166.129C47.7425 165.83 47.7923 165.543 47.8919 165.269C48.0041 164.995 48.1785 164.734 48.4151 164.485C48.6518 164.236 48.9632 163.993 49.3494 163.756C49.7355 163.507 50.2089 163.258 50.7695 163.009L53.4601 161.831Z" fill="#073F73"/>
<path d="M42.1826 165.195C42.1826 165.705 42.195 166.11 42.22 166.409C42.2449 166.708 42.3072 166.939 42.4068 167.101C42.5189 167.25 42.6746 167.35 42.8739 167.4C43.0732 167.449 43.3535 167.487 43.7148 167.512V168.166H38.7445V167.512C39.1058 167.499 39.3923 167.468 39.604 167.418C39.8158 167.356 39.9777 167.25 40.0899 167.101C40.202 166.951 40.2705 166.739 40.2954 166.465C40.3328 166.179 40.3514 165.799 40.3514 165.326V163.139C40.3514 162.292 40.339 161.632 40.3141 161.159C40.3016 160.685 40.2393 160.337 40.1272 160.112C40.0276 159.888 39.8656 159.757 39.6414 159.72C39.4172 159.67 39.1058 159.645 38.7072 159.645V158.991L41.977 158.281L42.2386 160.598H42.3134C42.4753 160.224 42.6746 159.882 42.9113 159.57C43.1604 159.259 43.4283 158.997 43.7148 158.786C44.0013 158.561 44.3002 158.387 44.6116 158.263C44.9231 158.138 45.2407 158.076 45.5646 158.076C45.9632 158.076 46.2746 158.175 46.4988 158.375C46.7355 158.562 46.8539 158.817 46.8539 159.141C46.8539 159.44 46.7604 159.676 46.5736 159.851C46.3867 160.013 46.1189 160.094 45.7701 160.094C45.5708 160.094 45.4027 160.069 45.2656 160.019C45.1286 159.969 45.004 159.919 44.8919 159.869C44.7923 159.807 44.6926 159.751 44.593 159.701C44.5058 159.651 44.4061 159.627 44.294 159.627C43.9577 159.627 43.6213 159.845 43.285 160.281C42.9487 160.704 42.6871 161.246 42.5002 161.906C42.4006 162.267 42.3196 162.678 42.2573 163.139C42.2075 163.588 42.1826 164.061 42.1826 164.559V165.195Z" fill="#073F73"/>
<path d="M29.0567 165.195C29.0567 165.705 29.0691 166.11 29.0941 166.409C29.119 166.708 29.1813 166.939 29.2809 167.101C29.393 167.25 29.5487 167.35 29.748 167.4C29.9473 167.449 30.2276 167.487 30.5889 167.512V168.166H25.6186V167.512C25.9799 167.487 26.2664 167.449 26.4781 167.4C26.6899 167.35 26.8518 167.25 26.964 167.101C27.0761 166.951 27.1446 166.739 27.1695 166.465C27.2069 166.179 27.2256 165.799 27.2256 165.326V157.496C27.2256 156.762 27.2131 156.176 27.1882 155.74C27.1757 155.304 27.1446 154.974 27.0948 154.75C27.0698 154.6 27.0262 154.482 26.964 154.395C26.9141 154.295 26.8332 154.22 26.7211 154.171C26.6089 154.108 26.4595 154.065 26.2726 154.04C26.0858 154.015 25.8553 154.002 25.5813 154.002V153.367L29.0193 152.657V159.776H29.0941C29.2809 159.527 29.5114 159.303 29.7854 159.103C30.0719 158.892 30.3771 158.711 30.701 158.562C31.0249 158.412 31.3612 158.294 31.71 158.207C32.0712 158.119 32.42 158.076 32.7563 158.076C33.3293 158.076 33.8525 158.175 34.3259 158.375C34.8117 158.574 35.1854 158.842 35.447 159.178C35.6588 159.465 35.8145 159.845 35.9141 160.318C36.0138 160.779 36.0636 161.408 36.0636 162.205V165.195C36.0636 165.705 36.0761 166.11 36.101 166.409C36.1259 166.696 36.1882 166.92 36.2878 167.082C36.3999 167.244 36.5556 167.35 36.7549 167.4C36.9543 167.449 37.2345 167.487 37.5958 167.512V168.166H32.6442V167.512C32.993 167.499 33.2733 167.468 33.4851 167.418C33.6968 167.356 33.8525 167.25 33.9522 167.101C34.0643 166.951 34.1328 166.739 34.1577 166.465C34.1951 166.179 34.2138 165.799 34.2138 165.326V162.971C34.2138 161.576 34.0518 160.586 33.728 160C33.4041 159.402 32.8622 159.103 32.1024 159.103C31.5169 159.103 30.9813 159.253 30.4954 159.552C30.0221 159.851 29.6484 160.262 29.3743 160.785C29.3121 160.922 29.256 161.053 29.2062 161.177C29.1688 161.29 29.1377 161.42 29.1127 161.57C29.0878 161.719 29.0691 161.894 29.0567 162.093C29.0567 162.28 29.0567 162.517 29.0567 162.803V165.195Z" fill="#073F73"/>
<path d="M21.3451 162.635C20.635 162.909 20.0309 163.177 19.5326 163.438C19.0468 163.7 18.6544 163.961 18.3554 164.223C18.0565 164.485 17.8385 164.746 17.7015 165.008C17.5769 165.269 17.5146 165.537 17.5146 165.811C17.5146 166.222 17.6516 166.559 17.9257 166.82C18.1997 167.082 18.561 167.213 19.0094 167.213C19.3333 167.213 19.6323 167.132 19.9063 166.97C20.1928 166.808 20.442 166.59 20.6537 166.316C20.8655 166.029 21.0336 165.699 21.1582 165.326C21.2828 164.939 21.3451 164.534 21.3451 164.111V162.635ZM21.3451 161.831V161.065C21.3451 159.546 20.6973 158.786 19.4018 158.786C19.19 158.786 19.0094 158.804 18.8599 158.842C18.7105 158.879 18.5859 158.941 18.4862 159.029C18.3866 159.116 18.2932 159.24 18.206 159.402C18.1312 159.564 18.0565 159.764 17.9817 160C17.8447 160.361 17.7077 160.604 17.5707 160.729C17.4461 160.841 17.2593 160.897 17.0101 160.897C16.3873 160.897 16.0759 160.586 16.0759 159.963C16.0759 159.365 16.3935 158.904 17.0288 158.58C17.6641 158.244 18.5672 158.076 19.7381 158.076C20.9838 158.076 21.8682 158.3 22.3914 158.748C22.9146 159.184 23.1762 159.932 23.1762 160.991V165.176C23.1762 166.596 23.4565 167.306 24.017 167.306C24.1914 167.306 24.3596 167.287 24.5215 167.25C24.6835 167.2 24.8205 167.082 24.9326 166.895L25.1942 167.343C25.0447 167.63 24.7707 167.873 24.372 168.072C23.9734 168.259 23.5561 168.352 23.1201 168.352C22.5721 168.352 22.161 168.178 21.8869 167.829C21.6253 167.481 21.4945 166.988 21.4945 166.353H21.4011C21.0772 166.964 20.6288 167.449 20.0558 167.811C19.4828 168.159 18.8475 168.334 18.1499 168.334C17.3651 168.334 16.7485 168.134 16.3001 167.736C15.8516 167.337 15.6274 166.802 15.6274 166.129C15.6274 165.83 15.6772 165.543 15.7769 165.269C15.889 164.995 16.0634 164.734 16.3001 164.485C16.5368 164.236 16.8482 163.993 17.2343 163.756C17.6205 163.507 18.0939 163.258 18.6544 163.009L21.3451 161.831Z" fill="#073F73"/>
<path d="M1.21011 168.166V167.456C1.69592 167.443 2.08208 167.406 2.36858 167.344C2.66754 167.281 2.89177 167.176 3.04125 167.026C3.20318 166.877 3.30907 166.665 3.35889 166.391C3.42118 166.117 3.45232 165.762 3.45232 165.326V156.619C3.45232 156.183 3.42741 155.834 3.37758 155.572C3.34021 155.298 3.25301 155.086 3.11599 154.937C2.99142 154.775 2.80457 154.669 2.55543 154.619C2.3063 154.557 1.98242 154.513 1.58381 154.488V153.778H7.17065C8.85231 153.778 10.1603 154.077 11.0945 154.675C12.0288 155.273 12.4959 156.114 12.4959 157.198C12.4959 158.02 12.2343 158.693 11.7111 159.216C11.2004 159.739 10.3845 160.169 9.26338 160.505V160.58C9.64954 160.617 9.98587 160.661 10.2724 160.711C10.5589 160.76 10.8142 160.823 11.0385 160.897C11.2627 160.96 11.4682 161.041 11.6551 161.14C11.8544 161.24 12.0475 161.352 12.2343 161.477C13.343 162.261 13.8973 163.246 13.8973 164.429C13.8973 165.089 13.7104 165.706 13.3367 166.279C12.9755 166.839 12.4648 167.281 11.8046 167.605C11.5928 167.717 11.3748 167.811 11.1506 167.886C10.9264 167.948 10.6648 168.004 10.3658 168.054C10.0668 168.091 9.71805 168.122 9.31944 168.147C8.93328 168.16 8.47238 168.166 7.93674 168.166H1.21011ZM7.9928 167.362C10.2475 167.362 11.3748 166.397 11.3748 164.466C11.3748 163.059 10.7956 162.075 9.63709 161.514C9.43778 161.427 9.2447 161.352 9.05785 161.29C8.871 161.228 8.653 161.184 8.40387 161.159C8.15474 161.122 7.85577 161.097 7.50699 161.084C7.17065 161.072 6.75335 161.066 6.25508 161.066H5.41425V165.232C5.41425 165.992 5.61356 166.54 6.01218 166.877C6.41079 167.201 7.071 167.362 7.9928 167.362ZM6.46062 160.131C6.84678 160.131 7.17065 160.125 7.43224 160.113C7.69384 160.1 7.91806 160.082 8.10491 160.057C8.29176 160.019 8.4537 159.976 8.59072 159.926C8.7402 159.864 8.88968 159.783 9.03916 159.683C9.43778 159.434 9.71805 159.135 9.87999 158.786C10.0544 158.437 10.1416 157.983 10.1416 157.422C10.1416 156.438 9.89868 155.734 9.41286 155.311C8.93951 154.875 8.19211 154.657 7.17065 154.657H5.7319C5.52014 154.657 5.41425 154.762 5.41425 154.974V160.131H6.46062Z" fill="#073F73"/>
<path d="M166.815 182.321H166.603V180.666H166.844C167.094 181.57 167.55 182.023 168.211 182.023C168.468 182.023 168.67 181.962 168.817 181.84C168.971 181.712 169.048 181.519 169.048 181.262C169.048 181.166 169.032 181.086 169 181.022C168.975 180.951 168.92 180.881 168.837 180.81C168.76 180.733 168.647 180.646 168.5 180.55C168.358 180.454 168.169 180.332 167.932 180.184C167.714 180.05 167.524 179.925 167.364 179.809C167.203 179.693 167.069 179.578 166.96 179.462C166.85 179.341 166.767 179.212 166.709 179.077C166.658 178.943 166.632 178.785 166.632 178.606C166.632 178.388 166.668 178.189 166.738 178.009C166.815 177.823 166.918 177.666 167.046 177.537C167.174 177.409 167.325 177.31 167.499 177.239C167.672 177.162 167.861 177.123 168.066 177.123C168.24 177.123 168.419 177.152 168.606 177.21C168.792 177.261 168.955 177.332 169.096 177.422L169.289 177.22H169.472V178.606H169.222C169.08 178.214 168.926 177.935 168.76 177.768C168.593 177.602 168.387 177.518 168.143 177.518C167.925 177.518 167.749 177.576 167.614 177.691C167.486 177.807 167.422 177.967 167.422 178.173C167.422 178.282 167.438 178.378 167.47 178.461C167.508 178.538 167.566 178.615 167.643 178.692C167.72 178.769 167.816 178.85 167.932 178.933C168.054 179.01 168.198 179.1 168.365 179.203C168.641 179.376 168.875 179.53 169.068 179.665C169.266 179.799 169.427 179.934 169.549 180.069C169.671 180.197 169.761 180.332 169.818 180.473C169.876 180.614 169.905 180.775 169.905 180.954C169.905 181.41 169.757 181.769 169.462 182.033C169.167 182.289 168.779 182.418 168.298 182.418C167.797 182.418 167.367 182.273 167.008 181.984L166.815 182.321Z" fill="#073F73"/>
<path d="M164.869 180.82C164.869 181.064 164.879 181.259 164.898 181.407C164.917 181.554 164.956 181.67 165.013 181.753C165.078 181.837 165.164 181.895 165.273 181.927C165.389 181.959 165.54 181.978 165.726 181.984V182.321H163.069V181.984C163.262 181.978 163.416 181.959 163.531 181.927C163.647 181.888 163.736 181.83 163.801 181.753C163.871 181.676 163.916 181.57 163.935 181.436C163.961 181.295 163.974 181.112 163.974 180.887V176.738C163.974 176.392 163.967 176.103 163.955 175.872C163.948 175.635 163.935 175.474 163.916 175.391C163.884 175.243 163.807 175.144 163.685 175.092C163.57 175.041 163.358 175.015 163.05 175.015V174.688L164.869 174.332V180.82Z" fill="#073F73"/>
<path d="M160.887 179.472C160.521 179.613 160.21 179.751 159.953 179.886C159.703 180.021 159.501 180.156 159.346 180.29C159.192 180.425 159.08 180.56 159.01 180.695C158.945 180.829 158.913 180.967 158.913 181.108C158.913 181.32 158.984 181.493 159.125 181.628C159.266 181.763 159.452 181.83 159.683 181.83C159.85 181.83 160.004 181.789 160.145 181.705C160.293 181.622 160.421 181.51 160.53 181.368C160.64 181.221 160.726 181.051 160.79 180.858C160.855 180.659 160.887 180.451 160.887 180.233V179.472ZM160.887 179.058V178.664C160.887 177.881 160.553 177.489 159.886 177.489C159.776 177.489 159.683 177.499 159.606 177.518C159.529 177.537 159.465 177.569 159.414 177.614C159.363 177.659 159.314 177.723 159.269 177.807C159.231 177.89 159.192 177.993 159.154 178.115C159.083 178.301 159.013 178.426 158.942 178.49C158.878 178.548 158.782 178.577 158.653 178.577C158.333 178.577 158.172 178.417 158.172 178.096C158.172 177.788 158.336 177.55 158.663 177.383C158.99 177.21 159.456 177.123 160.059 177.123C160.701 177.123 161.156 177.239 161.426 177.47C161.695 177.695 161.83 178.08 161.83 178.625V180.781C161.83 181.513 161.974 181.879 162.263 181.879C162.353 181.879 162.44 181.869 162.523 181.85C162.606 181.824 162.677 181.763 162.735 181.667L162.869 181.898C162.792 182.045 162.651 182.17 162.446 182.273C162.241 182.369 162.026 182.418 161.801 182.418C161.519 182.418 161.307 182.328 161.166 182.148C161.031 181.968 160.964 181.715 160.964 181.388H160.915C160.749 181.702 160.518 181.952 160.222 182.138C159.927 182.318 159.6 182.408 159.241 182.408C158.836 182.408 158.519 182.305 158.288 182.1C158.057 181.895 157.941 181.619 157.941 181.272C157.941 181.118 157.967 180.97 158.018 180.829C158.076 180.688 158.166 180.553 158.288 180.425C158.41 180.297 158.57 180.172 158.769 180.05C158.968 179.921 159.212 179.793 159.501 179.665L160.887 179.058Z" fill="#073F73"/>
<path d="M152.97 180.81C152.97 181.073 152.976 181.282 152.989 181.436C153.002 181.583 153.034 181.699 153.086 181.782C153.143 181.859 153.224 181.911 153.326 181.936C153.435 181.962 153.583 181.981 153.769 181.994V182.321H151.247V181.994C151.427 181.981 151.568 181.962 151.671 181.936C151.78 181.911 151.863 181.859 151.921 181.782C151.979 181.705 152.014 181.596 152.027 181.455C152.046 181.314 152.056 181.121 152.056 180.877V179.597C152.056 178.834 152.036 178.368 151.998 178.202C151.979 178.118 151.953 178.051 151.921 177.999C151.895 177.942 151.853 177.9 151.796 177.874C151.738 177.842 151.664 177.823 151.574 177.816C151.484 177.804 151.369 177.797 151.228 177.797V177.489L152.768 177.123L152.883 178.076H152.922C153.166 177.775 153.451 177.541 153.779 177.374C154.106 177.207 154.462 177.123 154.847 177.123C155.142 177.123 155.412 177.172 155.656 177.268C155.899 177.364 156.086 177.496 156.214 177.662C156.323 177.81 156.4 178.003 156.445 178.24C156.49 178.471 156.512 178.792 156.512 179.203V180.81C156.512 181.073 156.519 181.282 156.532 181.436C156.551 181.583 156.586 181.699 156.637 181.782C156.689 181.859 156.766 181.911 156.868 181.936C156.978 181.962 157.119 181.981 157.292 181.994V182.321H154.799V181.994C154.979 181.988 155.12 181.972 155.222 181.946C155.332 181.914 155.412 181.859 155.463 181.782C155.521 181.705 155.556 181.596 155.569 181.455C155.588 181.307 155.598 181.115 155.598 180.877V179.607C155.598 179.241 155.579 178.933 155.54 178.683C155.502 178.433 155.437 178.23 155.348 178.076C155.264 177.922 155.152 177.813 155.011 177.749C154.87 177.679 154.699 177.643 154.501 177.643C154.212 177.643 153.945 177.72 153.702 177.874C153.464 178.022 153.278 178.227 153.143 178.49C153.111 178.554 153.082 178.615 153.057 178.673C153.037 178.731 153.021 178.798 153.009 178.875C152.996 178.952 152.986 179.042 152.98 179.145C152.973 179.241 152.97 179.366 152.97 179.52V180.81Z" fill="#073F73"/>
<path d="M147.721 177.123C148.087 177.123 148.433 177.191 148.761 177.326C149.088 177.454 149.373 177.634 149.617 177.865C149.868 178.096 150.063 178.372 150.204 178.692C150.352 179.007 150.426 179.353 150.426 179.732C150.426 180.123 150.352 180.483 150.204 180.81C150.063 181.137 149.868 181.42 149.617 181.657C149.373 181.895 149.088 182.081 148.761 182.215C148.433 182.35 148.087 182.418 147.721 182.418C147.362 182.418 147.018 182.353 146.691 182.225C146.37 182.09 146.088 181.904 145.844 181.667C145.6 181.429 145.408 181.147 145.266 180.82C145.125 180.486 145.055 180.123 145.055 179.732C145.055 179.353 145.125 179.004 145.266 178.683C145.408 178.362 145.6 178.086 145.844 177.855C146.088 177.624 146.37 177.444 146.691 177.316C147.018 177.188 147.362 177.123 147.721 177.123ZM147.721 177.585C147.484 177.585 147.265 177.637 147.066 177.739C146.874 177.842 146.707 177.99 146.566 178.182C146.431 178.368 146.325 178.596 146.248 178.866C146.178 179.129 146.142 179.421 146.142 179.742C146.142 180.075 146.178 180.377 146.248 180.646C146.325 180.916 146.431 181.147 146.566 181.339C146.707 181.526 146.874 181.67 147.066 181.773C147.259 181.875 147.477 181.927 147.721 181.927C147.965 181.927 148.186 181.875 148.385 181.773C148.584 181.67 148.754 181.522 148.895 181.33C149.037 181.137 149.146 180.906 149.223 180.637C149.3 180.367 149.338 180.069 149.338 179.742C149.338 179.421 149.3 179.129 149.223 178.866C149.146 178.603 149.037 178.378 148.895 178.192C148.754 177.999 148.584 177.852 148.385 177.749C148.186 177.64 147.965 177.585 147.721 177.585Z" fill="#073F73"/>
<path d="M143.507 180.791C143.507 181.041 143.516 181.243 143.536 181.397C143.561 181.545 143.606 181.664 143.671 181.753C143.735 181.837 143.825 181.895 143.94 181.927C144.056 181.959 144.21 181.978 144.402 181.984V182.321H141.64V181.984C141.832 181.978 141.989 181.959 142.111 181.927C142.233 181.888 142.326 181.83 142.39 181.753C142.461 181.67 142.506 181.558 142.525 181.416C142.551 181.269 142.564 181.083 142.564 180.858V179.626C142.564 179.254 142.557 178.949 142.544 178.712C142.538 178.468 142.522 178.301 142.496 178.211C142.464 178.064 142.39 177.964 142.275 177.913C142.159 177.855 141.941 177.826 141.62 177.826V177.489L143.507 177.123V180.791ZM142.4 175.169C142.4 175.003 142.458 174.861 142.573 174.746C142.689 174.63 142.83 174.573 142.997 174.573C143.164 174.573 143.305 174.63 143.42 174.746C143.536 174.861 143.594 175.003 143.594 175.169C143.594 175.336 143.536 175.477 143.42 175.593C143.305 175.708 143.164 175.766 142.997 175.766C142.83 175.766 142.689 175.708 142.573 175.593C142.458 175.477 142.4 175.336 142.4 175.169Z" fill="#073F73"/>
<path d="M137.769 182.321H137.557V180.666H137.798C138.048 181.57 138.504 182.023 139.165 182.023C139.421 182.023 139.624 181.962 139.771 181.84C139.925 181.712 140.002 181.519 140.002 181.262C140.002 181.166 139.986 181.086 139.954 181.022C139.928 180.951 139.874 180.881 139.79 180.81C139.713 180.733 139.601 180.646 139.453 180.55C139.312 180.454 139.123 180.332 138.886 180.184C138.667 180.05 138.478 179.925 138.318 179.809C138.157 179.693 138.022 179.578 137.913 179.462C137.804 179.341 137.721 179.212 137.663 179.077C137.612 178.943 137.586 178.785 137.586 178.606C137.586 178.388 137.621 178.189 137.692 178.009C137.769 177.823 137.872 177.666 138 177.537C138.128 177.409 138.279 177.31 138.452 177.239C138.626 177.162 138.815 177.123 139.02 177.123C139.194 177.123 139.373 177.152 139.559 177.21C139.745 177.261 139.909 177.332 140.05 177.422L140.243 177.22H140.426V178.606H140.175C140.034 178.214 139.88 177.935 139.713 177.768C139.547 177.602 139.341 177.518 139.097 177.518C138.879 177.518 138.703 177.576 138.568 177.691C138.44 177.807 138.375 177.967 138.375 178.173C138.375 178.282 138.391 178.378 138.424 178.461C138.462 178.538 138.52 178.615 138.597 178.692C138.674 178.769 138.77 178.85 138.886 178.933C139.008 179.01 139.152 179.1 139.319 179.203C139.595 179.376 139.829 179.53 140.021 179.665C140.22 179.799 140.381 179.934 140.503 180.069C140.625 180.197 140.714 180.332 140.772 180.473C140.83 180.614 140.859 180.775 140.859 180.954C140.859 181.41 140.711 181.769 140.416 182.033C140.121 182.289 139.733 182.418 139.251 182.418C138.751 182.418 138.321 182.273 137.962 181.984L137.769 182.321Z" fill="#073F73"/>
<path d="M133.398 182.321H133.186V180.666H133.427C133.677 181.57 134.133 182.023 134.794 182.023C135.05 182.023 135.253 181.962 135.4 181.84C135.554 181.712 135.631 181.519 135.631 181.262C135.631 181.166 135.615 181.086 135.583 181.022C135.557 180.951 135.503 180.881 135.419 180.81C135.342 180.733 135.23 180.646 135.083 180.55C134.941 180.454 134.752 180.332 134.515 180.184C134.296 180.05 134.107 179.925 133.947 179.809C133.786 179.693 133.652 179.578 133.542 179.462C133.433 179.341 133.35 179.212 133.292 179.077C133.241 178.943 133.215 178.785 133.215 178.606C133.215 178.388 133.25 178.189 133.321 178.009C133.398 177.823 133.501 177.666 133.629 177.537C133.757 177.409 133.908 177.31 134.081 177.239C134.255 177.162 134.444 177.123 134.649 177.123C134.823 177.123 135.002 177.152 135.188 177.21C135.375 177.261 135.538 177.332 135.679 177.422L135.872 177.22H136.055V178.606H135.804C135.663 178.214 135.509 177.935 135.342 177.768C135.176 177.602 134.97 177.518 134.726 177.518C134.508 177.518 134.332 177.576 134.197 177.691C134.069 177.807 134.005 177.967 134.005 178.173C134.005 178.282 134.021 178.378 134.053 178.461C134.091 178.538 134.149 178.615 134.226 178.692C134.303 178.769 134.399 178.85 134.515 178.933C134.637 179.01 134.781 179.1 134.948 179.203C135.224 179.376 135.458 179.53 135.65 179.665C135.849 179.799 136.01 179.934 136.132 180.069C136.254 180.197 136.344 180.332 136.401 180.473C136.459 180.614 136.488 180.775 136.488 180.954C136.488 181.41 136.34 181.769 136.045 182.033C135.75 182.289 135.362 182.418 134.88 182.418C134.38 182.418 133.95 182.273 133.591 181.984L133.398 182.321Z" fill="#073F73"/>
<path d="M132.077 181.426C131.531 182.087 130.854 182.418 130.046 182.418C129.667 182.418 129.324 182.357 129.016 182.235C128.708 182.106 128.442 181.93 128.217 181.705C127.999 181.474 127.829 181.202 127.707 180.887C127.585 180.566 127.524 180.213 127.524 179.828C127.524 179.437 127.588 179.074 127.716 178.741C127.845 178.407 128.024 178.121 128.256 177.884C128.493 177.646 128.772 177.46 129.093 177.326C129.42 177.191 129.776 177.123 130.161 177.123C130.784 177.123 131.265 177.294 131.605 177.634C131.945 177.967 132.115 178.449 132.115 179.077C132.115 179.167 132.096 179.222 132.058 179.241C132.026 179.26 131.945 179.27 131.817 179.27H128.65C128.637 179.321 128.628 179.385 128.621 179.462C128.615 179.533 128.612 179.613 128.612 179.703C128.612 180.037 128.65 180.342 128.727 180.618C128.811 180.887 128.926 181.118 129.074 181.311C129.228 181.503 129.407 181.654 129.613 181.763C129.824 181.866 130.059 181.917 130.315 181.917C130.585 181.917 130.835 181.859 131.066 181.744C131.297 181.622 131.535 181.426 131.779 181.157L132.077 181.426ZM130.489 178.827C130.617 178.827 130.72 178.824 130.797 178.818C130.874 178.811 130.931 178.798 130.97 178.779C131.008 178.76 131.034 178.734 131.047 178.702C131.06 178.664 131.066 178.615 131.066 178.558C131.066 178.262 130.97 178.028 130.777 177.855C130.591 177.675 130.335 177.585 130.007 177.585C129.314 177.585 128.884 177.999 128.718 178.827H130.489Z" fill="#073F73"/>
<path d="M123.401 177.374H124.488V176.681C124.488 175.943 124.681 175.368 125.066 174.958C125.457 174.541 126.013 174.332 126.731 174.332C127.129 174.332 127.453 174.393 127.703 174.515C127.954 174.637 128.079 174.794 128.079 174.987C128.079 175.115 128.037 175.224 127.954 175.314C127.877 175.397 127.777 175.439 127.655 175.439C127.578 175.439 127.495 175.416 127.405 175.372C127.322 175.32 127.209 175.237 127.068 175.121C126.908 174.987 126.783 174.9 126.693 174.861C126.603 174.816 126.497 174.794 126.375 174.794C125.99 174.794 125.714 174.99 125.547 175.381C125.49 175.51 125.448 175.667 125.422 175.853C125.403 176.039 125.393 176.296 125.393 176.623V177.374H126.943V177.826H125.393V180.772C125.393 181.009 125.406 181.205 125.432 181.359C125.464 181.513 125.515 181.638 125.586 181.734C125.663 181.824 125.765 181.888 125.894 181.927C126.022 181.959 126.189 181.978 126.394 181.984V182.321H123.661V181.984C123.84 181.978 123.985 181.962 124.094 181.936C124.203 181.904 124.286 181.85 124.344 181.773C124.402 181.689 124.44 181.577 124.46 181.436C124.479 181.288 124.488 181.092 124.488 180.849V177.826H123.401V177.374Z" fill="#073F73"/>
<path d="M120.019 177.123C120.385 177.123 120.731 177.191 121.059 177.326C121.386 177.454 121.672 177.634 121.915 177.865C122.166 178.096 122.361 178.372 122.503 178.692C122.65 179.007 122.724 179.353 122.724 179.732C122.724 180.123 122.65 180.483 122.503 180.81C122.361 181.137 122.166 181.42 121.915 181.657C121.672 181.895 121.386 182.081 121.059 182.215C120.731 182.35 120.385 182.418 120.019 182.418C119.66 182.418 119.316 182.353 118.989 182.225C118.668 182.09 118.386 181.904 118.142 181.667C117.898 181.429 117.706 181.147 117.565 180.82C117.423 180.486 117.353 180.123 117.353 179.732C117.353 179.353 117.423 179.004 117.565 178.683C117.706 178.362 117.898 178.086 118.142 177.855C118.386 177.624 118.668 177.444 118.989 177.316C119.316 177.188 119.66 177.123 120.019 177.123ZM120.019 177.585C119.782 177.585 119.564 177.637 119.365 177.739C119.172 177.842 119.005 177.99 118.864 178.182C118.729 178.368 118.623 178.596 118.546 178.866C118.476 179.129 118.441 179.421 118.441 179.742C118.441 180.075 118.476 180.377 118.546 180.646C118.623 180.916 118.729 181.147 118.864 181.339C119.005 181.526 119.172 181.67 119.365 181.773C119.557 181.875 119.775 181.927 120.019 181.927C120.263 181.927 120.484 181.875 120.683 181.773C120.882 181.67 121.052 181.522 121.193 181.33C121.335 181.137 121.444 180.906 121.521 180.637C121.598 180.367 121.636 180.069 121.636 179.742C121.636 179.421 121.598 179.129 121.521 178.866C121.444 178.603 121.335 178.378 121.193 178.192C121.052 177.999 120.882 177.852 120.683 177.749C120.484 177.64 120.263 177.585 120.019 177.585Z" fill="#073F73"/>
<path d="M114.544 180.791C114.544 181.054 114.55 181.262 114.563 181.416C114.576 181.57 114.608 181.689 114.66 181.773C114.717 181.85 114.797 181.901 114.9 181.927C115.003 181.952 115.147 181.972 115.333 181.984V182.321H112.773V181.984C112.959 181.978 113.107 181.962 113.216 181.936C113.325 181.904 113.408 181.85 113.466 181.773C113.524 181.696 113.559 181.587 113.572 181.445C113.591 181.298 113.601 181.102 113.601 180.858V179.732C113.601 179.296 113.594 178.956 113.581 178.712C113.575 178.468 113.543 178.288 113.485 178.173C113.434 178.057 113.35 177.99 113.235 177.971C113.119 177.945 112.959 177.932 112.754 177.932V177.595L114.438 177.229L114.573 178.423H114.611C114.695 178.23 114.797 178.054 114.919 177.893C115.048 177.733 115.186 177.598 115.333 177.489C115.481 177.374 115.635 177.284 115.795 177.22C115.956 177.156 116.119 177.123 116.286 177.123C116.492 177.123 116.652 177.175 116.768 177.277C116.889 177.374 116.95 177.505 116.95 177.672C116.95 177.826 116.902 177.948 116.806 178.038C116.71 178.121 116.572 178.163 116.392 178.163C116.289 178.163 116.203 178.15 116.132 178.125C116.062 178.099 115.997 178.073 115.94 178.048C115.888 178.015 115.837 177.987 115.786 177.961C115.741 177.935 115.689 177.922 115.632 177.922C115.458 177.922 115.285 178.035 115.112 178.259C114.939 178.477 114.804 178.757 114.708 179.097C114.656 179.283 114.615 179.495 114.582 179.732C114.557 179.963 114.544 180.207 114.544 180.464V180.791Z" fill="#073F73"/>
<path d="M112.132 176.767C112.132 177.107 112.078 177.412 111.969 177.681C111.86 177.951 111.686 178.179 111.449 178.365C111.218 178.551 110.913 178.695 110.535 178.798C110.162 178.901 109.707 178.952 109.168 178.952H108.301V180.81C108.301 181.047 108.314 181.243 108.34 181.397C108.372 181.545 108.433 181.66 108.523 181.743C108.619 181.827 108.754 181.885 108.927 181.917C109.107 181.942 109.341 181.955 109.63 181.955V182.321H106.232V181.955C106.457 181.949 106.636 181.93 106.771 181.897C106.912 181.865 107.021 181.811 107.098 181.734C107.175 181.657 107.227 181.548 107.252 181.407C107.278 181.265 107.291 181.083 107.291 180.858V176.372C107.291 176.148 107.278 175.968 107.252 175.833C107.233 175.692 107.188 175.583 107.117 175.506C107.053 175.423 106.957 175.368 106.829 175.342C106.7 175.31 106.534 175.288 106.328 175.275V174.909H109.351C110.236 174.909 110.92 175.073 111.401 175.4C111.889 175.727 112.132 176.183 112.132 176.767ZM108.301 178.471H108.985C109.627 178.471 110.101 178.349 110.409 178.105C110.724 177.855 110.881 177.447 110.881 176.883C110.881 176.337 110.756 175.949 110.506 175.718C110.262 175.48 109.877 175.362 109.351 175.362H108.465C108.356 175.362 108.301 175.416 108.301 175.525V178.471Z" fill="#073F73"/>
<path d="M101.917 180.82C101.917 181.064 101.926 181.259 101.946 181.407C101.965 181.554 102.003 181.67 102.061 181.753C102.125 181.837 102.212 181.895 102.321 181.927C102.436 181.959 102.587 181.978 102.773 181.984V182.321H100.117V181.984C100.309 181.978 100.463 181.959 100.579 181.927C100.694 181.888 100.784 181.83 100.848 181.753C100.919 181.676 100.964 181.57 100.983 181.436C101.009 181.295 101.021 181.112 101.021 180.887V176.738C101.021 176.392 101.015 176.103 101.002 175.872C100.996 175.635 100.983 175.474 100.964 175.391C100.932 175.243 100.855 175.144 100.733 175.092C100.617 175.041 100.405 175.015 100.097 175.015V174.688L101.917 174.332V180.82Z" fill="#073F73"/>
<path d="M97.9344 179.472C97.5687 179.613 97.2574 179.751 97.0007 179.886C96.7505 180.021 96.5483 180.156 96.3943 180.29C96.2403 180.425 96.128 180.56 96.0574 180.695C95.9933 180.829 95.9612 180.967 95.9612 181.108C95.9612 181.32 96.0318 181.493 96.1729 181.628C96.3141 181.763 96.5002 181.83 96.7312 181.83C96.8981 181.83 97.0521 181.789 97.1933 181.705C97.3409 181.622 97.4692 181.51 97.5783 181.368C97.6874 181.221 97.774 181.051 97.8382 180.858C97.9024 180.659 97.9344 180.451 97.9344 180.233V179.472ZM97.9344 179.058V178.664C97.9344 177.881 97.6008 177.489 96.9334 177.489C96.8243 177.489 96.7312 177.499 96.6542 177.518C96.5772 177.537 96.5131 177.569 96.4617 177.614C96.4104 177.659 96.3623 177.723 96.3173 177.807C96.2788 177.89 96.2403 177.993 96.2018 178.115C96.1312 178.301 96.0606 178.426 95.9901 178.49C95.9259 178.548 95.8296 178.577 95.7013 178.577C95.3804 178.577 95.22 178.417 95.22 178.096C95.22 177.788 95.3836 177.55 95.7109 177.383C96.0382 177.21 96.5034 177.123 97.1066 177.123C97.7483 177.123 98.204 177.239 98.4735 177.47C98.743 177.695 98.8778 178.08 98.8778 178.625V180.781C98.8778 181.513 99.0221 181.879 99.3109 181.879C99.4007 181.879 99.4874 181.869 99.5708 181.85C99.6542 181.824 99.7248 181.763 99.7826 181.667L99.9173 181.898C99.8403 182.045 99.6991 182.17 99.4938 182.273C99.2885 182.369 99.0735 182.418 98.8489 182.418C98.5665 182.418 98.3548 182.328 98.2136 182.148C98.0788 181.968 98.0114 181.715 98.0114 181.388H97.9633C97.7965 181.702 97.5655 181.952 97.2703 182.138C96.9751 182.318 96.6478 182.408 96.2885 182.408C95.8842 182.408 95.5665 182.305 95.3355 182.1C95.1045 181.895 94.989 181.619 94.989 181.272C94.989 181.118 95.0147 180.97 95.066 180.829C95.1237 180.688 95.2136 180.553 95.3355 180.425C95.4574 180.297 95.6179 180.172 95.8168 180.05C96.0157 179.921 96.2596 179.793 96.5483 179.665L97.9344 179.058Z" fill="#073F73"/>
<path d="M91.4503 180.252C91.7198 180.252 91.9284 180.13 92.076 179.886C92.23 179.642 92.307 179.299 92.307 178.856C92.307 178.42 92.23 178.083 92.076 177.845C91.9284 177.602 91.7166 177.48 91.4407 177.48C91.1648 177.48 90.9434 177.602 90.7765 177.845C90.6161 178.089 90.5359 178.423 90.5359 178.846C90.5359 179.27 90.6193 179.61 90.7862 179.867C90.953 180.123 91.1744 180.252 91.4503 180.252ZM90.9209 181.378C91.0749 181.391 91.2161 181.404 91.3444 181.416C91.4728 181.429 91.5979 181.442 91.7198 181.455C91.8482 181.468 91.9733 181.484 92.0952 181.503C92.2236 181.522 92.3616 181.542 92.5091 181.561C92.9712 181.631 93.3402 181.811 93.6161 182.1C93.8985 182.382 94.0396 182.738 94.0396 183.168C94.0396 183.707 93.8247 184.118 93.3947 184.4C92.9712 184.683 92.3551 184.824 91.5466 184.824C91.1872 184.824 90.8567 184.792 90.5551 184.728C90.2599 184.664 90.0065 184.57 89.7947 184.449C89.5829 184.333 89.4161 184.192 89.2942 184.025C89.1787 183.858 89.1209 183.675 89.1209 183.476C89.1209 183.342 89.1434 183.216 89.1883 183.101C89.2332 182.985 89.2942 182.883 89.3712 182.793C89.4482 182.71 89.538 182.642 89.6407 182.591C89.7498 182.539 89.8621 182.514 89.9776 182.514C90.1958 182.514 90.3915 182.581 90.5648 182.716C90.3915 182.754 90.2503 182.847 90.1412 182.995C90.0321 183.149 89.9776 183.322 89.9776 183.515C89.9776 183.797 90.1156 184.015 90.3915 184.169C90.6739 184.323 91.0717 184.4 91.5851 184.4C92.6824 184.4 93.2311 184.064 93.2311 183.39C93.2311 183.133 93.1444 182.918 92.9712 182.745C92.7979 182.578 92.5926 182.479 92.3551 182.446C92.2011 182.427 92.0407 182.405 91.8739 182.379C91.7134 182.36 91.553 182.341 91.3926 182.321C91.2386 182.302 91.0942 182.286 90.9594 182.273C90.8247 182.26 90.7156 182.247 90.6321 182.235C90.2728 182.196 90.0001 182.1 89.814 181.946C89.6279 181.792 89.5348 181.58 89.5348 181.311C89.5348 181.086 89.6279 180.887 89.814 180.714C90.0001 180.541 90.2343 180.431 90.5166 180.387V180.348C90.3755 180.29 90.2439 180.21 90.122 180.107C90.0001 179.998 89.8942 179.876 89.8043 179.742C89.7209 179.607 89.6535 179.462 89.6022 179.308C89.5509 179.148 89.5252 178.984 89.5252 178.818C89.5252 178.574 89.5701 178.349 89.66 178.144C89.7562 177.938 89.8878 177.762 90.0546 177.614C90.2279 177.46 90.43 177.342 90.661 177.258C90.892 177.168 91.1455 177.123 91.4214 177.123C91.7038 177.123 91.9701 177.168 92.2204 177.258C92.4706 177.342 92.6856 177.467 92.8653 177.634C93.0835 177.454 93.276 177.326 93.4428 177.249C93.6097 177.165 93.7669 177.123 93.9145 177.123C94.1455 177.123 94.3284 177.178 94.4632 177.287C94.6043 177.39 94.6749 177.531 94.6749 177.711C94.6749 177.82 94.6364 177.906 94.5594 177.971C94.4888 178.035 94.399 178.067 94.2899 178.067C94.2001 178.067 94.1263 178.051 94.0685 178.019C94.0107 177.987 93.9562 177.954 93.9049 177.922C93.8599 177.884 93.8118 177.849 93.7605 177.816C93.7091 177.784 93.645 177.768 93.568 177.768C93.414 177.768 93.2567 177.823 93.0963 177.932C93.2503 178.169 93.3273 178.468 93.3273 178.827C93.3273 179.373 93.1573 179.803 92.8172 180.117C92.4771 180.425 91.9669 180.605 91.2867 180.656C90.8952 180.688 90.6225 180.73 90.4685 180.781C90.3145 180.833 90.2375 180.926 90.2375 181.06C90.2375 181.163 90.2952 181.24 90.4108 181.291C90.5263 181.336 90.6963 181.365 90.9209 181.378Z" fill="#073F73"/>
<path d="M88.3198 181.426C87.7743 182.087 87.0973 182.418 86.2888 182.418C85.9102 182.418 85.5669 182.357 85.2588 182.235C84.9508 182.106 84.6845 181.93 84.4599 181.705C84.2417 181.474 84.0717 181.202 83.9498 180.887C83.8278 180.566 83.7669 180.213 83.7669 179.828C83.7669 179.437 83.831 179.074 83.9594 178.741C84.0877 178.407 84.2674 178.121 84.4984 177.884C84.7358 177.646 85.015 177.46 85.3358 177.326C85.6631 177.191 86.0193 177.123 86.4043 177.123C87.0268 177.123 87.508 177.294 87.8481 177.634C88.1882 177.967 88.3583 178.449 88.3583 179.077C88.3583 179.167 88.3391 179.222 88.3005 179.241C88.2685 179.26 88.1882 179.27 88.0599 179.27H84.8931C84.8802 179.321 84.8706 179.385 84.8642 179.462C84.8578 179.533 84.8546 179.613 84.8546 179.703C84.8546 180.037 84.8931 180.342 84.9701 180.618C85.0535 180.887 85.169 181.118 85.3166 181.311C85.4706 181.503 85.6503 181.654 85.8556 181.763C86.0674 181.866 86.3016 181.917 86.5583 181.917C86.8278 181.917 87.0781 181.859 87.3091 181.744C87.5401 181.622 87.7775 181.426 88.0214 181.157L88.3198 181.426ZM86.7316 178.827C86.8599 178.827 86.9626 178.824 87.0396 178.818C87.1166 178.811 87.1743 178.798 87.2128 178.779C87.2514 178.76 87.277 178.734 87.2899 178.702C87.3027 178.664 87.3091 178.615 87.3091 178.558C87.3091 178.262 87.2128 178.028 87.0203 177.855C86.8342 177.675 86.5776 177.585 86.2503 177.585C85.5572 177.585 85.1273 177.999 84.9604 178.827H86.7316Z" fill="#073F73"/>
<path d="M82.9528 182.321H76.7346V181.955C76.9592 181.949 77.1389 181.93 77.2737 181.897C77.4148 181.865 77.5239 181.811 77.6009 181.734C77.6779 181.657 77.7293 181.548 77.7549 181.407C77.7806 181.265 77.7934 181.083 77.7934 180.858V176.372C77.7934 176.148 77.7806 175.968 77.7549 175.833C77.7357 175.692 77.6908 175.583 77.6202 175.506C77.556 175.423 77.4598 175.368 77.3314 175.342C77.2031 175.31 77.0362 175.288 76.8309 175.275V174.909H79.7571V175.275C79.5517 175.281 79.3849 175.301 79.2565 175.333C79.1346 175.365 79.0384 175.423 78.9678 175.506C78.9036 175.589 78.8587 175.705 78.833 175.853C78.8138 176 78.8041 176.196 78.8041 176.44V180.588C78.8041 180.858 78.8298 181.079 78.8811 181.253C78.9389 181.419 79.0319 181.551 79.1603 181.647C79.295 181.737 79.4715 181.801 79.6897 181.84C79.9079 181.872 80.1838 181.888 80.5175 181.888C80.8833 181.888 81.1913 181.869 81.4416 181.83C81.6918 181.785 81.9004 181.711 82.0672 181.609C82.2405 181.5 82.3753 181.352 82.4715 181.166C82.5742 180.973 82.6608 180.726 82.7314 180.425H83.0972L82.9528 182.321Z" fill="#073F73"/>
<path d="M70.3864 183.832C70.0913 184.493 69.6324 184.824 69.01 184.824C68.6057 184.824 68.4036 184.673 68.4036 184.371C68.4036 184.211 68.4581 184.092 68.5672 184.015C68.6827 183.945 68.8913 183.884 69.1929 183.832C69.3276 183.813 69.4431 183.784 69.5394 183.746C69.6357 183.714 69.7223 183.669 69.7993 183.611C69.8763 183.56 69.9437 183.492 70.0014 183.409C70.0656 183.325 70.1265 183.223 70.1843 183.101L70.5212 182.427L68.6731 178.413C68.5897 178.233 68.5159 178.092 68.4517 177.99C68.3939 177.88 68.3298 177.797 68.2592 177.739C68.195 177.675 68.1212 177.633 68.0378 177.614C67.9544 177.588 67.8485 177.569 67.7201 177.556V177.219H70.2709V177.556C69.841 177.556 69.626 177.662 69.626 177.874C69.626 177.957 69.6517 178.089 69.703 178.269C69.7544 178.448 69.8185 178.631 69.8955 178.817L70.9544 181.378H71.0025L71.8784 179.212C71.9618 179 72.0292 178.827 72.0806 178.692C72.1383 178.557 72.18 178.448 72.2057 178.365C72.2378 178.275 72.257 178.201 72.2635 178.144C72.2763 178.086 72.2827 178.031 72.2827 177.98C72.2827 177.813 72.2346 177.701 72.1383 177.643C72.0485 177.585 71.872 177.556 71.6089 177.556V177.219H73.7265V177.556C73.6046 177.556 73.5019 177.572 73.4185 177.604C73.3351 177.637 73.2485 177.71 73.1586 177.826C73.0752 177.935 72.979 178.095 72.8699 178.307C72.7672 178.519 72.6388 178.804 72.4848 179.164L70.3864 183.832Z" fill="#073F73"/>
<path d="M60.8846 182.321V181.955C61.1348 181.949 61.3338 181.93 61.4813 181.897C61.6354 181.865 61.7509 181.811 61.8279 181.734C61.9113 181.657 61.9658 181.548 61.9915 181.407C62.0236 181.265 62.0396 181.083 62.0396 180.858V176.372C62.0396 176.148 62.0268 175.968 62.0011 175.833C61.9819 175.692 61.937 175.583 61.8664 175.506C61.8022 175.423 61.706 175.368 61.5776 175.342C61.4493 175.31 61.2824 175.288 61.0771 175.275V174.909H63.9551C64.8215 174.909 65.4952 175.063 65.9765 175.371C66.4578 175.679 66.6985 176.112 66.6985 176.671C66.6985 177.094 66.5637 177.441 66.2942 177.71C66.0311 177.98 65.6108 178.201 65.0332 178.374V178.413C65.2321 178.432 65.4054 178.455 65.553 178.48C65.7006 178.506 65.8321 178.538 65.9477 178.577C66.0632 178.609 66.1691 178.65 66.2653 178.702C66.368 178.753 66.4674 178.811 66.5637 178.875C67.1348 179.279 67.4204 179.786 67.4204 180.396C67.4204 180.736 67.3241 181.054 67.1316 181.349C66.9455 181.638 66.6824 181.865 66.3423 182.032C66.2332 182.09 66.1209 182.138 66.0054 182.177C65.8899 182.209 65.7551 182.238 65.6011 182.263C65.4471 182.283 65.2674 182.299 65.0621 182.311C64.8632 182.318 64.6257 182.321 64.3498 182.321H60.8846ZM64.3787 181.907C65.5402 181.907 66.1209 181.41 66.1209 180.415C66.1209 179.69 65.8225 179.183 65.2257 178.894C65.1231 178.849 65.0236 178.811 64.9273 178.779C64.8311 178.747 64.7188 178.724 64.5904 178.711C64.4621 178.692 64.3081 178.679 64.1284 178.673C63.9551 178.666 63.7402 178.663 63.4835 178.663H63.0503V180.81C63.0503 181.201 63.153 181.484 63.3584 181.657C63.5637 181.824 63.9038 181.907 64.3787 181.907ZM63.5894 178.182C63.7883 178.182 63.9551 178.179 64.0899 178.172C64.2247 178.166 64.3402 178.156 64.4364 178.143C64.5327 178.124 64.6161 178.102 64.6867 178.076C64.7637 178.044 64.8407 178.002 64.9177 177.951C65.1231 177.823 65.2674 177.669 65.3509 177.489C65.4407 177.309 65.4856 177.075 65.4856 176.786C65.4856 176.279 65.3605 175.917 65.1102 175.699C64.8664 175.474 64.4813 175.362 63.9551 175.362H63.214C63.1049 175.362 63.0503 175.416 63.0503 175.525V178.182H63.5894Z" fill="#073F73"/>
</svg>
