<svg width="19" height="18" viewBox="0 0 19 18" fill="none" xmlns="http://www.w3.org/2000/svg">
<path d="M3.96411 0.340228C4.01734 0.269251 4.08637 0.211644 4.16572 0.171967C4.24508 0.13229 4.33258 0.111633 4.4213 0.111633H14.708C14.7968 0.111633 14.8843 0.13229 14.9636 0.171967C15.043 0.211644 15.112 0.269251 15.1652 0.340228L18.5675 4.88163C18.6509 4.98564 18.6973 5.11448 18.6994 5.24781C18.7015 5.38113 18.6591 5.51135 18.5789 5.6179L10.0219 17.0276C9.96851 17.0984 9.89944 17.1559 9.8201 17.1954C9.74077 17.235 9.65332 17.2556 9.56467 17.2556C9.47602 17.2556 9.38857 17.235 9.30923 17.1954C9.2299 17.1559 9.16083 17.0984 9.10748 17.0276L0.535195 5.5979C0.461004 5.49897 0.420898 5.37866 0.420898 5.255C0.420898 5.13135 0.461004 5.01104 0.535195 4.91211L3.96411 0.340228ZM16.9787 4.66637L14.9138 1.91181L14.028 4.66923L16.9787 4.66637ZM12.8259 4.67018L13.9242 1.2546H5.20614L6.30625 4.6778L12.8259 4.67018ZM6.67295 5.82078L9.56467 14.8169L12.4592 5.81506L6.67295 5.82078ZM5.10613 4.6778L4.21461 1.90991L2.13726 4.68161L5.10613 4.6778ZM2.13536 5.82649L7.97975 13.6177L5.47474 5.82268L2.13536 5.82649ZM11.1524 13.6177L17.0083 5.81125L13.6613 5.81316L11.1524 13.6177Z" fill="white"/>
</svg>
