<svg width="19" height="19" viewBox="0 0 19 19" fill="none" xmlns="http://www.w3.org/2000/svg">
<path d="M8.87964 12.0984L13.8877 17.1064C14.3172 17.5222 14.8929 17.7525 15.4906 17.7477C16.0884 17.7428 16.6603 17.5032 17.083 17.0805C17.5057 16.6578 17.7453 16.0859 17.7502 15.4881C17.755 14.8904 17.5247 14.3147 17.109 13.8851L12.0605 8.83675M8.87964 12.0984L11.0237 9.49561C11.296 9.16575 11.6594 8.95787 12.0614 8.83761C12.5339 8.69673 13.0604 8.67611 13.5587 8.71735C14.2303 8.77502 14.9053 8.65606 15.5167 8.37229C16.1281 8.08852 16.6547 7.6498 17.0442 7.09966C17.4337 6.54952 17.6726 5.90709 17.7372 5.23612C17.8017 4.56515 17.6897 3.88896 17.4122 3.27466L14.5981 6.08963C14.1272 5.98076 13.6965 5.74188 13.3548 5.40017C13.0131 5.05847 12.7742 4.62768 12.6653 4.15686L15.4794 1.34274C14.8651 1.06525 14.1889 0.953222 13.5179 1.01777C12.847 1.08231 12.2045 1.32119 11.6544 1.7107C11.1043 2.10021 10.6655 2.6268 10.3818 3.23823C10.098 3.84966 9.97905 4.52467 10.0367 5.19626C10.1149 6.12056 9.97573 7.14106 9.26018 7.73034L9.17256 7.80336M8.87964 12.0984L4.88094 16.9544C4.68714 17.1906 4.44603 17.3837 4.17312 17.5211C3.9002 17.6585 3.60154 17.7373 3.29636 17.7523C2.99117 17.7673 2.68622 17.7183 2.40113 17.6083C2.11604 17.4983 1.85713 17.3299 1.64107 17.1139C1.42501 16.8978 1.25658 16.6389 1.14663 16.3538C1.03667 16.0687 0.987626 15.7638 1.00265 15.4586C1.01767 15.1534 1.09642 14.8547 1.23384 14.5818C1.37126 14.3089 1.5643 14.0678 1.80053 13.874L7.67359 9.03776L4.14563 5.5098H2.93529L1.00251 2.28851L2.29103 1L5.51232 2.93277V4.14312L9.1717 7.8025L7.67273 9.0369M14.854 14.8515L12.5991 12.5966M3.25054 15.4958H3.25742V15.5027H3.25054V15.4958Z" stroke="#5E5E5E" stroke-linecap="round" stroke-linejoin="round"/>
</svg>
