<svg width="17" height="17" viewBox="0 0 17 17" fill="none" xmlns="http://www.w3.org/2000/svg">
<path d="M8.05432 10.9539L12.5378 15.4374C12.9223 15.8096 13.4377 16.0158 13.9729 16.0114C14.508 16.0071 15.02 15.7926 15.3985 15.4142C15.7769 15.0357 15.9914 14.5237 15.9957 13.9886C16.0001 13.4534 15.7939 12.938 15.4217 12.5535L10.9021 8.03387M8.05432 10.9539L9.97383 8.62372C10.2176 8.32841 10.5429 8.1423 10.9028 8.03463C11.3258 7.90851 11.7972 7.89006 12.2433 7.92697C12.8445 7.9786 13.4488 7.87211 13.9962 7.61806C14.5436 7.36401 15.015 6.97124 15.3637 6.47872C15.7125 5.98621 15.9263 5.41106 15.9841 4.81037C16.0419 4.20968 15.9416 3.60431 15.6932 3.05435L13.1738 5.57449C12.7523 5.47702 12.3666 5.26315 12.0607 4.95724C11.7548 4.65133 11.5409 4.26566 11.4435 3.84415L13.9628 1.32479C13.4129 1.07636 12.8075 0.976065 12.2068 1.03385C11.6061 1.09164 11.031 1.30549 10.5385 1.65421C10.0459 2.00292 9.65317 2.47436 9.39912 3.02174C9.14507 3.56913 9.03858 4.17343 9.09021 4.77469C9.16019 5.60217 9.03561 6.51579 8.395 7.04335L8.31656 7.10871M8.05432 10.9539L4.47445 15.3013C4.30095 15.5128 4.08509 15.6856 3.84076 15.8086C3.59643 15.9316 3.32906 16.0021 3.05583 16.0156C2.78261 16.029 2.5096 15.9851 2.25437 15.8867C1.99915 15.7882 1.76736 15.6375 1.57393 15.444C1.38049 15.2506 1.22971 15.0188 1.13127 14.7636C1.03283 14.5083 0.988922 14.2353 1.00237 13.9621C1.01582 13.6889 1.08632 13.4215 1.20935 13.1772C1.33237 12.9329 1.50519 12.717 1.71669 12.5435L6.97459 8.21382L3.81616 5.05539H2.73258L1.00225 2.1715L2.15581 1.01794L5.03969 2.74828V3.83185L8.31579 7.10795L6.97382 8.21305M13.403 13.4187L11.3842 11.3999M3.01482 13.9954H3.02097V14.0016H3.01482V13.9954Z" stroke="#5E5E5E" stroke-linecap="round" stroke-linejoin="round"/>
</svg>
