<svg width="46" height="47" viewBox="0 0 46 47" fill="none" xmlns="http://www.w3.org/2000/svg">
<circle cx="23.1744" cy="23.4633" r="22.6217" fill="#FF7CAC" fill-opacity="0.3"/>
<path d="M34.8392 24.3682C35.0019 22.2961 34.6104 20.218 33.7052 18.3481C32.2069 19.7757 30.4358 20.8842 28.4986 21.6066C28.6544 23.5239 28.5681 25.4532 28.2418 27.3488C30.5991 26.7534 32.8327 25.7443 34.8392 24.3682ZM26.3351 27.735C26.7183 25.8976 26.8524 24.0167 26.7335 22.1433C25.5911 22.4165 24.3996 22.5609 23.1744 22.5609C21.9492 22.5609 20.7577 22.4165 19.6153 22.1433C19.4992 24.0167 19.6332 25.8972 20.0137 27.735C22.1086 28.057 24.2402 28.057 26.3351 27.735ZM20.5009 29.623C22.277 29.8337 24.0718 29.8337 25.8479 29.623C25.2375 31.5935 24.3363 33.4613 23.1744 35.1642C22.0124 33.4613 21.1113 31.5935 20.5009 29.623ZM18.107 27.35C17.7789 25.4538 17.6927 23.5235 17.8502 21.6054C15.9126 20.8831 14.141 19.7747 12.6423 18.3469C11.7374 20.2172 11.3463 22.2958 11.5096 24.3682C13.5161 25.7443 15.7497 26.7546 18.107 27.35ZM34.4012 26.7748C33.7954 28.8336 32.6387 30.6866 31.0568 32.1327C29.4749 33.5788 27.5281 34.5627 25.4279 34.9777C26.4797 33.2043 27.2824 31.2939 27.8134 29.3005C30.1287 28.8139 32.3524 27.9606 34.4012 26.7748ZM11.9476 26.7748C13.9659 27.9432 16.1834 28.806 18.5353 29.3005C19.0663 31.2939 19.8691 33.2043 20.9209 34.9777C18.8208 34.5628 16.8742 33.5791 15.2923 32.1332C13.7104 30.6873 12.5536 28.8334 11.9476 26.7748ZM25.4279 11.9478C28.4011 12.5338 31.0318 14.2531 32.7669 16.7441C31.4861 18.0417 29.9572 19.0666 28.2718 19.7572C27.8177 16.999 26.8532 14.3503 25.4279 11.9478ZM23.1744 11.7625C24.9256 14.328 26.0762 17.2571 26.5403 20.3311C25.4639 20.6079 24.336 20.7559 23.1744 20.7559C22.0128 20.7559 20.8849 20.6091 19.8085 20.3311C20.2725 17.2571 21.4231 14.328 23.1744 11.7625ZM20.9209 11.9478C19.4956 14.3503 18.531 16.999 18.077 19.7572C16.3916 19.0666 14.8626 18.0417 13.5819 16.7441C15.3171 14.2534 17.9478 12.5334 20.9209 11.9478Z" fill="#FF7CAC"/>
</svg>
