<svg width="47" height="47" viewBox="0 0 47 47" fill="none" xmlns="http://www.w3.org/2000/svg">
<circle cx="23.4708" cy="23.4633" r="22.6217" fill="#CCA4FF" fill-opacity="0.3"/>
<path fill-rule="evenodd" clip-rule="evenodd" d="M23.4676 18.3952C23.4674 17.6031 23.6528 16.822 24.0088 16.1144C24.3648 15.4068 24.8816 14.7925 25.5178 14.3207C26.154 13.8488 26.8919 13.5325 27.6724 13.3972C28.4528 13.2618 29.2541 13.3112 30.012 13.5412C30.1318 13.5775 30.2402 13.6442 30.3265 13.7349C30.4128 13.8255 30.4742 13.9369 30.5047 14.0583C30.5351 14.1798 30.5336 14.307 30.5003 14.4276C30.4669 14.5483 30.4029 14.6582 30.3144 14.7468L27.1074 17.9528C27.1682 18.4116 27.374 18.855 27.7266 19.2076C28.0791 19.5601 28.5225 19.7659 28.9823 19.8258L32.1874 16.6198C32.2759 16.5313 32.3858 16.4672 32.5065 16.4339C32.6271 16.4005 32.7544 16.399 32.8758 16.4294C32.9972 16.4599 33.1086 16.5213 33.1993 16.6076C33.2899 16.694 33.3566 16.8023 33.3929 16.9221C33.6336 17.715 33.6764 18.5548 33.5174 19.3681C33.3585 20.1814 33.0027 20.9433 32.4811 21.5872C31.9596 22.2312 31.2882 22.7375 30.5257 23.0619C29.7632 23.3863 28.9328 23.5189 28.1071 23.4481C27.1238 23.3651 26.3008 23.5447 25.8767 24.0605L18.9701 32.4499C18.6873 32.7916 18.3363 33.0705 17.9395 33.2688C17.5427 33.467 17.1089 33.5802 16.6658 33.601C16.2227 33.6219 15.7802 33.55 15.3665 33.39C14.9528 33.23 14.5771 32.9853 14.2634 32.6717C13.9497 32.3581 13.705 31.9825 13.5449 31.5688C13.3848 31.1552 13.3128 30.7126 13.3336 30.2696C13.3544 29.8265 13.4674 29.3926 13.6656 28.9958C13.8637 28.5989 14.1425 28.2478 14.4842 27.965L22.8726 21.0574C23.3875 20.6324 23.5681 19.8103 23.485 18.827C23.4732 18.6834 23.4674 18.5393 23.4676 18.3952ZM15.853 30.349C15.853 30.1568 15.9293 29.9725 16.0652 29.8367C16.201 29.7008 16.3853 29.6245 16.5774 29.6245H16.5852C16.7773 29.6245 16.9616 29.7008 17.0974 29.8367C17.2333 29.9725 17.3096 30.1568 17.3096 30.349V30.3567C17.3096 30.5488 17.2333 30.7331 17.0974 30.869C16.9616 31.0048 16.7773 31.0812 16.5852 31.0812H16.5774C16.3853 31.0812 16.201 31.0048 16.0652 30.869C15.9293 30.7331 15.853 30.5488 15.853 30.3567V30.349Z" fill="#CCA4FF"/>
<path d="M21.6088 20.2208L19.4828 18.0957V16.583C19.4828 16.4579 19.4504 16.335 19.3887 16.2261C19.3271 16.1173 19.2384 16.0262 19.1311 15.9619L15.5088 13.7885C15.3702 13.7054 15.2079 13.671 15.0476 13.6908C14.8873 13.7106 14.7382 13.7834 14.624 13.8976L13.8995 14.6221C13.7853 14.7363 13.7125 14.8854 13.6927 15.0457C13.6729 15.206 13.7073 15.3684 13.7903 15.5069L15.9638 19.1293C16.0281 19.2365 16.1192 19.3252 16.228 19.3869C16.3369 19.4485 16.4598 19.4809 16.5849 19.4809H18.0956L20.0874 21.4727L21.6088 20.2198V20.2208Z" fill="#CCA4FF"/>
<path fill-rule="evenodd" clip-rule="evenodd" d="M24.0044 28.6141L28.045 32.6537C28.3477 32.9564 28.7071 33.1966 29.1027 33.3604C29.4982 33.5243 29.9221 33.6086 30.3503 33.6086C30.7784 33.6086 31.2023 33.5243 31.5979 33.3604C31.9934 33.1966 32.3528 32.9564 32.6555 32.6537C32.9583 32.351 33.1984 31.9916 33.3623 31.596C33.5261 31.2005 33.6104 30.7766 33.6104 30.3484C33.6104 29.9203 33.5261 29.4964 33.3623 29.1008C33.1984 28.7053 32.9583 28.3459 32.6555 28.0432L29.4621 24.8507C28.9726 24.9201 28.4768 24.934 27.9842 24.8922C27.6036 24.8594 27.3254 24.8864 27.1467 24.9328C27.0901 24.9448 27.0357 24.9653 26.9854 24.9936L24.0044 28.6141ZM27.3022 27.3004C27.438 27.1647 27.6222 27.0885 27.8141 27.0885C28.0061 27.0885 28.1903 27.1647 28.3261 27.3004L30.1373 29.1125C30.2085 29.1788 30.2656 29.2588 30.3051 29.3477C30.3447 29.4365 30.366 29.5325 30.3678 29.6297C30.3695 29.727 30.3516 29.8236 30.3151 29.9139C30.2787 30.0041 30.2245 30.086 30.1557 30.1548C30.0869 30.2236 30.0049 30.2778 29.9147 30.3143C29.8245 30.3507 29.7279 30.3686 29.6306 30.3669C29.5333 30.3652 29.4374 30.3439 29.3485 30.3043C29.2597 30.2647 29.1797 30.2076 29.1134 30.1364L27.3022 28.3252C27.1665 28.1894 27.0903 28.0053 27.0903 27.8133C27.0903 27.6213 27.1665 27.4372 27.3022 27.3013V27.3004Z" fill="#CCA4FF"/>
</svg>
