<svg width="46" height="47" viewBox="0 0 46 47" fill="none" xmlns="http://www.w3.org/2000/svg">
<circle cx="23.3182" cy="23.4633" r="22.6217" fill="#F55D3E" fill-opacity="0.3"/>
<path d="M15.9401 17.2999H29.7582C29.9195 17.2999 30.0807 17.31 30.241 17.3303C30.1866 16.9494 30.0557 16.5835 29.8561 16.2545C29.6566 15.9256 29.3925 15.6405 29.0798 15.4163C28.767 15.1922 28.4122 15.0337 28.0366 14.9503C27.661 14.867 27.2724 14.8606 26.8942 14.9315L15.5301 16.8716H15.5172C14.8039 17.0081 14.1697 17.4117 13.7439 18C14.3853 17.5438 15.153 17.2991 15.9401 17.2999Z" fill="#F55D3E"/>
<path d="M29.7593 18.3372H15.9411C15.2084 18.338 14.5059 18.6294 13.9877 19.1475C13.4696 19.6656 13.1782 20.3681 13.1775 21.1009V29.3918C13.1782 30.1245 13.4696 30.827 13.9877 31.3451C14.5059 31.8633 15.2084 32.1547 15.9411 32.1554H29.7593C30.492 32.1547 31.1946 31.8633 31.7127 31.3451C32.2308 30.827 32.5222 30.1245 32.5229 29.3918V21.1009C32.522 20.3682 32.2305 19.6658 31.7124 19.1477C31.1943 18.6297 30.492 18.3382 29.7593 18.3372ZM27.7078 26.6281C27.3413 26.6281 26.9898 26.4825 26.7307 26.2234C26.4715 25.9643 26.3259 25.6128 26.3259 25.2463C26.3259 24.8798 26.4715 24.5284 26.7307 24.2692C26.9898 24.0101 27.3413 23.8645 27.7078 23.8645C28.0742 23.8645 28.4257 24.0101 28.6849 24.2692C28.944 24.5284 29.0896 24.8798 29.0896 25.2463C29.0896 25.6128 28.944 25.9643 28.6849 26.2234C28.4257 26.4825 28.0742 26.6281 27.7078 26.6281Z" fill="#F55D3E"/>
<path d="M13.199 24.0156V19.7191C13.199 18.7831 13.7176 17.2143 15.5158 16.8744C17.0423 16.5888 18.554 16.5888 18.554 16.5888C18.554 16.5888 19.547 17.2797 18.7262 17.2797C17.9064 17.2797 17.9276 18.3373 18.7262 18.3373C19.5249 18.3373 18.7262 19.3524 18.7262 19.3524L15.5094 23.0004L13.199 24.0165V24.0156Z" fill="#F55D3E"/>
</svg>
