<svg width="46" height="47" viewBox="0 0 46 47" fill="none" xmlns="http://www.w3.org/2000/svg">
<circle cx="22.6393" cy="23.4633" r="22.6217" fill="#00E0C9" fill-opacity="0.3"/>
<path fill-rule="evenodd" clip-rule="evenodd" d="M22.6392 13.3226C24.7822 13.3221 26.859 14.0265 28.5146 15.3155C30.1703 16.6045 31.3023 18.3981 31.7172 20.3899C34.9284 20.6005 37.4603 23.1045 37.4603 26.1935C37.4603 29.423 34.6937 32.044 31.2849 32.044H15.2287C11.1405 32.044 7.81812 28.8964 7.81812 25.0235C7.81812 21.4079 10.7082 18.4242 14.4259 18.0497C15.2071 16.6251 16.3861 15.431 17.8344 14.5975C19.2827 13.7639 20.9446 13.323 22.6392 13.3226ZM25.1094 28.5337V23.8534H28.8147L22.6392 18.0029L16.4638 23.8534H20.169V28.5337H25.1094Z" fill="#00E0C9"/>
</svg>
