<svg width="17" height="16" viewBox="0 0 17 16" fill="none" xmlns="http://www.w3.org/2000/svg">
<path d="M3.5 3.60667V2.875C3.5 2.37772 3.69754 1.90081 4.04917 1.54917C4.40081 1.19754 4.87772 1 5.375 1H11.625C12.1223 1 12.5992 1.19754 12.9508 1.54917C13.3025 1.90081 13.5 2.37772 13.5 2.875V3.60667M3.5 3.60667C3.69583 3.5375 3.90583 3.5 4.125 3.5H12.875C13.0942 3.5 13.3042 3.5375 13.5 3.60667M3.5 3.60667C3.13434 3.73595 2.81777 3.97543 2.59391 4.29213C2.37004 4.60883 2.24988 4.98716 2.25 5.375V6.10667M13.5 3.60667C13.8657 3.73595 14.1822 3.97543 14.4061 4.29213C14.63 4.60883 14.7501 4.98716 14.75 5.375V6.10667M2.25 6.10667C2.44583 6.0375 2.65583 6 2.875 6H14.125C14.3379 5.99975 14.5492 6.03583 14.75 6.10667M2.25 6.10667C1.52167 6.36417 1 7.05833 1 7.875V12.875C1 13.3723 1.19754 13.8492 1.54917 14.2008C1.90081 14.5525 2.37772 14.75 2.875 14.75H14.125C14.6223 14.75 15.0992 14.5525 15.4508 14.2008C15.8025 13.8492 16 13.3723 16 12.875V7.875C16.0001 7.48716 15.88 7.10883 15.6561 6.79213C15.4322 6.47543 15.1157 6.23595 14.75 6.10667" stroke="#5E5E5E" stroke-width="1.5" stroke-linecap="round" stroke-linejoin="round"/>
</svg>
