<svg width="17" height="17" viewBox="0 0 17 17" fill="none" xmlns="http://www.w3.org/2000/svg">
<path d="M8.5 16.0179C10.1625 16.0178 11.7779 15.4656 13.0925 14.448C14.4072 13.4303 15.3466 12.0049 15.7633 10.3954M8.5 16.0179C6.8375 16.0178 5.22212 15.4656 3.90748 14.448C2.59284 13.4303 1.6534 12.0049 1.23667 10.3954M8.5 16.0179C10.5708 16.0179 12.25 12.6596 12.25 8.51794C12.25 4.37628 10.5708 1.01794 8.5 1.01794M8.5 16.0179C6.42917 16.0179 4.75 12.6596 4.75 8.51794C4.75 4.37628 6.42917 1.01794 8.5 1.01794M15.7633 10.3954C15.9175 9.79544 16 9.16628 16 8.51794C16.002 7.22804 15.6699 5.9596 15.0358 4.83628M15.7633 10.3954C13.541 11.6274 11.041 12.2719 8.5 12.2679C5.865 12.2679 3.38917 11.5888 1.23667 10.3954M1.23667 10.3954C1.07896 9.78209 0.999439 9.15125 1 8.51794C1 7.18044 1.35 5.92378 1.96417 4.83628M8.5 1.01794C9.8302 1.01739 11.1366 1.37074 12.2852 2.04175C13.4337 2.71275 14.3831 3.67725 15.0358 4.83628M8.5 1.01794C7.1698 1.01739 5.8634 1.37074 4.71484 2.04175C3.56628 2.71275 2.61692 3.67725 1.96417 4.83628M15.0358 4.83628C13.2214 6.40788 10.9004 7.2714 8.5 7.26794C6.00167 7.26794 3.71667 6.35128 1.96417 4.83628" stroke="#5E5E5E" stroke-linecap="round" stroke-linejoin="round"/>
</svg>
