<svg width="17" height="22" viewBox="0 0 17 22" fill="none" xmlns="http://www.w3.org/2000/svg">
<path d="M11.4582 15.1666H5.20817C4.9319 15.1666 4.66695 15.2764 4.4716 15.4717C4.27625 15.6671 4.1665 15.932 4.1665 16.2083C4.1665 16.4846 4.27625 16.7495 4.4716 16.9449C4.66695 17.1402 4.9319 17.25 5.20817 17.25H11.4582C11.7344 17.25 11.9994 17.1402 12.1947 16.9449C12.3901 16.7495 12.4998 16.4846 12.4998 16.2083C12.4998 15.932 12.3901 15.6671 12.1947 15.4717C11.9994 15.2764 11.7344 15.1666 11.4582 15.1666Z" fill="#5E5E5E"/>
<path d="M5.20817 13.0833H8.33317C8.60944 13.0833 8.87439 12.9736 9.06974 12.7782C9.26509 12.5829 9.37484 12.3179 9.37484 12.0417C9.37484 11.7654 9.26509 11.5004 9.06974 11.3051C8.87439 11.1097 8.60944 11 8.33317 11H5.20817C4.9319 11 4.66695 11.1097 4.4716 11.3051C4.27625 11.5004 4.1665 11.7654 4.1665 12.0417C4.1665 12.3179 4.27625 12.5829 4.4716 12.7782C4.66695 12.9736 4.9319 13.0833 5.20817 13.0833Z" fill="#5E5E5E"/>
<path d="M16.3958 7.17707L10.7292 0.927067C10.6318 0.819158 10.5129 0.732827 10.3801 0.673625C10.2474 0.614423 10.1037 0.583661 9.95833 0.583317H2.66667C2.32057 0.579189 1.97705 0.643276 1.65573 0.771918C1.3344 0.90056 1.04157 1.09124 0.793939 1.33306C0.546311 1.57489 0.348744 1.86312 0.212519 2.1813C0.0762938 2.49949 0.00407956 2.84139 0 3.18748V18.8125C0.00407956 19.1586 0.0762938 19.5005 0.212519 19.8187C0.348744 20.1368 0.546311 20.4251 0.793939 20.6669C1.04157 20.9087 1.3344 21.0994 1.65573 21.228C1.97705 21.3567 2.32057 21.4208 2.66667 21.4166H14C14.6989 21.4247 15.3724 21.1549 15.8724 20.6666C16.3725 20.1783 16.6582 19.5114 16.6667 18.8125V7.87498C16.666 7.61682 16.5695 7.36811 16.3958 7.17707ZM10.4167 3.70832L13.2708 6.83332H11.1875C11.0784 6.82673 10.9717 6.79848 10.8737 6.75023C10.7756 6.70197 10.6882 6.63466 10.6164 6.55224C10.5447 6.46981 10.4901 6.37392 10.4558 6.27016C10.4215 6.1664 10.4082 6.05685 10.4167 5.9479V3.70832ZM14 19.3333H2.66667C2.59414 19.3375 2.52149 19.3274 2.45289 19.3035C2.38429 19.2796 2.32108 19.2424 2.26689 19.194C2.2127 19.1456 2.16859 19.087 2.13709 19.0215C2.10559 18.9561 2.08732 18.885 2.08333 18.8125V3.18748C2.08732 3.11494 2.10559 3.0439 2.13709 2.97844C2.16859 2.91297 2.2127 2.85437 2.26689 2.80598C2.32108 2.7576 2.38429 2.72038 2.45289 2.69647C2.52149 2.67256 2.59414 2.66243 2.66667 2.66665H8.33333V5.9479C8.31652 6.71522 8.60391 7.45803 9.13278 8.01422C9.66165 8.57042 10.3891 8.89483 11.1562 8.91665H14.5833V18.8125C14.5793 18.885 14.5611 18.9561 14.5296 19.0215C14.4981 19.087 14.454 19.1456 14.3998 19.194C14.3456 19.2424 14.2824 19.2796 14.2138 19.3035C14.1452 19.3274 14.0725 19.3375 14 19.3333Z" fill="#5E5E5E"/>
</svg>
