<svg width="21" height="19" viewBox="0 0 21 19" fill="none" xmlns="http://www.w3.org/2000/svg">
<path d="M12.5001 10.5417H11.4584V9.50001C11.4584 9.22374 11.3487 8.95879 11.1533 8.76344C10.958 8.56809 10.693 8.45834 10.4167 8.45834C10.1405 8.45834 9.87553 8.56809 9.68018 8.76344C9.48483 8.95879 9.37508 9.22374 9.37508 9.50001V10.5417H8.33341C8.05715 10.5417 7.7922 10.6514 7.59685 10.8468C7.40149 11.0421 7.29175 11.3071 7.29175 11.5833C7.29175 11.8596 7.40149 12.1246 7.59685 12.3199C7.7922 12.5153 8.05715 12.625 8.33341 12.625H9.37508V13.6667C9.37508 13.9429 9.48483 14.2079 9.68018 14.4032C9.87553 14.5986 10.1405 14.7083 10.4167 14.7083C10.693 14.7083 10.958 14.5986 11.1533 14.4032C11.3487 14.2079 11.4584 13.9429 11.4584 13.6667V12.625H12.5001C12.7763 12.625 13.0413 12.5153 13.2367 12.3199C13.432 12.1246 13.5417 11.8596 13.5417 11.5833C13.5417 11.3071 13.432 11.0421 13.2367 10.8468C13.0413 10.6514 12.7763 10.5417 12.5001 10.5417Z" fill="#5E5E5E"/>
<path d="M18.2292 4.34374H10.9375L8.19792 1.03124C8.10099 0.911748 7.97879 0.815212 7.8401 0.748572C7.70142 0.681931 7.54969 0.646841 7.39583 0.645824H2.60417C1.92355 0.637468 1.26736 0.899152 0.779269 1.37357C0.29118 1.848 0.0109717 2.4965 0 3.17707V15.8229C0.0109717 16.5035 0.29118 17.152 0.779269 17.6264C1.26736 18.1008 1.92355 18.3625 2.60417 18.3542H18.2292C18.9098 18.3625 19.566 18.1008 20.0541 17.6264C20.5422 17.152 20.8224 16.5035 20.8333 15.8229V6.87499C20.8224 6.19441 20.5422 5.54591 20.0541 5.07149C19.566 4.59707 18.9098 4.33539 18.2292 4.34374ZM18.75 15.8021C18.7458 15.8659 18.7289 15.9282 18.7003 15.9855C18.6718 16.0427 18.6321 16.0936 18.5836 16.1353C18.5351 16.177 18.4788 16.2087 18.4179 16.2283C18.3571 16.248 18.2929 16.2554 18.2292 16.25H2.60417C2.54041 16.2555 2.47618 16.2483 2.41527 16.2286C2.35436 16.209 2.29798 16.1774 2.24946 16.1357C2.20094 16.0939 2.16124 16.0429 2.13271 15.9856C2.10419 15.9284 2.0874 15.8659 2.08333 15.8021V3.17707C2.08726 3.11315 2.10395 3.05067 2.13244 2.99331C2.16092 2.93596 2.20061 2.88489 2.24916 2.84313C2.29772 2.80138 2.35415 2.76978 2.41512 2.7502C2.4761 2.73062 2.54038 2.72347 2.60417 2.72916H6.90625L9.61458 6.04166C9.71151 6.16115 9.83371 6.25769 9.9724 6.32433C10.1111 6.39097 10.2628 6.42606 10.4167 6.42707H18.2292C18.293 6.42139 18.3572 6.42854 18.4182 6.44812C18.4792 6.46769 18.5356 6.49929 18.5842 6.54105C18.6327 6.58281 18.6724 6.63387 18.7009 6.69123C18.7294 6.74859 18.7461 6.81107 18.75 6.87499V15.8021Z" fill="#5E5E5E"/>
</svg>
