<svg width="17" height="21" viewBox="0 0 17 21" fill="none" xmlns="http://www.w3.org/2000/svg">
<path d="M16.3958 6.59394L10.7292 0.343937C10.6318 0.236029 10.5129 0.149697 10.3801 0.0904952C10.2474 0.0312932 10.1037 0.000531047 9.95833 0.000187475H2.66667C2.32057 -0.00394075 1.97705 0.0601458 1.65573 0.188788C1.3344 0.31743 1.04157 0.508107 0.793939 0.749931C0.546311 0.991755 0.348744 1.27999 0.212519 1.59817C0.0762938 1.91636 0.00407956 2.25826 0 2.60435V18.2294C0.00407956 18.5754 0.0762938 18.9173 0.212519 19.2355C0.348744 19.5537 0.546311 19.842 0.793939 20.0838C1.04157 20.3256 1.3344 20.5163 1.65573 20.6449C1.97705 20.7736 2.32057 20.8376 2.66667 20.8335H14C14.6989 20.8416 15.3724 20.5718 15.8724 20.0835C16.3725 19.5951 16.6582 18.9282 16.6667 18.2294V7.29185C16.666 7.03369 16.5695 6.78498 16.3958 6.59394ZM10.4167 3.12519L13.2708 6.25019H11.1875C11.0784 6.2436 10.9717 6.21535 10.8737 6.1671C10.7756 6.11884 10.6882 6.05153 10.6164 5.96911C10.5447 5.88668 10.4901 5.79079 10.4558 5.68703C10.4215 5.58327 10.4082 5.47372 10.4167 5.36477V3.12519ZM14 18.7502H2.66667C2.59414 18.7544 2.52149 18.7443 2.45289 18.7204C2.38429 18.6965 2.32108 18.6592 2.26689 18.6109C2.2127 18.5625 2.16859 18.5039 2.13709 18.4384C2.10559 18.3729 2.08732 18.3019 2.08333 18.2294V2.60435C2.08732 2.53181 2.10559 2.46077 2.13709 2.39531C2.16859 2.32984 2.2127 2.27124 2.26689 2.22285C2.32108 2.17447 2.38429 2.13725 2.45289 2.11334C2.52149 2.08943 2.59414 2.0793 2.66667 2.08352H8.33333V5.36477C8.31652 6.13209 8.60391 6.8749 9.13278 7.43109C9.66165 7.98729 10.3891 8.3117 11.1562 8.33352H14.5833V18.2294C14.5793 18.3019 14.5611 18.3729 14.5296 18.4384C14.4981 18.5039 14.454 18.5625 14.3998 18.6109C14.3456 18.6592 14.2824 18.6965 14.2138 18.7204C14.1452 18.7443 14.0725 18.7544 14 18.7502Z" fill="#5E5E5E"/>
<path d="M10.4166 11.4585H9.37492V10.4168C9.37492 10.1406 9.26517 9.87563 9.06982 9.68028C8.87447 9.48493 8.60952 9.37518 8.33325 9.37518C8.05698 9.37518 7.79203 9.48493 7.59668 9.68028C7.40133 9.87563 7.29159 10.1406 7.29159 10.4168V11.4585H6.24992C5.97365 11.4585 5.7087 11.5683 5.51335 11.7636C5.318 11.959 5.20825 12.2239 5.20825 12.5002C5.20825 12.7765 5.318 13.0414 5.51335 13.2368C5.7087 13.4321 5.97365 13.5418 6.24992 13.5418H7.29159V14.5835C7.29159 14.8598 7.40133 15.1247 7.59668 15.3201C7.79203 15.5154 8.05698 15.6252 8.33325 15.6252C8.60952 15.6252 8.87447 15.5154 9.06982 15.3201C9.26517 15.1247 9.37492 14.8598 9.37492 14.5835V13.5418H10.4166C10.6929 13.5418 10.9578 13.4321 11.1532 13.2368C11.3485 13.0414 11.4583 12.7765 11.4583 12.5002C11.4583 12.2239 11.3485 11.959 11.1532 11.7636C10.9578 11.5683 10.6929 11.4585 10.4166 11.4585Z" fill="#5E5E5E"/>
</svg>
