<svg width="16" height="21" viewBox="0 0 16 21" fill="none" xmlns="http://www.w3.org/2000/svg">
<path fill-rule="evenodd" clip-rule="evenodd" d="M15.7459 12.4622C14.8989 10.5992 14.9209 9.89822 14.9599 8.62422C14.9699 8.32318 14.9799 7.99618 14.9799 7.62118C14.9799 4.64418 12.8509 0.451172 8.11893 0.451172C3.38689 0.451172 1.25789 4.64418 1.25789 7.62118C1.25789 7.99518 1.26789 8.32318 1.27789 8.62422C1.31689 9.89822 1.33789 10.5992 0.481891 12.4872C0.115891 13.4312 0.159891 14.2462 0.614891 14.9102C1.70689 16.5082 4.86689 16.7282 8.11893 16.7282C11.3709 16.7282 14.5309 16.5082 15.6229 14.9102C16.0789 14.2462 16.1229 13.4312 15.7459 12.4622Z" fill="#0056C4"/>
<path fill-rule="evenodd" clip-rule="evenodd" d="M10.8162 17.7407C9.1852 17.9217 7.4172 17.9207 5.40715 17.7387C5.10615 17.7147 4.80815 17.8737 4.67015 18.1487C4.53115 18.4247 4.57515 18.7557 4.78015 18.9857C5.68015 19.9927 6.8642 20.5487 8.1142 20.5487H8.1162C9.3692 20.5487 10.5562 19.9937 11.4582 18.9857C11.6652 18.7547 11.7082 18.4187 11.5662 18.1417C11.4232 17.8667 11.1292 17.7127 10.8162 17.7407Z" fill="#0056C4"/>
</svg>
